<svg xmlns="http://www.w3.org/2000/svg" xmlns:xlink="http://www.w3.org/1999/xlink" viewBox="0 0 67.03 67.02"><defs><style>.cls-1{fill:url(#linear-gradient);}.cls-2{fill:url(#linear-gradient-2);}.cls-3{fill:url(#New_Gradient_Swatch_4);}.cls-4{fill:url(#linear-gradient-3);}.cls-5{fill:url(#linear-gradient-4);}.cls-6{fill:url(#New_Gradient_Swatch_3);}.cls-7{fill:url(#linear-gradient-5);}.cls-8{fill:url(#linear-gradient-6);}.cls-9{fill:url(#New_Gradient_Swatch_2);}.cls-10{fill:url(#linear-gradient-7);}.cls-11{fill:url(#linear-gradient-8);}.cls-12{fill:url(#New_Gradient_Swatch_1);}.cls-13{fill:url(#linear-gradient-9);}.cls-14{fill:url(#linear-gradient-10);}.cls-15{fill:url(#New_Gradient_Swatch_5);}.cls-16{fill:url(#New_Gradient_Swatch_5-2);}.cls-17{fill:url(#New_Gradient_Swatch_5-3);}.cls-18{fill:url(#New_Gradient_Swatch_5-4);}.cls-19{fill:url(#New_Gradient_Swatch_5-5);}.cls-20{fill:#791f0b;}</style><linearGradient id="linear-gradient" x1="33.51" y1="67.02" x2="33.51" gradientUnits="userSpaceOnUse"><stop offset="0" stop-color="#4c6e20"/><stop offset="0.04" stop-color="#537525"/><stop offset="0.28" stop-color="#78a043"/><stop offset="0.5" stop-color="#93bf59"/><stop offset="0.68" stop-color="#a4d266"/><stop offset="0.81" stop-color="#aad96b"/></linearGradient><linearGradient id="linear-gradient-2" x1="-2974.18" y1="944.32" x2="-2974.18" y2="943.39" gradientTransform="matrix(37.4, 0, 0, -37.4, 111255.68, 35316.52)" gradientUnits="userSpaceOnUse"><stop offset="0" stop-color="#e2f9cd"/><stop offset="0.3" stop-color="#c2e29f"/><stop offset="0.59" stop-color="#a7ce77"/><stop offset="0.83" stop-color="#96c25f"/><stop offset="0.97" stop-color="#90bd56"/></linearGradient><linearGradient id="New_Gradient_Swatch_4" x1="39.98" y1="48.56" x2="39.98" y2="18.65" gradientUnits="userSpaceOnUse"><stop offset="0" stop-color="#c8f19f"/><stop offset="0.28" stop-color="#c1eb97"/><stop offset="0.79" stop-color="#b8e48d"/></linearGradient><linearGradient id="linear-gradient-3" x1="33.51" y1="67.02" x2="33.51" gradientUnits="userSpaceOnUse"><stop offset="0" stop-color="#80235d"/><stop offset="0.16" stop-color="#9a3d77"/><stop offset="0.43" stop-color="#c2639d"/><stop offset="0.64" stop-color="#da7ab4"/><stop offset="0.78" stop-color="#e383bd"/></linearGradient><linearGradient id="linear-gradient-4" x1="-2974.18" y1="944.32" x2="-2974.18" y2="943.39" gradientTransform="matrix(37.4, 0, 0, -37.4, 111255.68, 35316.52)" gradientUnits="userSpaceOnUse"><stop offset="0" stop-color="#ecc9da"/><stop offset="0.19" stop-color="#e5a6ca"/><stop offset="0.37" stop-color="#df8cbd"/><stop offset="0.53" stop-color="#db7cb6"/><stop offset="0.66" stop-color="#da76b3"/><stop offset="1" stop-color="#c5669f"/></linearGradient><linearGradient id="New_Gradient_Swatch_3" x1="39.98" y1="48.56" x2="39.98" y2="18.65" gradientUnits="userSpaceOnUse"><stop offset="0" stop-color="#e48bc3"/><stop offset="0.35" stop-color="#e27bb9"/><stop offset="0.68" stop-color="#e071b3"/></linearGradient><linearGradient id="linear-gradient-5" x1="33.51" y1="67.02" x2="33.51" gradientUnits="userSpaceOnUse"><stop offset="0" stop-color="#3c559c"/><stop offset="0.23" stop-color="#5e7fbf"/><stop offset="0.49" stop-color="#7da7e0"/><stop offset="0.69" stop-color="#90bff5"/><stop offset="0.81" stop-color="#97c8fc"/></linearGradient><linearGradient id="linear-gradient-6" x1="-2974.18" y1="944.32" x2="-2974.18" y2="943.39" gradientTransform="matrix(37.4, 0, 0, -37.4, 111255.68, 35316.52)" gradientUnits="userSpaceOnUse"><stop offset="0.04" stop-color="#d2e5fd"/><stop offset="0.07" stop-color="#cde1fc"/><stop offset="0.39" stop-color="#a5c7f2"/><stop offset="0.64" stop-color="#8db6eb"/><stop offset="0.79" stop-color="#84b0e9"/><stop offset="1" stop-color="#7a9fdc"/></linearGradient><linearGradient id="New_Gradient_Swatch_2" x1="39.98" y1="48.56" x2="39.98" y2="18.65" gradientUnits="userSpaceOnUse"><stop offset="0" stop-color="#8fc4fc"/><stop offset="0.04" stop-color="#8fc3fc"/><stop offset="0.68" stop-color="#8db9fc"/></linearGradient><linearGradient id="linear-gradient-7" x1="33.51" y1="67.02" x2="33.51" gradientUnits="userSpaceOnUse"><stop offset="0" stop-color="#8c4811"/><stop offset="0.21" stop-color="#ac6c23"/><stop offset="0.46" stop-color="#cf9437"/><stop offset="0.67" stop-color="#e4ac43"/><stop offset="0.79" stop-color="#ecb548"/></linearGradient><linearGradient id="linear-gradient-8" x1="-2974.18" y1="943.39" x2="-2974.18" y2="944.32" gradientTransform="matrix(37.4, 0, 0, -37.4, 111255.68, 35316.52)" gradientUnits="userSpaceOnUse"><stop offset="0" stop-color="#ce9033"/><stop offset="0.45" stop-color="#e2b156"/><stop offset="0.7" stop-color="#efc56c"/><stop offset="1" stop-color="#f3e4c7"/></linearGradient><linearGradient id="New_Gradient_Swatch_1" x1="39.98" y1="48.56" x2="39.98" y2="18.65" gradientUnits="userSpaceOnUse"><stop offset="0" stop-color="#eebd61"/><stop offset="0.12" stop-color="#ebbb60"/><stop offset="0.68" stop-color="#e1b45b"/></linearGradient><linearGradient id="linear-gradient-9" x1="33.51" y1="67.02" x2="33.51" gradientUnits="userSpaceOnUse"><stop offset="0" stop-color="#606466"/><stop offset="0.03" stop-color="#65696b"/><stop offset="0.41" stop-color="#a8aeb0"/><stop offset="0.68" stop-color="#d2d9db"/><stop offset="0.82" stop-color="#e2eaeb"/></linearGradient><linearGradient id="linear-gradient-10" x1="-2974.18" y1="943.39" x2="-2974.18" y2="944.32" gradientTransform="matrix(37.4, 0, 0, -37.4, 111255.68, 35316.52)" gradientUnits="userSpaceOnUse"><stop offset="0" stop-color="#adb5b5"/><stop offset="0.59" stop-color="#dde1e3"/><stop offset="0.84" stop-color="#fafcff"/></linearGradient><linearGradient id="New_Gradient_Swatch_5" x1="37.68" y1="40.11" x2="41.66" y2="40.11" gradientUnits="userSpaceOnUse"><stop offset="0" stop-color="#d4dde4"/><stop offset="0.26" stop-color="#ccd5db"/><stop offset="0.68" stop-color="#c2cbd1"/></linearGradient><linearGradient id="New_Gradient_Swatch_5-2" x1="25.64" y1="41.55" x2="53.71" y2="41.55" xlink:href="#New_Gradient_Swatch_5"/><linearGradient id="New_Gradient_Swatch_5-3" x1="32.09" y1="25.96" x2="47.38" y2="25.96" xlink:href="#New_Gradient_Swatch_5"/><linearGradient id="New_Gradient_Swatch_5-4" x1="15.71" y1="33.28" x2="26.41" y2="33.28" xlink:href="#New_Gradient_Swatch_5"/><linearGradient id="New_Gradient_Swatch_5-5" x1="11.07" y1="38.44" x2="15.11" y2="38.44" xlink:href="#New_Gradient_Swatch_5"/></defs><title>codigo</title><g id="Capa_2" data-name="Capa 2"><g id="Capa_1-2" data-name="Capa 1"><path class="cls-1" d="M67,33.5A33.51,33.51,0,1,1,33.52,0,33.53,33.53,0,0,1,67,33.5Z"/><path class="cls-2" d="M34.68,2.29a33,33,0,0,0-6,.57C15.72,5.27,6.64,14.74,8.36,24c1.45,7.79,10.11,12.94,20.51,12.94a32.73,32.73,0,0,0,6-.57C47.85,34,56.92,24.5,55.19,15.25,53.74,7.46,45.1,2.29,34.68,2.29Z"/><path class="cls-3" d="M39.06,37a.47.47,0,0,1-.21-.38v-.83a.48.48,0,0,1,.48-.48h1.25a.48.48,0,0,1,.48.48v.83a.47.47,0,0,1-.16.35L42,40.53l-2,5.09-2-5.15Zm6.09-1.75L40,48.48,34.81,35.2c-5.24,2.05-7.81,7.13-8.86,13.36H54C53,42.34,50.39,37.26,45.15,35.2ZM40,33.94a7.64,7.64,0,1,0-7.64-7.64A7.64,7.64,0,0,0,40,33.94Zm-3.5-12.11A10,10,0,0,0,44,25.08a10.47,10.47,0,0,0,2.16-.23,6.47,6.47,0,0,1,.17,1.45,6.33,6.33,0,0,1-12.65.35A8.51,8.51,0,0,0,36.54,21.83Z"/><path class="cls-4" d="M67,33.5A33.51,33.51,0,1,1,33.52,0,33.53,33.53,0,0,1,67,33.5Z"/><path class="cls-5" d="M34.68,2.29a33,33,0,0,0-6,.57C15.72,5.27,6.64,14.74,8.36,24c1.45,7.79,10.11,12.94,20.51,12.94a32.73,32.73,0,0,0,6-.57C47.85,34,56.92,24.5,55.19,15.25,53.74,7.46,45.1,2.29,34.68,2.29Z"/><path class="cls-6" d="M39.06,37a.47.47,0,0,1-.21-.38v-.83a.48.48,0,0,1,.48-.48h1.25a.48.48,0,0,1,.48.48v.83a.47.47,0,0,1-.16.35L42,40.53l-2,5.09-2-5.15Zm6.09-1.75L40,48.48,34.81,35.2c-5.24,2.05-7.81,7.13-8.86,13.36H54C53,42.34,50.39,37.26,45.15,35.2ZM40,33.94a7.64,7.64,0,1,0-7.64-7.64A7.64,7.64,0,0,0,40,33.94Zm-3.5-12.11A10,10,0,0,0,44,25.08a10.47,10.47,0,0,0,2.16-.23,6.47,6.47,0,0,1,.17,1.45,6.33,6.33,0,0,1-12.65.35A8.51,8.51,0,0,0,36.54,21.83Z"/><path class="cls-7" d="M67,33.5A33.51,33.51,0,1,1,33.52,0,33.53,33.53,0,0,1,67,33.5Z"/><path class="cls-8" d="M34.68,2.29a33,33,0,0,0-6,.57C15.72,5.27,6.64,14.74,8.36,24c1.45,7.79,10.11,12.94,20.51,12.94a32.73,32.73,0,0,0,6-.57C47.85,34,56.92,24.5,55.19,15.25,53.74,7.46,45.1,2.29,34.68,2.29Z"/><path class="cls-9" d="M39.06,37a.47.47,0,0,1-.21-.38v-.83a.48.48,0,0,1,.48-.48h1.25a.48.48,0,0,1,.48.48v.83a.47.47,0,0,1-.16.35L42,40.53l-2,5.09-2-5.15Zm6.09-1.75L40,48.48,34.81,35.2c-5.24,2.05-7.81,7.13-8.86,13.36H54C53,42.34,50.39,37.26,45.15,35.2ZM40,33.94a7.64,7.64,0,1,0-7.64-7.64A7.64,7.64,0,0,0,40,33.94Zm-3.5-12.11A10,10,0,0,0,44,25.08a10.47,10.47,0,0,0,2.16-.23,6.47,6.47,0,0,1,.17,1.45,6.33,6.33,0,0,1-12.65.35A8.51,8.51,0,0,0,36.54,21.83Z"/><path class="cls-10" d="M67,33.5A33.51,33.51,0,1,1,33.52,0,33.53,33.53,0,0,1,67,33.5Z"/><path class="cls-11" d="M34.68,2.29a33,33,0,0,0-6,.57C15.72,5.27,6.64,14.74,8.36,24c1.45,7.79,10.11,12.94,20.51,12.94a32.73,32.73,0,0,0,6-.57C47.85,34,56.92,24.5,55.19,15.25,53.74,7.46,45.1,2.29,34.68,2.29Z"/><path class="cls-12" d="M39.06,37a.47.47,0,0,1-.21-.38v-.83a.48.48,0,0,1,.48-.48h1.25a.48.48,0,0,1,.48.48v.83a.47.47,0,0,1-.16.35L42,40.53l-2,5.09-2-5.15Zm6.09-1.75L40,48.48,34.81,35.2c-5.24,2.05-7.81,7.13-8.86,13.36H54C53,42.34,50.39,37.26,45.15,35.2ZM40,33.94a7.64,7.64,0,1,0-7.64-7.64A7.64,7.64,0,0,0,40,33.94Zm-3.5-12.11A10,10,0,0,0,44,25.08a10.47,10.47,0,0,0,2.16-.23,6.47,6.47,0,0,1,.17,1.45,6.33,6.33,0,0,1-12.65.35A8.51,8.51,0,0,0,36.54,21.83Z"/><path class="cls-13" d="M67,33.5A33.51,33.51,0,1,1,33.52,0,33.53,33.53,0,0,1,67,33.5Z"/><path class="cls-14" d="M34.68,2.29a33,33,0,0,0-6,.57C15.72,5.27,6.64,14.74,8.36,24c1.45,7.79,10.11,12.94,20.51,12.94a32.73,32.73,0,0,0,6-.57C47.85,34,56.92,24.5,55.19,15.25,53.74,7.46,45.1,2.29,34.68,2.29Z"/><path class="cls-15" d="M38.76,36.62a.47.47,0,0,1-.21-.38v-.83a.48.48,0,0,1,.48-.48h1.25a.48.48,0,0,1,.48.48v.83a.47.47,0,0,1-.16.35l1.06,3.6-2,5.09-2-5.15Z"/><path class="cls-16" d="M53.71,48.23H25.64C26.7,42,29.27,36.92,34.51,34.87l5.17,13.28,5.18-13.28C50.09,36.93,52.66,42,53.71,48.23Z"/><path class="cls-17" d="M32.09,26a7.64,7.64,0,1,1,7.64,7.64A7.65,7.65,0,0,1,32.09,26Zm1.33.35A6.33,6.33,0,0,0,46.07,26a6.47,6.47,0,0,0-.17-1.45,10.47,10.47,0,0,1-2.16.23,10,10,0,0,1-7.49-3.24A8.51,8.51,0,0,1,33.42,26.32Z"/><path class="cls-18" d="M26.41,27l-5.35-7.21L15.71,27H19V44.6a2,2,0,1,0,4,0V27Z"/><rect class="cls-19" x="11.07" y="30.08" width="4.04" height="16.71" rx="1.9" ry="1.9"/><path class="cls-20" d="M39.06,36.1a.47.47,0,0,1-.21-.38v-.83a.48.48,0,0,1,.48-.48h1.25a.48.48,0,0,1,.48.48v.83a.47.47,0,0,1-.16.35L42,39.67l-2,5.09-2-5.15Z"/><path class="cls-20" d="M54,47.71H25.94C27,41.48,29.57,36.4,34.81,34.35L40,47.63l5.18-13.28C50.39,36.41,53,41.48,54,47.71Z"/><path class="cls-20" d="M32.39,25.44A7.64,7.64,0,1,1,40,33.08,7.65,7.65,0,0,1,32.39,25.44Zm1.33.35a6.33,6.33,0,0,0,12.65-.35A6.47,6.47,0,0,0,46.19,24a10.47,10.47,0,0,1-2.16.23A10,10,0,0,1,36.54,21,8.51,8.51,0,0,1,33.72,25.8Z"/><path class="cls-20" d="M26.71,26.46l-5.35-7.21L16,26.46h3.33V44.08a2,2,0,1,0,4,0V26.46Z"/><rect class="cls-20" x="11.37" y="29.56" width="4.04" height="16.71" rx="1.9" ry="1.9"/></g></g></svg>