<svg xmlns="http://www.w3.org/2000/svg" xmlns:xlink="http://www.w3.org/1999/xlink" viewBox="0 0 67.03 67.02"><defs><style>.cls-1{fill:url(#linear-gradient);}.cls-2{fill:url(#linear-gradient-2);}.cls-3{fill:url(#linear-gradient-3);}.cls-4{fill:url(#linear-gradient-4);}.cls-5{fill:url(#linear-gradient-5);}.cls-6{fill:url(#linear-gradient-6);}.cls-7{fill:url(#linear-gradient-7);}.cls-8{fill:url(#linear-gradient-8);}.cls-9{fill:url(#linear-gradient-9);}.cls-10{fill:url(#linear-gradient-10);}.cls-11{fill:url(#New_Gradient_Swatch_5);}.cls-12{fill:url(#New_Gradient_Swatch_5-2);}.cls-13{fill:url(#New_Gradient_Swatch_5-3);}.cls-14{fill:url(#New_Gradient_Swatch_5-4);}.cls-15{fill:url(#New_Gradient_Swatch_5-5);}.cls-16{fill:#791f0b;}</style><linearGradient id="linear-gradient" x1="33.51" y1="67.02" x2="33.51" gradientUnits="userSpaceOnUse"><stop offset="0" stop-color="#4c6e20"/><stop offset="0.04" stop-color="#537525"/><stop offset="0.28" stop-color="#78a043"/><stop offset="0.5" stop-color="#93bf59"/><stop offset="0.68" stop-color="#a4d266"/><stop offset="0.81" stop-color="#aad96b"/></linearGradient><linearGradient id="linear-gradient-2" x1="-2392.26" y1="944.32" x2="-2392.26" y2="943.39" gradientTransform="matrix(37.4, 0, 0, -37.4, 89493.86, 35316.52)" gradientUnits="userSpaceOnUse"><stop offset="0" stop-color="#e2f9cd"/><stop offset="0.3" stop-color="#c2e29f"/><stop offset="0.59" stop-color="#a7ce77"/><stop offset="0.83" stop-color="#96c25f"/><stop offset="0.97" stop-color="#90bd56"/></linearGradient><linearGradient id="linear-gradient-3" x1="33.51" y1="67.02" x2="33.51" gradientUnits="userSpaceOnUse"><stop offset="0" stop-color="#80235d"/><stop offset="0.16" stop-color="#9a3d77"/><stop offset="0.43" stop-color="#c2639d"/><stop offset="0.64" stop-color="#da7ab4"/><stop offset="0.78" stop-color="#e383bd"/></linearGradient><linearGradient id="linear-gradient-4" x1="-2392.26" y1="944.32" x2="-2392.26" y2="943.39" gradientTransform="matrix(37.4, 0, 0, -37.4, 89493.86, 35316.52)" gradientUnits="userSpaceOnUse"><stop offset="0" stop-color="#ecc9da"/><stop offset="0.19" stop-color="#e5a6ca"/><stop offset="0.37" stop-color="#df8cbd"/><stop offset="0.53" stop-color="#db7cb6"/><stop offset="0.66" stop-color="#da76b3"/><stop offset="1" stop-color="#c5669f"/></linearGradient><linearGradient id="linear-gradient-5" x1="33.51" y1="67.02" x2="33.51" gradientUnits="userSpaceOnUse"><stop offset="0" stop-color="#3c559c"/><stop offset="0.23" stop-color="#5e7fbf"/><stop offset="0.49" stop-color="#7da7e0"/><stop offset="0.69" stop-color="#90bff5"/><stop offset="0.81" stop-color="#97c8fc"/></linearGradient><linearGradient id="linear-gradient-6" x1="-2392.26" y1="944.32" x2="-2392.26" y2="943.39" gradientTransform="matrix(37.4, 0, 0, -37.4, 89493.86, 35316.52)" gradientUnits="userSpaceOnUse"><stop offset="0.04" stop-color="#d2e5fd"/><stop offset="0.07" stop-color="#cde1fc"/><stop offset="0.39" stop-color="#a5c7f2"/><stop offset="0.64" stop-color="#8db6eb"/><stop offset="0.79" stop-color="#84b0e9"/><stop offset="1" stop-color="#7a9fdc"/></linearGradient><linearGradient id="linear-gradient-7" x1="33.51" y1="67.02" x2="33.51" gradientUnits="userSpaceOnUse"><stop offset="0" stop-color="#8c4811"/><stop offset="0.21" stop-color="#ac6c23"/><stop offset="0.46" stop-color="#cf9437"/><stop offset="0.67" stop-color="#e4ac43"/><stop offset="0.79" stop-color="#ecb548"/></linearGradient><linearGradient id="linear-gradient-8" x1="-2392.26" y1="943.39" x2="-2392.26" y2="944.32" gradientTransform="matrix(37.4, 0, 0, -37.4, 89493.86, 35316.52)" gradientUnits="userSpaceOnUse"><stop offset="0" stop-color="#ce9033"/><stop offset="0.45" stop-color="#e2b156"/><stop offset="0.7" stop-color="#efc56c"/><stop offset="1" stop-color="#f3e4c7"/></linearGradient><linearGradient id="linear-gradient-9" x1="33.51" y1="67.02" x2="33.51" gradientUnits="userSpaceOnUse"><stop offset="0" stop-color="#606466"/><stop offset="0.03" stop-color="#65696b"/><stop offset="0.41" stop-color="#a8aeb0"/><stop offset="0.68" stop-color="#d2d9db"/><stop offset="0.82" stop-color="#e2eaeb"/></linearGradient><linearGradient id="linear-gradient-10" x1="-2392.26" y1="943.39" x2="-2392.26" y2="944.32" gradientTransform="matrix(37.4, 0, 0, -37.4, 89493.86, 35316.52)" gradientUnits="userSpaceOnUse"><stop offset="0" stop-color="#adb5b5"/><stop offset="0.59" stop-color="#dde1e3"/><stop offset="0.84" stop-color="#fafcff"/></linearGradient><linearGradient id="New_Gradient_Swatch_5" x1="34.25" y1="43.36" x2="38.82" y2="43.36" gradientUnits="userSpaceOnUse"><stop offset="0" stop-color="#d4dde4"/><stop offset="0.26" stop-color="#ccd5db"/><stop offset="0.68" stop-color="#c2cbd1"/></linearGradient><linearGradient id="New_Gradient_Swatch_5-2" x1="20.43" y1="45.02" x2="52.66" y2="45.02" xlink:href="#New_Gradient_Swatch_5"/><linearGradient id="New_Gradient_Swatch_5-3" x1="27.83" y1="27.12" x2="45.38" y2="27.12" xlink:href="#New_Gradient_Swatch_5"/><linearGradient id="New_Gradient_Swatch_5-4" x1="13.81" y1="18.73" x2="27.04" y2="18.73" xlink:href="#New_Gradient_Swatch_5"/><linearGradient id="New_Gradient_Swatch_5-5" x1="16.95" y1="31.84" x2="25.07" y2="31.84" xlink:href="#New_Gradient_Swatch_5"/></defs><title>compromisos</title><g id="Capa_2" data-name="Capa 2"><g id="Capa_1-2" data-name="Capa 1"><path class="cls-1" d="M67,33.5A33.51,33.51,0,1,1,33.52,0,33.53,33.53,0,0,1,67,33.5Z"/><path class="cls-2" d="M34.68,2.29a33,33,0,0,0-6,.57C15.72,5.27,6.64,14.74,8.36,24c1.45,7.79,10.11,12.94,20.51,12.94a32.73,32.73,0,0,0,6-.57C47.85,34,56.92,24.5,55.19,15.25,53.74,7.46,45.1,2.29,34.68,2.29Z"/><path class="cls-3" d="M67,33.5A33.51,33.51,0,1,1,33.52,0,33.53,33.53,0,0,1,67,33.5Z"/><path class="cls-4" d="M34.68,2.29a33,33,0,0,0-6,.57C15.72,5.27,6.64,14.74,8.36,24c1.45,7.79,10.11,12.94,20.51,12.94a32.73,32.73,0,0,0,6-.57C47.85,34,56.92,24.5,55.19,15.25,53.74,7.46,45.1,2.29,34.68,2.29Z"/><path class="cls-5" d="M67,33.5A33.51,33.51,0,1,1,33.52,0,33.53,33.53,0,0,1,67,33.5Z"/><path class="cls-6" d="M34.68,2.29a33,33,0,0,0-6,.57C15.72,5.27,6.64,14.74,8.36,24c1.45,7.79,10.11,12.94,20.51,12.94a32.73,32.73,0,0,0,6-.57C47.85,34,56.92,24.5,55.19,15.25,53.74,7.46,45.1,2.29,34.68,2.29Z"/><path class="cls-7" d="M67,33.5A33.51,33.51,0,1,1,33.52,0,33.53,33.53,0,0,1,67,33.5Z"/><path class="cls-8" d="M34.68,2.29a33,33,0,0,0-6,.57C15.72,5.27,6.64,14.74,8.36,24c1.45,7.79,10.11,12.94,20.51,12.94a32.73,32.73,0,0,0,6-.57C47.85,34,56.92,24.5,55.19,15.25,53.74,7.46,45.1,2.29,34.68,2.29Z"/><path class="cls-9" d="M67,33.5A33.51,33.51,0,1,1,33.52,0,33.53,33.53,0,0,1,67,33.5Z"/><path class="cls-10" d="M34.68,2.29a33,33,0,0,0-6,.57C15.72,5.27,6.64,14.74,8.36,24c1.45,7.79,10.11,12.94,20.51,12.94a32.73,32.73,0,0,0,6-.57C47.85,34,56.92,24.5,55.19,15.25,53.74,7.46,45.1,2.29,34.68,2.29Z"/><path class="cls-11" d="M35.49,39.36a.54.54,0,0,1-.24-.44V38a.55.55,0,0,1,.55-.55h1.44a.55.55,0,0,1,.55.55v.95a.54.54,0,0,1-.18.4l1.22,4.14L36.54,49.3l-2.3-5.91Z"/><path class="cls-12" d="M52.66,52.69H20.43c1.21-7.15,4.16-13,10.18-15.34L36.54,52.6l5.94-15.25C48.5,39.71,51.45,45.54,52.66,52.69Z"/><path class="cls-13" d="M27.83,27.12a8.78,8.78,0,1,1,8.78,8.78A8.78,8.78,0,0,1,27.83,27.12Zm1.53.41a7.27,7.27,0,0,0,14.52-.41,7.43,7.43,0,0,0-.2-1.66,12,12,0,0,1-2.49.26A11.51,11.51,0,0,1,32.59,22,9.77,9.77,0,0,1,29.36,27.53Z"/><path class="cls-14" d="M26.76,17.35h-.84a5.65,5.65,0,0,0-.73-1.64l.59-.62a.29.29,0,0,0,0-.41l-1.59-1.5a.29.29,0,0,0-.41,0l-.6.64a5.64,5.64,0,0,0-1.35-.53v-.92a.25.25,0,0,0-.25-.25H19.3a.25.25,0,0,0-.25.25v.92a5.64,5.64,0,0,0-1.49.61l-.63-.63a.28.28,0,0,0-.4,0L15,14.84a.28.28,0,0,0,0,.4l.61.61a5.65,5.65,0,0,0-.65,1.51h-.84a.28.28,0,0,0-.28.28v2.21a.28.28,0,0,0,.28.28h.81a5.65,5.65,0,0,0,.71,1.71l-.53.56a.29.29,0,0,0,0,.42l1.58,1.49a.29.29,0,0,0,.42,0l.51-.54a5.64,5.64,0,0,0,1.44.58v.73a.3.3,0,0,0,.3.3h2.17a.3.3,0,0,0,.3-.3v-.73a5.65,5.65,0,0,0,1.58-.66l.52.52a.3.3,0,0,0,.42,0l1.54-1.54a.3.3,0,0,0,0-.42l-.54-.54A5.64,5.64,0,0,0,26,20.12h.81a.28.28,0,0,0,.28-.28V17.63A.28.28,0,0,0,26.76,17.35Zm-6.33,4.78a3.33,3.33,0,1,1,3.33-3.33A3.33,3.33,0,0,1,20.43,22.14Z"/><path class="cls-15" d="M24.9,31h-.52a3.47,3.47,0,0,0-.45-1l.36-.38a.18.18,0,0,0,0-.25l-1-.92a.18.18,0,0,0-.25,0l-.37.39a3.46,3.46,0,0,0-.83-.32v-.57a.16.16,0,0,0-.16-.16H20.32a.16.16,0,0,0-.16.16v.57a3.46,3.46,0,0,0-.91.37l-.39-.39a.17.17,0,0,0-.24,0l-1,1a.17.17,0,0,0,0,.24l.37.37a3.47,3.47,0,0,0-.4.93h-.52a.17.17,0,0,0-.17.17v1.36a.17.17,0,0,0,.17.17h.5a3.47,3.47,0,0,0,.44,1l-.32.34a.18.18,0,0,0,0,.26l1,.92a.18.18,0,0,0,.26,0l.31-.33a3.46,3.46,0,0,0,.88.36v.45a.18.18,0,0,0,.18.18h1.33a.18.18,0,0,0,.18-.18v-.45a3.47,3.47,0,0,0,1-.41l.32.32a.18.18,0,0,0,.26,0l.94-.94a.18.18,0,0,0,0-.26L24,33.65a3.46,3.46,0,0,0,.38-1h.49a.17.17,0,0,0,.17-.17V31.16A.17.17,0,0,0,24.9,31ZM21,33.93a2,2,0,1,1,2-2A2,2,0,0,1,21,33.93Z"/><path class="cls-16" d="M35.77,38.82a.54.54,0,0,1-.24-.44v-.95a.55.55,0,0,1,.55-.55h1.44a.55.55,0,0,1,.55.55v.95a.54.54,0,0,1-.18.4l1.22,4.14-2.28,5.84-2.3-5.91Z"/><path class="cls-16" d="M52.94,52.14H20.7c1.21-7.15,4.16-13,10.18-15.34l5.94,15.25L42.77,36.8C48.78,39.16,51.73,45,52.94,52.14Z"/><path class="cls-16" d="M28.11,26.57a8.78,8.78,0,1,1,8.78,8.78A8.78,8.78,0,0,1,28.11,26.57Zm1.53.41a7.27,7.27,0,0,0,14.52-.41,7.43,7.43,0,0,0-.2-1.66,12,12,0,0,1-2.49.26,11.51,11.51,0,0,1-8.6-3.72A9.77,9.77,0,0,1,29.64,27Z"/><path class="cls-16" d="M27,16.8H26.2a5.65,5.65,0,0,0-.73-1.64l.59-.62a.29.29,0,0,0,0-.41l-1.59-1.5a.29.29,0,0,0-.41,0l-.6.64a5.64,5.64,0,0,0-1.35-.53v-.92a.25.25,0,0,0-.25-.25H19.57a.25.25,0,0,0-.25.25v.92a5.64,5.64,0,0,0-1.49.61l-.63-.63a.28.28,0,0,0-.4,0l-1.56,1.56a.28.28,0,0,0,0,.4l.61.61a5.65,5.65,0,0,0-.65,1.51h-.84a.28.28,0,0,0-.28.28v2.21a.28.28,0,0,0,.28.28h.81a5.65,5.65,0,0,0,.71,1.71l-.53.56a.29.29,0,0,0,0,.42L17,23.74a.29.29,0,0,0,.42,0l.51-.54a5.64,5.64,0,0,0,1.44.58v.73a.3.3,0,0,0,.3.3h2.17a.3.3,0,0,0,.3-.3v-.73a5.65,5.65,0,0,0,1.58-.66l.52.52a.3.3,0,0,0,.42,0l1.54-1.54a.3.3,0,0,0,0-.42l-.54-.54a5.64,5.64,0,0,0,.63-1.56H27a.28.28,0,0,0,.28-.28V17.08A.28.28,0,0,0,27,16.8ZM20.7,21.59A3.33,3.33,0,1,1,24,18.26,3.33,3.33,0,0,1,20.7,21.59Z"/><path class="cls-16" d="M25.18,30.45h-.52a3.47,3.47,0,0,0-.45-1l.36-.38a.18.18,0,0,0,0-.25l-1-.92a.18.18,0,0,0-.25,0l-.37.39a3.46,3.46,0,0,0-.83-.32v-.57a.16.16,0,0,0-.16-.16H20.6a.16.16,0,0,0-.16.16V28a3.46,3.46,0,0,0-.91.37l-.39-.39a.17.17,0,0,0-.24,0l-1,1a.17.17,0,0,0,0,.24l.37.37a3.47,3.47,0,0,0-.4.93H17.4a.17.17,0,0,0-.17.17V32a.17.17,0,0,0,.17.17h.5a3.47,3.47,0,0,0,.44,1l-.32.34a.18.18,0,0,0,0,.26l1,.92a.18.18,0,0,0,.26,0l.31-.33a3.46,3.46,0,0,0,.88.36v.45a.18.18,0,0,0,.18.18H22a.18.18,0,0,0,.18-.18v-.45a3.47,3.47,0,0,0,1-.41l.32.32a.18.18,0,0,0,.26,0l.94-.94a.18.18,0,0,0,0-.26l-.33-.33a3.46,3.46,0,0,0,.38-1h.49a.17.17,0,0,0,.17-.17V30.62A.17.17,0,0,0,25.18,30.45Zm-3.89,2.94a2,2,0,1,1,2-2A2,2,0,0,1,21.29,33.38Z"/></g></g></svg>