<svg xmlns="http://www.w3.org/2000/svg" viewBox="0 0 27.03 27.02"><defs><style>.cls-1{fill:#fff;}.cls-2{fill:#616160;}</style></defs><title>fbFooter</title><g id="Capa_2" data-name="Capa 2"><g id="Capa_1-2" data-name="Capa 1"><path class="cls-1" d="M13.52,27A13.51,13.51,0,1,0,0,13.51,13.51,13.51,0,0,0,13.52,27"/><path class="cls-2" d="M10.25,11.22h1.39V9.87a3.63,3.63,0,0,1,.45-2.09,2.48,2.48,0,0,1,2.17-1,8.76,8.76,0,0,1,2.5.25l-.35,2.07a4.69,4.69,0,0,0-1.12-.17c-.55,0-1,.2-1,.74v1.58h2.22l-.15,2H14.27v7H11.65v-7H10.25Z"/></g></g></svg>