<svg xmlns="http://www.w3.org/2000/svg" xmlns:xlink="http://www.w3.org/1999/xlink" viewBox="0 0 73.96 73.95"><defs><style>.cls-1{fill:none;}.cls-2{fill:#791f0b;}.cls-3{clip-path:url(#clip-path);}.cls-4{fill:url(#linear-gradient);}.cls-5{clip-path:url(#clip-path-2);}.cls-6{fill:url(#linear-gradient-2);}.cls-7{clip-path:url(#clip-path-3);}.cls-8{fill:url(#linear-gradient-3);}.cls-9{fill:url(#linear-gradient-4);}.cls-10{fill:url(#linear-gradient-5);}.cls-11{fill:url(#linear-gradient-6);}.cls-12{fill:url(#linear-gradient-7);}.cls-13{fill:url(#linear-gradient-8);}.cls-14{fill:url(#linear-gradient-9);}.cls-15{fill:url(#linear-gradient-10);}.cls-16{clip-path:url(#clip-path-11);}.cls-17{fill:url(#linear-gradient-11);}.cls-18{fill:url(#linear-gradient-12);}.cls-19{fill:url(#linear-gradient-13);}.cls-20{fill:url(#linear-gradient-14);}.cls-21{fill:url(#linear-gradient-15);}.cls-22{clip-path:url(#clip-path-16);}.cls-23{clip-path:url(#clip-path-17);}.cls-24{clip-path:url(#clip-path-18);}.cls-25{clip-path:url(#clip-path-19);}.cls-26{clip-path:url(#clip-path-20);}.cls-27{clip-path:url(#clip-path-21);}.cls-28{clip-path:url(#clip-path-22);}.cls-29{clip-path:url(#clip-path-23);}.cls-30{clip-path:url(#clip-path-24);}.cls-31{clip-path:url(#clip-path-25);}.cls-32{clip-path:url(#clip-path-26);}</style><clipPath id="clip-path"><path class="cls-1" d="M0,37A37,37,0,1,0,37,0,37,37,0,0,0,0,37"/></clipPath><linearGradient id="linear-gradient" x1="2171.27" y1="1975.5" x2="2172.27" y2="1975.5" gradientTransform="matrix(0, -73.95, -73.95, 0, 146131.1, 160645.63)" gradientUnits="userSpaceOnUse"><stop offset="0" stop-color="#5c692c"/><stop offset="0.24" stop-color="#829149"/><stop offset="0.48" stop-color="#a0b160"/><stop offset="0.68" stop-color="#b2c56e"/><stop offset="0.81" stop-color="#b9cc73"/><stop offset="1" stop-color="#b9cc73"/></linearGradient><clipPath id="clip-path-2"><path class="cls-1" d="M31.6,3.15C17.34,5.81,7.33,16.27,9.23,26.48c1.6,8.59,11.15,14.28,22.63,14.28a36.25,36.25,0,0,0,6.67-.63C52.8,37.47,62.8,27,60.9,16.82c-1.6-8.6-11.14-14.3-22.64-14.3a36.44,36.44,0,0,0-6.66.63"/></clipPath><linearGradient id="linear-gradient-2" x1="2174.79" y1="2007.25" x2="2175.79" y2="2007.25" gradientTransform="translate(76799.33 -83169.13) rotate(90) scale(38.24)" gradientUnits="userSpaceOnUse"><stop offset="0" stop-color="#e6f0c9"/><stop offset="0.26" stop-color="#ccd9a3"/><stop offset="0.57" stop-color="#b3c37e"/><stop offset="0.81" stop-color="#a4b567"/><stop offset="0.97" stop-color="#9eb05f"/><stop offset="1" stop-color="#9eb05f"/></linearGradient><clipPath id="clip-path-3"><path class="cls-1" d="M23,60.5a3.37,3.37,0,0,0,6.51,0Zm22.94,0a3.37,3.37,0,0,0,6.51,0ZM32.16,45.35v1.38a.75.75,0,1,0,1.5,0V45.35a.75.75,0,1,0-1.5,0m5.36-2.66a.75.75,0,0,0,0,1.06l1,1a.75.75,0,0,0,1.07-1.06l-1-1a.76.76,0,0,0-.54-.22.74.74,0,0,0-.53.22m-10.28,0-1,1a.75.75,0,1,0,1.07,1.06l1-1a.75.75,0,1,0-1.06-1.06m-3-5.36a.75.75,0,1,0,0,1.51h1.38a.75.75,0,1,0,0-1.51Zm15.92,0a.75.75,0,1,0,0,1.51h1.38a.75.75,0,1,0,0-1.51Zm-1.68-5.9-1,1a.75.75,0,1,0,1.06,1.06l1-1a.75.75,0,0,0-1.07-1.07m-12.25-.08a.76.76,0,0,0,0,1.08l2.45,2.45,0,0a5.33,5.33,0,1,0,1.06-1.06l0,0-2.45-2.45a.75.75,0,0,0-.54-.22.77.77,0,0,0-.54.22m5.92-1.92v1.38a.75.75,0,1,0,1.5,0V29.43a.75.75,0,1,0-1.5,0M48.55,45.18l.6-9.4a2.88,2.88,0,1,1,2.55-.07l.6,9.46a1.88,1.88,0,1,1-3.75,0M22.17,38.06A10.78,10.78,0,1,1,32.95,48.84,10.77,10.77,0,0,1,22.17,38.06M22,17.66a4.82,4.82,0,0,0-4.81,4.8V53.94a4.82,4.82,0,0,0,4.8,4.81H53.42a4.82,4.82,0,0,0,4.81-4.81V22.46a4.82,4.82,0,0,0-4.81-4.8Z"/></clipPath><linearGradient id="linear-gradient-3" x1="2170.51" y1="1996.98" x2="2171.51" y2="1996.98" gradientTransform="matrix(0, -45.33, -45.33, 0, 90563.36, 98455.16)" gradientUnits="userSpaceOnUse"><stop offset="0" stop-color="#d4e59e"/><stop offset="0.28" stop-color="#cddf96"/><stop offset="0.79" stop-color="#c5d88d"/><stop offset="1" stop-color="#c5d88d"/></linearGradient><linearGradient id="linear-gradient-4" x1="2171.27" y1="1975.5" x2="2172.27" y2="1975.5" gradientTransform="matrix(0, -73.95, -73.95, 0, 146131.1, 160645.63)" gradientUnits="userSpaceOnUse"><stop offset="0" stop-color="#67365d"/><stop offset="0.06" stop-color="#703e66"/><stop offset="0.38" stop-color="#996691"/><stop offset="0.63" stop-color="#b37fac"/><stop offset="0.78" stop-color="#bd88b6"/><stop offset="1" stop-color="#bd88b6"/></linearGradient><linearGradient id="linear-gradient-5" x1="2174.79" y1="2007.25" x2="2175.79" y2="2007.25" gradientTransform="translate(76799.33 -83169.13) rotate(90) scale(38.24)" gradientUnits="userSpaceOnUse"><stop offset="0" stop-color="#d9c6d4"/><stop offset="0.15" stop-color="#ccaec6"/><stop offset="0.34" stop-color="#bf95b8"/><stop offset="0.52" stop-color="#b785af"/><stop offset="0.66" stop-color="#b480ac"/><stop offset="1" stop-color="#a17198"/></linearGradient><linearGradient id="linear-gradient-6" x1="2170.51" y1="1996.98" x2="2171.51" y2="1996.98" gradientTransform="matrix(0, -45.33, -45.33, 0, 90563.36, 98455.16)" gradientUnits="userSpaceOnUse"><stop offset="0" stop-color="#c08fbc"/><stop offset="0.18" stop-color="#bd89b7"/><stop offset="0.68" stop-color="#b77eac"/><stop offset="1" stop-color="#b77eac"/></linearGradient><linearGradient id="linear-gradient-7" x1="2171.27" y1="1975.5" x2="2172.27" y2="1975.5" gradientTransform="matrix(0, -73.95, -73.95, 0, 146131.1, 160645.63)" gradientUnits="userSpaceOnUse"><stop offset="0" stop-color="#485b92"/><stop offset="0.16" stop-color="#5f75aa"/><stop offset="0.45" stop-color="#85a0d1"/><stop offset="0.68" stop-color="#9dbaea"/><stop offset="0.81" stop-color="#a6c4f3"/><stop offset="1" stop-color="#a6c4f3"/></linearGradient><linearGradient id="linear-gradient-8" x1="2174.79" y1="2007.25" x2="2175.79" y2="2007.25" gradientTransform="translate(76799.33 -83169.13) rotate(90) scale(38.24)" gradientUnits="userSpaceOnUse"><stop offset="0" stop-color="#d4e0f6"/><stop offset="0.04" stop-color="#d4e0f6"/><stop offset="0.04" stop-color="#d4e0f6"/><stop offset="0.36" stop-color="#afc4e9"/><stop offset="0.63" stop-color="#99b2e2"/><stop offset="0.79" stop-color="#91acdf"/><stop offset="1" stop-color="#849cd2"/></linearGradient><linearGradient id="linear-gradient-9" x1="2170.51" y1="1996.98" x2="2171.51" y2="1996.98" gradientTransform="matrix(0, -45.33, -45.33, 0, 90563.36, 98455.16)" gradientUnits="userSpaceOnUse"><stop offset="0" stop-color="#a0c0f2"/><stop offset="0.11" stop-color="#9fbef2"/><stop offset="0.68" stop-color="#9ab6f2"/><stop offset="1" stop-color="#9ab6f2"/></linearGradient><linearGradient id="linear-gradient-10" x1="2171.27" y1="1975.5" x2="2172.27" y2="1975.5" gradientTransform="matrix(0, -73.95, -73.95, 0, 146131.1, 160645.63)" gradientUnits="userSpaceOnUse"><stop offset="0" stop-color="#764c27"/><stop offset="0.12" stop-color="#885f31"/><stop offset="0.42" stop-color="#b08948"/><stop offset="0.65" stop-color="#c9a357"/><stop offset="0.79" stop-color="#d2ad5c"/><stop offset="1" stop-color="#d2ad5c"/></linearGradient><clipPath id="clip-path-11"><path class="cls-1" d="M31,3.15C16.75,5.81,6.73,16.27,8.63,26.48c1.6,8.59,11.15,14.28,22.63,14.28a36.27,36.27,0,0,0,6.67-.63C52.2,37.47,62.21,27,60.31,16.82c-1.6-8.6-11.14-14.3-22.64-14.3A36.44,36.44,0,0,0,31,3.15"/></clipPath><linearGradient id="linear-gradient-11" x1="2170.14" y1="1875.72" x2="2171.14" y2="1875.72" gradientTransform="translate(-71699.46 83034.57) rotate(-90) scale(38.24)" gradientUnits="userSpaceOnUse"><stop offset="0" stop-color="#b28a48"/><stop offset="0.31" stop-color="#c29e5b"/><stop offset="0.7" stop-color="#dabd78"/><stop offset="0.84" stop-color="#e0cb99"/><stop offset="1" stop-color="#e8ddc4"/></linearGradient><linearGradient id="linear-gradient-12" x1="2170.51" y1="1996.98" x2="2171.51" y2="1996.98" gradientTransform="matrix(0, -45.33, -45.33, 0, 90563.36, 98455.16)" gradientUnits="userSpaceOnUse"><stop offset="0" stop-color="#d6b56e"/><stop offset="0.01" stop-color="#d6b56e"/><stop offset="0.68" stop-color="#cbac68"/><stop offset="1" stop-color="#cbac68"/></linearGradient><linearGradient id="linear-gradient-13" x1="2171.27" y1="1975.5" x2="2172.27" y2="1975.5" gradientTransform="matrix(0, -73.95, -73.95, 0, 146131.1, 160645.63)" gradientUnits="userSpaceOnUse"><stop offset="0" stop-color="#626466"/><stop offset="0.33" stop-color="#999d9e"/><stop offset="0.66" stop-color="#cbd0d1"/><stop offset="0.82" stop-color="#dfe4e5"/><stop offset="1" stop-color="#dfe4e5"/></linearGradient><linearGradient id="linear-gradient-14" x1="2170.14" y1="1875.72" x2="2171.14" y2="1875.72" gradientTransform="translate(-71698.87 83034.57) rotate(-90) scale(38.24)" gradientUnits="userSpaceOnUse"><stop offset="0" stop-color="#aaaeae"/><stop offset="0.59" stop-color="#d9dbdd"/><stop offset="0.84" stop-color="#f6f7ff"/><stop offset="1" stop-color="#f6f7ff"/></linearGradient><linearGradient id="linear-gradient-15" x1="2170.51" y1="1996.98" x2="2171.51" y2="1996.98" gradientTransform="matrix(0, -45.33, -45.33, 0, 90563.36, 98455.16)" gradientUnits="userSpaceOnUse"><stop offset="0" stop-color="#d2d7dd"/><stop offset="0.27" stop-color="#c9ced4"/><stop offset="0.68" stop-color="#bfc5ca"/><stop offset="1" stop-color="#bfc5ca"/></linearGradient><clipPath id="clip-path-16"><path class="cls-2" d="M26.24,30.11a.76.76,0,0,0,0,1.08l2.45,2.45,0,0a5.33,5.33,0,1,0,1.06-1.06l0,0-2.45-2.45a.76.76,0,0,0-.54-.22.77.77,0,0,0-.54.22"/></clipPath><clipPath id="clip-path-17"><path class="cls-2" d="M23,59.27a3.37,3.37,0,0,0,6.51,0Z"/></clipPath><clipPath id="clip-path-18"><path class="cls-2" d="M45.9,59.27a3.37,3.37,0,0,0,6.51,0Z"/></clipPath><clipPath id="clip-path-19"><path class="cls-2" d="M48.55,43.94l.6-9.4a2.88,2.88,0,1,1,2.55-.07l.6,9.46a1.88,1.88,0,1,1-3.75,0M22.17,36.83A10.78,10.78,0,1,1,32.95,47.6,10.77,10.77,0,0,1,22.17,36.83M22,16.42a4.82,4.82,0,0,0-4.81,4.81V52.7a4.82,4.82,0,0,0,4.8,4.81H53.42a4.82,4.82,0,0,0,4.81-4.81V21.23a4.82,4.82,0,0,0-4.81-4.81Z"/></clipPath><clipPath id="clip-path-20"><path class="cls-2" d="M38.49,30.19l-1,1a.75.75,0,1,0,1.06,1.06l1-1a.76.76,0,0,0,0-1.06A.74.74,0,0,0,39,30a.76.76,0,0,0-.53.22"/></clipPath><clipPath id="clip-path-21"><path class="cls-2" d="M24.26,36.09a.75.75,0,1,0,0,1.51h1.38a.75.75,0,1,0,0-1.51Z"/></clipPath><clipPath id="clip-path-22"><path class="cls-2" d="M32.16,44.11V45.5a.75.75,0,1,0,1.5,0V44.11a.75.75,0,1,0-1.5,0"/></clipPath><clipPath id="clip-path-23"><path class="cls-2" d="M40.17,36.09a.75.75,0,1,0,0,1.51h1.38a.75.75,0,1,0,0-1.51Z"/></clipPath><clipPath id="clip-path-24"><path class="cls-2" d="M27.24,41.45l-1,1a.75.75,0,1,0,1.07,1.06l1-1a.75.75,0,0,0-1.06-1.06"/></clipPath><clipPath id="clip-path-25"><path class="cls-2" d="M37.51,41.45a.75.75,0,0,0,0,1.06l1,1a.75.75,0,0,0,1.07-1.06l-1-1a.75.75,0,0,0-1.06,0"/></clipPath><clipPath id="clip-path-26"><path class="cls-2" d="M32.16,28.19v1.38a.75.75,0,1,0,1.5,0V28.19a.75.75,0,1,0-1.5,0"/></clipPath></defs><title>icon_proteccion</title><g id="Capa_2" data-name="Capa 2"><g id="Capa_1-2" data-name="Capa 1"><g class="cls-3"><rect class="cls-4" width="73.96" height="73.95"/></g><g class="cls-5"><rect class="cls-6" x="7.32" y="2.52" width="55.48" height="38.24"/></g><g class="cls-7"><rect class="cls-8" x="17.14" y="17.66" width="41.09" height="45.33"/></g><g class="cls-3"><rect class="cls-9" width="73.96" height="73.95"/></g><g class="cls-5"><rect class="cls-10" x="7.32" y="2.52" width="55.48" height="38.24"/></g><g class="cls-7"><rect class="cls-11" x="17.14" y="17.66" width="41.09" height="45.33"/></g><g class="cls-3"><rect class="cls-12" width="73.96" height="73.95"/></g><g class="cls-5"><rect class="cls-13" x="7.32" y="2.52" width="55.48" height="38.24"/></g><g class="cls-7"><rect class="cls-14" x="17.14" y="17.66" width="41.09" height="45.33"/></g><g class="cls-3"><rect class="cls-15" width="73.96" height="73.95"/></g><g class="cls-16"><rect class="cls-17" x="6.73" y="2.52" width="55.48" height="38.24"/></g><g class="cls-7"><rect class="cls-18" x="17.14" y="17.66" width="41.09" height="45.33"/></g><g class="cls-3"><rect class="cls-19" width="73.96" height="73.95"/></g><g class="cls-5"><rect class="cls-20" x="7.32" y="2.52" width="55.48" height="38.24"/></g><g class="cls-7"><rect class="cls-21" x="17.14" y="17.66" width="41.09" height="45.33"/></g><path class="cls-2" d="M26.24,30.11a.76.76,0,0,0,0,1.08l2.45,2.45,0,0a5.33,5.33,0,1,0,1.06-1.06l0,0-2.45-2.45a.76.76,0,0,0-.54-.22.77.77,0,0,0-.54.22"/><g class="cls-22"><rect class="cls-2" x="25.94" y="29.9" width="12.28" height="12.21"/></g><path class="cls-2" d="M23,59.27a3.37,3.37,0,0,0,6.51,0Z"/><g class="cls-23"><rect class="cls-2" x="22.96" y="59.27" width="6.51" height="2.48"/></g><path class="cls-2" d="M45.9,59.27a3.37,3.37,0,0,0,6.51,0Z"/><g class="cls-24"><rect class="cls-2" x="45.9" y="59.27" width="6.51" height="2.48"/></g><path class="cls-2" d="M48.55,43.94l.6-9.4a2.88,2.88,0,1,1,2.55-.07l.6,9.46a1.88,1.88,0,1,1-3.75,0M22.17,36.83A10.78,10.78,0,1,1,32.95,47.6,10.77,10.77,0,0,1,22.17,36.83M22,16.42a4.82,4.82,0,0,0-4.81,4.81V52.7a4.82,4.82,0,0,0,4.8,4.81H53.42a4.82,4.82,0,0,0,4.81-4.81V21.23a4.82,4.82,0,0,0-4.81-4.81Z"/><g class="cls-25"><rect class="cls-2" x="17.14" y="16.42" width="41.09" height="41.09"/></g><path class="cls-2" d="M38.49,30.19l-1,1a.75.75,0,1,0,1.06,1.06l1-1a.76.76,0,0,0,0-1.06A.74.74,0,0,0,39,30a.76.76,0,0,0-.53.22"/><g class="cls-26"><rect class="cls-2" x="37.22" y="29.98" width="2.63" height="2.56"/></g><path class="cls-2" d="M24.26,36.09a.75.75,0,1,0,0,1.51h1.38a.75.75,0,1,0,0-1.51Z"/><g class="cls-27"><rect class="cls-2" x="23.5" y="36.09" width="2.89" height="1.51"/></g><path class="cls-2" d="M32.16,44.11V45.5a.75.75,0,1,0,1.5,0V44.11a.75.75,0,1,0-1.5,0"/><g class="cls-28"><rect class="cls-2" x="32.16" y="43.36" width="1.5" height="2.89"/></g><path class="cls-2" d="M40.17,36.09a.75.75,0,1,0,0,1.51h1.38a.75.75,0,1,0,0-1.51Z"/><g class="cls-29"><rect class="cls-2" x="39.42" y="36.09" width="2.89" height="1.51"/></g><path class="cls-2" d="M27.24,41.45l-1,1a.75.75,0,1,0,1.07,1.06l1-1a.75.75,0,0,0-1.06-1.06"/><g class="cls-30"><rect class="cls-2" x="25.97" y="41.23" width="2.63" height="2.56"/></g><path class="cls-2" d="M37.51,41.45a.75.75,0,0,0,0,1.06l1,1a.75.75,0,0,0,1.07-1.06l-1-1a.75.75,0,0,0-1.06,0"/><g class="cls-31"><rect class="cls-2" x="37.22" y="41.23" width="2.63" height="2.56"/></g><path class="cls-2" d="M32.16,28.19v1.38a.75.75,0,1,0,1.5,0V28.19a.75.75,0,1,0-1.5,0"/><g class="cls-32"><rect class="cls-2" x="32.16" y="27.44" width="1.5" height="2.89"/></g></g></g></svg>