<svg xmlns="http://www.w3.org/2000/svg" xmlns:xlink="http://www.w3.org/1999/xlink" viewBox="0 0 73.53 73.52"><defs><style>.cls-1{fill:none;}.cls-2{fill:#791f0b;}.cls-3{clip-path:url(#clip-path);}.cls-4{fill:url(#linear-gradient);}.cls-5{clip-path:url(#clip-path-2);}.cls-6{fill:url(#linear-gradient-2);}.cls-7{clip-path:url(#clip-path-3);}.cls-8{fill:url(#linear-gradient-3);}.cls-9{fill:url(#linear-gradient-4);}.cls-10{fill:url(#linear-gradient-5);}.cls-11{fill:url(#linear-gradient-6);}.cls-12{fill:url(#linear-gradient-7);}.cls-13{fill:url(#linear-gradient-8);}.cls-14{fill:url(#linear-gradient-9);}.cls-15{fill:url(#linear-gradient-10);}.cls-16{fill:url(#linear-gradient-11);}.cls-17{fill:url(#linear-gradient-12);}.cls-18{fill:url(#linear-gradient-13);}.cls-19{fill:url(#linear-gradient-14);}.cls-20{fill:url(#linear-gradient-15);}.cls-21{clip-path:url(#clip-path-16);}.cls-22{clip-path:url(#clip-path-17);}</style><clipPath id="clip-path"><path class="cls-1" d="M0,36.75A36.77,36.77,0,1,0,36.77,0,36.78,36.78,0,0,0,0,36.75"/></clipPath><linearGradient id="linear-gradient" x1="1940.09" y1="1975.27" x2="1941.09" y2="1975.27" gradientTransform="matrix(0, -73.52, -73.52, 0, 145263.21, 142713.42)" gradientUnits="userSpaceOnUse"><stop offset="0" stop-color="#5c692c"/><stop offset="0.24" stop-color="#829149"/><stop offset="0.48" stop-color="#a0b160"/><stop offset="0.68" stop-color="#b2c56e"/><stop offset="0.81" stop-color="#b9cc73"/><stop offset="1" stop-color="#b9cc73"/></linearGradient><clipPath id="clip-path-2"><path class="cls-1" d="M31.42,3.13c-14.18,2.65-24.14,13-22.25,23.2,1.59,8.54,11.08,14.2,22.5,14.2a36,36,0,0,0,6.62-.62c14.19-2.65,24.14-13,22.25-23.18C59,8.18,49.47,2.51,38,2.51a36.26,36.26,0,0,0-6.62.62"/></clipPath><linearGradient id="linear-gradient-2" x1="1943.64" y1="2007.21" x2="1944.64" y2="2007.21" gradientTransform="translate(76351.79 -73897.43) rotate(90) scale(38.02)" gradientUnits="userSpaceOnUse"><stop offset="0" stop-color="#e6f0c9"/><stop offset="0.26" stop-color="#ccd9a3"/><stop offset="0.57" stop-color="#b3c37e"/><stop offset="0.81" stop-color="#a4b567"/><stop offset="0.97" stop-color="#9eb05f"/><stop offset="1" stop-color="#9eb05f"/></linearGradient><clipPath id="clip-path-3"><path class="cls-1" d="M25.18,31.47a2.22,2.22,0,1,1,2.22,2.19,2.2,2.2,0,0,1-2.22-2.19M26,18.65l-.73,6.91a17.72,17.72,0,0,0-5.63,7.13H16.44a2.26,2.26,0,0,0-2.27,2.24v6.8A2.26,2.26,0,0,0,16.44,44h2.68A17.85,17.85,0,0,0,27,53.52v4.33a1,1,0,0,0,1,1h5a1,1,0,0,0,1-1V56.13a21.89,21.89,0,0,0,7.71,0v1.72a1,1,0,0,0,1,1h5a1,1,0,0,0,1-1V53.52a17.36,17.36,0,0,0,8.6-12.73h1.46a2.24,2.24,0,1,0,0-4.48H57.24a17.52,17.52,0,0,0-8.71-12.09,9.52,9.52,0,0,1-16.6-2.57l-4.76-3.56a1,1,0,0,0-.56-.22c-.34,0-.6.28-.65.77M41.52,20.1c0-.35-.37-.56-1.28-.82-1.34-.39-2.29-1-2.29-2.11s.78-1.83,2.18-2.09V14h1.39v1a5.17,5.17,0,0,1,1.87.36L43,16.85a4.81,4.81,0,0,0-1.86-.38c-.73,0-1,.23-1,.48s.42.49,1.46.82c1.55.47,2.12,1.11,2.12,2.14s-.81,1.9-2.29,2.15v1.15H40.06v-1a6.36,6.36,0,0,1-2.18-.48l.39-1.56a5.37,5.37,0,0,0,2.17.5c.63,0,1.07-.16,1.07-.52m-7.44-1.42a6.84,6.84,0,1,0,6.84-6.74,6.8,6.8,0,0,0-6.84,6.74"/></clipPath><linearGradient id="linear-gradient-3" x1="1939.4" y1="1994.67" x2="1940.4" y2="1994.67" gradientTransform="matrix(0, -46.92, -46.92, 0, 93624.13, 91052.33)" gradientUnits="userSpaceOnUse"><stop offset="0" stop-color="#d4e59e"/><stop offset="0.28" stop-color="#cddf96"/><stop offset="0.79" stop-color="#c5d88d"/><stop offset="1" stop-color="#c5d88d"/></linearGradient><linearGradient id="linear-gradient-4" x1="1940.09" y1="1975.27" x2="1941.09" y2="1975.27" gradientTransform="matrix(0, -73.52, -73.52, 0, 145263.21, 142713.42)" gradientUnits="userSpaceOnUse"><stop offset="0" stop-color="#67365d"/><stop offset="0.06" stop-color="#703e66"/><stop offset="0.38" stop-color="#996691"/><stop offset="0.63" stop-color="#b37fac"/><stop offset="0.78" stop-color="#bd88b6"/><stop offset="1" stop-color="#bd88b6"/></linearGradient><linearGradient id="linear-gradient-5" x1="1943.64" y1="2007.21" x2="1944.64" y2="2007.21" gradientTransform="translate(76351.79 -73897.43) rotate(90) scale(38.02)" gradientUnits="userSpaceOnUse"><stop offset="0" stop-color="#d9c6d4"/><stop offset="0.15" stop-color="#ccaec6"/><stop offset="0.34" stop-color="#bf95b8"/><stop offset="0.52" stop-color="#b785af"/><stop offset="0.66" stop-color="#b480ac"/><stop offset="1" stop-color="#a17198"/></linearGradient><linearGradient id="linear-gradient-6" x1="1939.4" y1="1994.67" x2="1940.4" y2="1994.67" gradientTransform="matrix(0, -46.92, -46.92, 0, 93624.13, 91052.33)" gradientUnits="userSpaceOnUse"><stop offset="0" stop-color="#c08fbc"/><stop offset="0.18" stop-color="#bd89b7"/><stop offset="0.68" stop-color="#b77eac"/><stop offset="1" stop-color="#b77eac"/></linearGradient><linearGradient id="linear-gradient-7" x1="1940.09" y1="1975.27" x2="1941.09" y2="1975.27" gradientTransform="matrix(0, -73.52, -73.52, 0, 145263.21, 142713.42)" gradientUnits="userSpaceOnUse"><stop offset="0" stop-color="#485b92"/><stop offset="0.16" stop-color="#5f75aa"/><stop offset="0.45" stop-color="#85a0d1"/><stop offset="0.68" stop-color="#9dbaea"/><stop offset="0.81" stop-color="#a6c4f3"/><stop offset="1" stop-color="#a6c4f3"/></linearGradient><linearGradient id="linear-gradient-8" x1="1943.64" y1="2007.21" x2="1944.64" y2="2007.21" gradientTransform="translate(76351.79 -73897.43) rotate(90) scale(38.02)" gradientUnits="userSpaceOnUse"><stop offset="0" stop-color="#d4e0f6"/><stop offset="0.04" stop-color="#d4e0f6"/><stop offset="0.04" stop-color="#d4e0f6"/><stop offset="0.36" stop-color="#afc4e9"/><stop offset="0.63" stop-color="#99b2e2"/><stop offset="0.79" stop-color="#91acdf"/><stop offset="1" stop-color="#849cd2"/></linearGradient><linearGradient id="linear-gradient-9" x1="1939.4" y1="1994.67" x2="1940.4" y2="1994.67" gradientTransform="matrix(0, -46.92, -46.92, 0, 93624.13, 91052.33)" gradientUnits="userSpaceOnUse"><stop offset="0" stop-color="#a0c0f2"/><stop offset="0.11" stop-color="#9fbef2"/><stop offset="0.68" stop-color="#9ab6f2"/><stop offset="1" stop-color="#9ab6f2"/></linearGradient><linearGradient id="linear-gradient-10" x1="1940.09" y1="1975.27" x2="1941.09" y2="1975.27" gradientTransform="matrix(0, -73.52, -73.52, 0, 145263.21, 142713.42)" gradientUnits="userSpaceOnUse"><stop offset="0" stop-color="#764c27"/><stop offset="0.12" stop-color="#885f31"/><stop offset="0.42" stop-color="#b08948"/><stop offset="0.65" stop-color="#c9a357"/><stop offset="0.79" stop-color="#d2ad5c"/><stop offset="1" stop-color="#d2ad5c"/></linearGradient><linearGradient id="linear-gradient-11" x1="1938.96" y1="1874.91" x2="1939.96" y2="1874.91" gradientTransform="translate(-71251.83 73762.51) rotate(-90) scale(38.02)" gradientUnits="userSpaceOnUse"><stop offset="0" stop-color="#b28a48"/><stop offset="0.31" stop-color="#c29e5b"/><stop offset="0.7" stop-color="#dabd78"/><stop offset="0.84" stop-color="#e0cb99"/><stop offset="1" stop-color="#e8ddc4"/></linearGradient><linearGradient id="linear-gradient-12" x1="1939.4" y1="1994.67" x2="1940.4" y2="1994.67" gradientTransform="matrix(0, -46.92, -46.92, 0, 93624.13, 91052.33)" gradientUnits="userSpaceOnUse"><stop offset="0" stop-color="#d6b56e"/><stop offset="0.01" stop-color="#d6b56e"/><stop offset="0.68" stop-color="#cbac68"/><stop offset="1" stop-color="#cbac68"/></linearGradient><linearGradient id="linear-gradient-13" x1="1940.09" y1="1975.27" x2="1941.09" y2="1975.27" gradientTransform="matrix(0, -73.52, -73.52, 0, 145263.21, 142713.42)" gradientUnits="userSpaceOnUse"><stop offset="0" stop-color="#626466"/><stop offset="0.33" stop-color="#999d9e"/><stop offset="0.66" stop-color="#cbd0d1"/><stop offset="0.82" stop-color="#dfe4e5"/><stop offset="1" stop-color="#dfe4e5"/></linearGradient><linearGradient id="linear-gradient-14" x1="1938.96" y1="1874.91" x2="1939.96" y2="1874.91" gradientTransform="translate(-71251.83 73762.51) rotate(-90) scale(38.02)" gradientUnits="userSpaceOnUse"><stop offset="0" stop-color="#aaaeae"/><stop offset="0.59" stop-color="#d9dbdd"/><stop offset="0.84" stop-color="#f6f7ff"/><stop offset="1" stop-color="#f6f7ff"/></linearGradient><linearGradient id="linear-gradient-15" x1="1939.4" y1="1994.67" x2="1940.4" y2="1994.67" gradientTransform="matrix(0, -46.92, -46.92, 0, 93624.13, 91052.33)" gradientUnits="userSpaceOnUse"><stop offset="0" stop-color="#d2d7dd"/><stop offset="0.27" stop-color="#c9ced4"/><stop offset="0.68" stop-color="#bfc5ca"/><stop offset="1" stop-color="#bfc5ca"/></linearGradient><clipPath id="clip-path-16"><path class="cls-2" d="M41.52,18.87c0-.35-.37-.56-1.28-.82-1.34-.39-2.29-1-2.29-2.11s.78-1.83,2.18-2.09v-1h1.39v1a5.18,5.18,0,0,1,1.87.36L43,15.62a4.81,4.81,0,0,0-1.86-.38c-.73,0-1,.23-1,.48s.42.5,1.46.82c1.55.47,2.12,1.11,2.12,2.14s-.81,1.9-2.29,2.15V22H40.06v-1a6.39,6.39,0,0,1-2.18-.48l.39-1.56a5.35,5.35,0,0,0,2.17.5c.63,0,1.07-.16,1.07-.52m-7.44-1.41a6.84,6.84,0,1,0,6.84-6.74,6.8,6.8,0,0,0-6.84,6.74"/></clipPath><clipPath id="clip-path-17"><path class="cls-2" d="M25.18,30.25a2.22,2.22,0,1,1,2.22,2.19,2.21,2.21,0,0,1-2.22-2.19M26,17.42l-.73,6.91a17.73,17.73,0,0,0-5.63,7.13H16.44a2.26,2.26,0,0,0-2.27,2.24v6.8a2.26,2.26,0,0,0,2.27,2.24h2.68A17.86,17.86,0,0,0,27,52.3v4.33a1,1,0,0,0,1,1h5a1,1,0,0,0,1-1V54.91a21.92,21.92,0,0,0,7.71,0v1.72a1,1,0,0,0,1,1h5a1,1,0,0,0,1-1V52.3a17.36,17.36,0,0,0,8.6-12.74h1.46a2.24,2.24,0,1,0,0-4.48H57.24A17.52,17.52,0,0,0,48.53,23a9.52,9.52,0,0,1-16.6-2.57l-4.76-3.56a1,1,0,0,0-.56-.22c-.34,0-.6.28-.65.77"/></clipPath></defs><title>icon_ahorro</title><g id="Capa_2" data-name="Capa 2"><g id="Capa_1-2" data-name="Capa 1"><g class="cls-3"><rect class="cls-4" width="73.53" height="73.52"/></g><g class="cls-5"><rect class="cls-6" x="7.28" y="2.51" width="55.15" height="38.02"/></g><g class="cls-7"><rect class="cls-8" x="14.17" y="11.94" width="46.92" height="46.92"/></g><g class="cls-3"><rect class="cls-9" width="73.53" height="73.52"/></g><g class="cls-5"><rect class="cls-10" x="7.28" y="2.51" width="55.15" height="38.02"/></g><g class="cls-7"><rect class="cls-11" x="14.17" y="11.94" width="46.92" height="46.92"/></g><g class="cls-3"><rect class="cls-12" width="73.53" height="73.52"/></g><g class="cls-5"><rect class="cls-13" x="7.28" y="2.51" width="55.15" height="38.02"/></g><g class="cls-7"><rect class="cls-14" x="14.17" y="11.94" width="46.92" height="46.92"/></g><g class="cls-3"><rect class="cls-15" width="73.53" height="73.52"/></g><g class="cls-5"><rect class="cls-16" x="7.28" y="2.51" width="55.15" height="38.02"/></g><g class="cls-7"><rect class="cls-17" x="14.17" y="11.94" width="46.92" height="46.92"/></g><g class="cls-3"><rect class="cls-18" width="73.53" height="73.52"/></g><g class="cls-5"><rect class="cls-19" x="7.28" y="2.51" width="55.15" height="38.02"/></g><g class="cls-7"><rect class="cls-20" x="14.17" y="11.94" width="46.92" height="46.92"/></g><path class="cls-2" d="M41.52,18.87c0-.35-.37-.56-1.28-.82-1.34-.39-2.29-1-2.29-2.11s.78-1.83,2.18-2.09v-1h1.39v1a5.18,5.18,0,0,1,1.87.36L43,15.62a4.81,4.81,0,0,0-1.86-.38c-.73,0-1,.23-1,.48s.42.5,1.46.82c1.55.47,2.12,1.11,2.12,2.14s-.81,1.9-2.29,2.15V22H40.06v-1a6.39,6.39,0,0,1-2.18-.48l.39-1.56a5.35,5.35,0,0,0,2.17.5c.63,0,1.07-.16,1.07-.52m-7.44-1.41a6.84,6.84,0,1,0,6.84-6.74,6.8,6.8,0,0,0-6.84,6.74"/><g class="cls-21"><rect class="cls-2" x="34.08" y="10.71" width="13.67" height="13.49"/></g><path class="cls-2" d="M25.18,30.25a2.22,2.22,0,1,1,2.22,2.19,2.21,2.21,0,0,1-2.22-2.19M26,17.42l-.73,6.91a17.73,17.73,0,0,0-5.63,7.13H16.44a2.26,2.26,0,0,0-2.27,2.24v6.8a2.26,2.26,0,0,0,2.27,2.24h2.68A17.86,17.86,0,0,0,27,52.3v4.33a1,1,0,0,0,1,1h5a1,1,0,0,0,1-1V54.91a21.92,21.92,0,0,0,7.71,0v1.72a1,1,0,0,0,1,1h5a1,1,0,0,0,1-1V52.3a17.36,17.36,0,0,0,8.6-12.74h1.46a2.24,2.24,0,1,0,0-4.48H57.24A17.52,17.52,0,0,0,48.53,23a9.52,9.52,0,0,1-16.6-2.57l-4.76-3.56a1,1,0,0,0-.56-.22c-.34,0-.6.28-.65.77"/><g class="cls-22"><rect class="cls-2" x="14.17" y="16.64" width="46.92" height="40.99"/></g></g></g></svg>