<svg xmlns="http://www.w3.org/2000/svg" xmlns:xlink="http://www.w3.org/1999/xlink" viewBox="0 0 72.93 72.93"><defs><style>.cls-1{fill:none;}.cls-2{fill:#791f0b;}.cls-3{clip-path:url(#clip-path);}.cls-4{fill:url(#linear-gradient);}.cls-5{clip-path:url(#clip-path-2);}.cls-6{fill:url(#linear-gradient-2);}.cls-7{clip-path:url(#clip-path-3);}.cls-8{fill:url(#linear-gradient-3);}.cls-9{fill:url(#linear-gradient-4);}.cls-10{fill:url(#linear-gradient-5);}.cls-11{fill:url(#linear-gradient-6);}.cls-12{fill:url(#linear-gradient-7);}.cls-13{fill:url(#linear-gradient-8);}.cls-14{fill:url(#linear-gradient-9);}.cls-15{fill:url(#linear-gradient-10);}.cls-16{clip-path:url(#clip-path-11);}.cls-17{fill:url(#linear-gradient-11);}.cls-18{fill:url(#linear-gradient-12);}.cls-19{fill:url(#linear-gradient-13);}.cls-20{fill:url(#linear-gradient-14);}.cls-21{fill:url(#linear-gradient-15);}.cls-22{clip-path:url(#clip-path-16);}.cls-23{clip-path:url(#clip-path-17);}.cls-24{clip-path:url(#clip-path-18);}.cls-25{clip-path:url(#clip-path-19);}.cls-26{clip-path:url(#clip-path-20);}.cls-27{clip-path:url(#clip-path-21);}.cls-28{clip-path:url(#clip-path-22);}</style><clipPath id="clip-path"><path class="cls-1" d="M0,36.45A36.47,36.47,0,1,0,36.47,0,36.48,36.48,0,0,0,0,36.45"/></clipPath><linearGradient id="linear-gradient" x1="1708.55" y1="1975.55" x2="1709.55" y2="1975.55" gradientTransform="matrix(0, -72.93, -72.93, 0, 144105.61, 124670.73)" gradientUnits="userSpaceOnUse"><stop offset="0" stop-color="#5c692c"/><stop offset="0.24" stop-color="#829149"/><stop offset="0.48" stop-color="#a0b160"/><stop offset="0.68" stop-color="#b2c56e"/><stop offset="0.81" stop-color="#b9cc73"/><stop offset="1" stop-color="#b9cc73"/></linearGradient><clipPath id="clip-path-2"><path class="cls-1" d="M31.17,3.1C17.1,5.73,7.22,16,9.1,26.11c1.58,8.47,11,14.08,22.32,14.08A35.73,35.73,0,0,0,38,39.58c14.07-2.63,23.94-12.93,22.07-23-1.58-8.48-11-14.1-22.32-14.1a35.94,35.94,0,0,0-6.57.62"/></clipPath><linearGradient id="linear-gradient-2" x1="1712.1" y1="2007.74" x2="1713.1" y2="2007.74" gradientTransform="translate(75751.65 -64564.92) rotate(90) scale(37.71)" gradientUnits="userSpaceOnUse"><stop offset="0" stop-color="#e6f0c9"/><stop offset="0.26" stop-color="#ccd9a3"/><stop offset="0.57" stop-color="#b3c37e"/><stop offset="0.81" stop-color="#a4b567"/><stop offset="0.97" stop-color="#9eb05f"/><stop offset="1" stop-color="#9eb05f"/></linearGradient><clipPath id="clip-path-3"><path class="cls-1" d="M42.27,51.92a1,1,0,0,0,0,1.92h9.21a1,1,0,0,0,0-1.92Zm-8.75-.54a4.66,4.66,0,0,1-1.5.3l1.76,2.43c.27.34.59.58,1,.43s.49-.45.43-1l-.35-3a4.61,4.61,0,0,1-1.3.79m6.66-5.91a1,1,0,0,0,0,1.93h11.3a1,1,0,0,0,0-1.93ZM46.11,39a1,1,0,0,0,0,1.92h5.37a1,1,0,0,0,0-1.92ZM33.23,32.16l.93,2.4H54.4A1.64,1.64,0,0,1,56,36.18V56.77a1.63,1.63,0,0,1-1.62,1.62H31.61a1.2,1.2,0,0,0,0,2.4H54.4a4,4,0,0,0,4-4V36.18a4,4,0,0,0-4-4ZM22.89,34.67l5.33,13.71a3.82,3.82,0,0,0,2,2.12,3.87,3.87,0,0,0,3,.07,4,4,0,0,0,2.21-2.13A3.26,3.26,0,0,0,35.54,46L30.07,31.89ZM23,27.33,18.9,16.71a1.07,1.07,0,0,1,2-.77L25,26.55a1.05,1.05,0,0,1-.63,1.34A1.12,1.12,0,0,1,24,28a1,1,0,0,1-1-.64m-4.7-15a4.28,4.28,0,0,0-2.44,5.54l6,15.35,8-3.1-6-15.35a4.28,4.28,0,0,0-5.54-2.44"/></clipPath><linearGradient id="linear-gradient-3" x1="1707.95" y1="1992.61" x2="1708.95" y2="1992.61" gradientTransform="matrix(0, -48.8, -48.8, 0, 97267.33, 83401.06)" gradientUnits="userSpaceOnUse"><stop offset="0" stop-color="#d4e59e"/><stop offset="0.28" stop-color="#cddf96"/><stop offset="0.79" stop-color="#c5d88d"/><stop offset="1" stop-color="#c5d88d"/></linearGradient><linearGradient id="linear-gradient-4" x1="1708.55" y1="1975.55" x2="1709.55" y2="1975.55" gradientTransform="matrix(0, -72.93, -72.93, 0, 144105.61, 124670.73)" gradientUnits="userSpaceOnUse"><stop offset="0" stop-color="#67365d"/><stop offset="0.06" stop-color="#703e66"/><stop offset="0.38" stop-color="#996691"/><stop offset="0.63" stop-color="#b37fac"/><stop offset="0.78" stop-color="#bd88b6"/><stop offset="1" stop-color="#bd88b6"/></linearGradient><linearGradient id="linear-gradient-5" x1="1712.1" y1="2007.74" x2="1713.1" y2="2007.74" gradientTransform="translate(75751.65 -64564.92) rotate(90) scale(37.71)" gradientUnits="userSpaceOnUse"><stop offset="0" stop-color="#d9c6d4"/><stop offset="0.15" stop-color="#ccaec6"/><stop offset="0.34" stop-color="#bf95b8"/><stop offset="0.52" stop-color="#b785af"/><stop offset="0.66" stop-color="#b480ac"/><stop offset="1" stop-color="#a17198"/></linearGradient><linearGradient id="linear-gradient-6" x1="1707.95" y1="1992.61" x2="1708.95" y2="1992.61" gradientTransform="matrix(0, -48.8, -48.8, 0, 97267.33, 83401.06)" gradientUnits="userSpaceOnUse"><stop offset="0" stop-color="#c08fbc"/><stop offset="0.18" stop-color="#bd89b7"/><stop offset="0.68" stop-color="#b77eac"/><stop offset="1" stop-color="#b77eac"/></linearGradient><linearGradient id="linear-gradient-7" x1="1708.55" y1="1975.55" x2="1709.55" y2="1975.55" gradientTransform="matrix(0, -72.93, -72.93, 0, 144105.61, 124670.73)" gradientUnits="userSpaceOnUse"><stop offset="0" stop-color="#485b92"/><stop offset="0.16" stop-color="#5f75aa"/><stop offset="0.45" stop-color="#85a0d1"/><stop offset="0.68" stop-color="#9dbaea"/><stop offset="0.81" stop-color="#a6c4f3"/><stop offset="1" stop-color="#a6c4f3"/></linearGradient><linearGradient id="linear-gradient-8" x1="1712.1" y1="2007.74" x2="1713.1" y2="2007.74" gradientTransform="translate(75751.65 -64564.92) rotate(90) scale(37.71)" gradientUnits="userSpaceOnUse"><stop offset="0" stop-color="#d4e0f6"/><stop offset="0.04" stop-color="#d4e0f6"/><stop offset="0.04" stop-color="#d4e0f6"/><stop offset="0.36" stop-color="#afc4e9"/><stop offset="0.63" stop-color="#99b2e2"/><stop offset="0.79" stop-color="#91acdf"/><stop offset="1" stop-color="#849cd2"/></linearGradient><linearGradient id="linear-gradient-9" x1="1707.95" y1="1992.61" x2="1708.95" y2="1992.61" gradientTransform="matrix(0, -48.8, -48.8, 0, 97267.33, 83401.06)" gradientUnits="userSpaceOnUse"><stop offset="0" stop-color="#a0c0f2"/><stop offset="0.11" stop-color="#9fbef2"/><stop offset="0.68" stop-color="#9ab6f2"/><stop offset="1" stop-color="#9ab6f2"/></linearGradient><linearGradient id="linear-gradient-10" x1="1708.55" y1="1975.55" x2="1709.55" y2="1975.55" gradientTransform="matrix(0, -72.93, -72.93, 0, 144105.61, 124670.73)" gradientUnits="userSpaceOnUse"><stop offset="0" stop-color="#764c27"/><stop offset="0.12" stop-color="#885f31"/><stop offset="0.42" stop-color="#b08948"/><stop offset="0.65" stop-color="#c9a357"/><stop offset="0.79" stop-color="#d2ad5c"/><stop offset="1" stop-color="#d2ad5c"/></linearGradient><clipPath id="clip-path-11"><path class="cls-1" d="M30.58,3.1C16.52,5.73,6.64,16,8.52,26.11c1.58,8.47,11,14.08,22.32,14.08a35.73,35.73,0,0,0,6.57-.62c14.07-2.63,23.94-12.93,22.06-23-1.58-8.48-11-14.1-22.32-14.1a35.93,35.93,0,0,0-6.57.62"/></clipPath><linearGradient id="linear-gradient-11" x1="1707.41" y1="1874.36" x2="1708.41" y2="1874.36" gradientTransform="translate(-70652.79 64430.84) rotate(-90) scale(37.71)" gradientUnits="userSpaceOnUse"><stop offset="0" stop-color="#b28a48"/><stop offset="0.31" stop-color="#c29e5b"/><stop offset="0.7" stop-color="#dabd78"/><stop offset="0.84" stop-color="#e0cb99"/><stop offset="1" stop-color="#e8ddc4"/></linearGradient><linearGradient id="linear-gradient-12" x1="1707.95" y1="1992.61" x2="1708.95" y2="1992.61" gradientTransform="matrix(0, -48.8, -48.8, 0, 97267.33, 83401.06)" gradientUnits="userSpaceOnUse"><stop offset="0" stop-color="#d6b56e"/><stop offset="0.01" stop-color="#d6b56e"/><stop offset="0.68" stop-color="#cbac68"/><stop offset="1" stop-color="#cbac68"/></linearGradient><linearGradient id="linear-gradient-13" x1="1708.55" y1="1975.55" x2="1709.55" y2="1975.55" gradientTransform="matrix(0, -72.93, -72.93, 0, 144105.61, 124670.73)" gradientUnits="userSpaceOnUse"><stop offset="0" stop-color="#626466"/><stop offset="0.33" stop-color="#999d9e"/><stop offset="0.66" stop-color="#cbd0d1"/><stop offset="0.82" stop-color="#dfe4e5"/><stop offset="1" stop-color="#dfe4e5"/></linearGradient><linearGradient id="linear-gradient-14" x1="1707.41" y1="1874.36" x2="1708.41" y2="1874.36" gradientTransform="translate(-70652.2 64430.84) rotate(-90) scale(37.71)" gradientUnits="userSpaceOnUse"><stop offset="0" stop-color="#aaaeae"/><stop offset="0.59" stop-color="#d9dbdd"/><stop offset="0.84" stop-color="#f6f7ff"/><stop offset="1" stop-color="#f6f7ff"/></linearGradient><linearGradient id="linear-gradient-15" x1="1707.95" y1="1992.61" x2="1708.95" y2="1992.61" gradientTransform="matrix(0, -48.8, -48.8, 0, 97267.33, 83401.06)" gradientUnits="userSpaceOnUse"><stop offset="0" stop-color="#d2d7dd"/><stop offset="0.27" stop-color="#c9ced4"/><stop offset="0.68" stop-color="#bfc5ca"/><stop offset="1" stop-color="#bfc5ca"/></linearGradient><clipPath id="clip-path-16"><path class="cls-2" d="M33.51,50.21a4.69,4.69,0,0,1-1.5.3l1.76,2.43c.27.34.59.58,1,.43s.49-.45.43-1l-.35-3a4.6,4.6,0,0,1-1.3.79"/></clipPath><clipPath id="clip-path-17"><path class="cls-2" d="M22.89,33.5l5.33,13.71a3.81,3.81,0,0,0,2,2.12,3.86,3.86,0,0,0,3,.07,4,4,0,0,0,2.21-2.12,3.26,3.26,0,0,0,.13-2.48L30.07,30.72Z"/></clipPath><clipPath id="clip-path-18"><path class="cls-2" d="M23,26.16,18.9,15.54a1.07,1.07,0,0,1,2-.77L25,25.38a1.05,1.05,0,0,1-.63,1.34,1.12,1.12,0,0,1-.39.07,1,1,0,0,1-1-.64m-4.7-15a4.28,4.28,0,0,0-2.44,5.54l6,15.35,8-3.1-6-15.35a4.28,4.28,0,0,0-5.54-2.44"/></clipPath><clipPath id="clip-path-19"><path class="cls-2" d="M46.11,37.87a1,1,0,0,0,0,1.93h5.37a1,1,0,0,0,0-1.93Z"/></clipPath><clipPath id="clip-path-20"><path class="cls-2" d="M42.27,50.75a1,1,0,0,0,0,1.92h9.21a1,1,0,0,0,0-1.92Z"/></clipPath><clipPath id="clip-path-21"><path class="cls-2" d="M40.18,44.31a1,1,0,0,0,0,1.93h11.3a1,1,0,0,0,0-1.93Z"/></clipPath><clipPath id="clip-path-22"><path class="cls-2" d="M33.23,31l.93,2.4H54.4A1.64,1.64,0,0,1,56,35V55.6a1.63,1.63,0,0,1-1.62,1.62H31.61a1.2,1.2,0,0,0,0,2.4H54.4a4,4,0,0,0,4-4V35a4,4,0,0,0-4-4Z"/></clipPath></defs><title>icon_creditos</title><g id="Capa_2" data-name="Capa 2"><g id="Capa_1-2" data-name="Capa 1"><g class="cls-3"><rect class="cls-4" width="72.93" height="72.93"/></g><g class="cls-5"><rect class="cls-6" x="7.22" y="2.48" width="54.71" height="37.71"/></g><g class="cls-7"><rect class="cls-8" x="15.03" y="12" width="43.39" height="48.8"/></g><g class="cls-3"><rect class="cls-9" width="72.93" height="72.93"/></g><g class="cls-5"><rect class="cls-10" x="7.22" y="2.48" width="54.71" height="37.71"/></g><g class="cls-7"><rect class="cls-11" x="15.03" y="12" width="43.39" height="48.8"/></g><g class="cls-3"><rect class="cls-12" width="72.93" height="72.93"/></g><g class="cls-5"><rect class="cls-13" x="7.22" y="2.48" width="54.71" height="37.71"/></g><g class="cls-7"><rect class="cls-14" x="15.03" y="12" width="43.39" height="48.8"/></g><g class="cls-3"><rect class="cls-15" width="72.93" height="72.93"/></g><g class="cls-16"><rect class="cls-17" x="6.64" y="2.49" width="54.71" height="37.71"/></g><g class="cls-7"><rect class="cls-18" x="15.03" y="12" width="43.39" height="48.8"/></g><g class="cls-3"><rect class="cls-19" width="72.93" height="72.93"/></g><g class="cls-5"><rect class="cls-20" x="7.22" y="2.49" width="54.71" height="37.71"/></g><g class="cls-7"><rect class="cls-21" x="15.03" y="12" width="43.39" height="48.8"/></g><path class="cls-2" d="M33.51,50.21a4.69,4.69,0,0,1-1.5.3l1.76,2.43c.27.34.59.58,1,.43s.49-.45.43-1l-.35-3a4.6,4.6,0,0,1-1.3.79"/><g class="cls-22"><rect class="cls-2" x="32.01" y="49.42" width="3.22" height="4.11"/></g><path class="cls-2" d="M22.89,33.5l5.33,13.71a3.81,3.81,0,0,0,2,2.12,3.86,3.86,0,0,0,3,.07,4,4,0,0,0,2.21-2.12,3.26,3.26,0,0,0,.13-2.48L30.07,30.72Z"/><g class="cls-23"><rect class="cls-2" x="22.89" y="30.72" width="12.94" height="19.07"/></g><path class="cls-2" d="M23,26.16,18.9,15.54a1.07,1.07,0,0,1,2-.77L25,25.38a1.05,1.05,0,0,1-.63,1.34,1.12,1.12,0,0,1-.39.07,1,1,0,0,1-1-.64m-4.7-15a4.28,4.28,0,0,0-2.44,5.54l6,15.35,8-3.1-6-15.35a4.28,4.28,0,0,0-5.54-2.44"/><g class="cls-24"><rect class="cls-2" x="15.03" y="10.83" width="14.8" height="21.18"/></g><path class="cls-2" d="M46.11,37.87a1,1,0,0,0,0,1.93h5.37a1,1,0,0,0,0-1.93Z"/><g class="cls-25"><rect class="cls-2" x="45.15" y="37.87" width="7.29" height="1.93"/></g><path class="cls-2" d="M42.27,50.75a1,1,0,0,0,0,1.92h9.21a1,1,0,0,0,0-1.92Z"/><g class="cls-26"><rect class="cls-2" x="41.31" y="50.75" width="11.13" height="1.92"/></g><path class="cls-2" d="M40.18,44.31a1,1,0,0,0,0,1.93h11.3a1,1,0,0,0,0-1.93Z"/><g class="cls-27"><rect class="cls-2" x="39.22" y="44.31" width="13.22" height="1.93"/></g><path class="cls-2" d="M33.23,31l.93,2.4H54.4A1.64,1.64,0,0,1,56,35V55.6a1.63,1.63,0,0,1-1.62,1.62H31.61a1.2,1.2,0,0,0,0,2.4H54.4a4,4,0,0,0,4-4V35a4,4,0,0,0-4-4Z"/><g class="cls-28"><rect class="cls-2" x="30.41" y="30.99" width="28.01" height="28.64"/></g></g></g></svg>