<svg xmlns="http://www.w3.org/2000/svg" xmlns:xlink="http://www.w3.org/1999/xlink" viewBox="0 0 72.5 72.49"><defs><style>.cls-1{fill:none;}.cls-2{fill:#791f0b;}.cls-3{clip-path:url(#clip-path);}.cls-4{fill:url(#linear-gradient);}.cls-5{clip-path:url(#clip-path-2);}.cls-6{fill:url(#linear-gradient-2);}.cls-7{clip-path:url(#clip-path-3);}.cls-8{fill:url(#linear-gradient-3);}.cls-9{fill:url(#linear-gradient-4);}.cls-10{fill:url(#linear-gradient-5);}.cls-11{fill:url(#linear-gradient-6);}.cls-12{fill:url(#linear-gradient-7);}.cls-13{fill:url(#linear-gradient-8);}.cls-14{fill:url(#linear-gradient-9);}.cls-15{fill:url(#linear-gradient-10);}.cls-16{clip-path:url(#clip-path-11);}.cls-17{fill:url(#linear-gradient-11);}.cls-18{fill:url(#linear-gradient-12);}.cls-19{fill:url(#linear-gradient-13);}.cls-20{fill:url(#linear-gradient-14);}.cls-21{clip-path:url(#clip-path-15);}.cls-22{fill:url(#linear-gradient-15);}.cls-23{clip-path:url(#clip-path-16);}.cls-24{clip-path:url(#clip-path-17);}.cls-25{clip-path:url(#clip-path-18);}.cls-26{clip-path:url(#clip-path-19);}</style><clipPath id="clip-path"><path class="cls-1" d="M0,36.24A36.25,36.25,0,1,0,36.25,0,36.26,36.26,0,0,0,0,36.24"/></clipPath><linearGradient id="linear-gradient" x1="-112.51" y1="2029.02" x2="-111.51" y2="2029.02" gradientTransform="matrix(0, -72.49, -72.49, 0, 147129.76, -8084.05)" gradientUnits="userSpaceOnUse"><stop offset="0" stop-color="#5c692c"/><stop offset="0.26" stop-color="#85954a"/><stop offset="0.49" stop-color="#a4b561"/><stop offset="0.68" stop-color="#b6c96e"/><stop offset="0.81" stop-color="#bdd073"/><stop offset="1" stop-color="#bdd073"/></linearGradient><clipPath id="clip-path-2"><path class="cls-1" d="M31,3.09C17,5.7,7.18,15.95,9,26,10.62,34.38,20,40,31.23,40a35.6,35.6,0,0,0,6.53-.61c14-2.61,23.8-12.85,21.93-22.86-1.57-8.43-10.92-14-22.19-14A35.76,35.76,0,0,0,31,3.09"/></clipPath><linearGradient id="linear-gradient-2" x1="-112.51" y1="2029.03" x2="-111.51" y2="2029.03" gradientTransform="translate(76100.16 4220.32) rotate(90) scale(37.49)" gradientUnits="userSpaceOnUse"><stop offset="0" stop-color="#eaf4cd"/><stop offset="0.28" stop-color="#cfdca3"/><stop offset="0.58" stop-color="#b6c67e"/><stop offset="0.82" stop-color="#a7b967"/><stop offset="0.97" stop-color="#a2b45f"/><stop offset="1" stop-color="#a2b45f"/></linearGradient><clipPath id="clip-path-3"><path class="cls-1" d="M28.13,34.87a1.37,1.37,0,0,0-1.37,1.37V46.42a1.38,1.38,0,0,0,1.37,1.37h2.62a1.38,1.38,0,0,0,1.37-1.37V36.24a1.38,1.38,0,0,0-1.37-1.37Zm6.68-4a1.37,1.37,0,0,0-1.37,1.37V46.42a1.38,1.38,0,0,0,1.37,1.37h2.62a1.38,1.38,0,0,0,1.37-1.37V32.29a1.37,1.37,0,0,0-1.37-1.37Zm6.86-5.61a1.38,1.38,0,0,0-1.37,1.37V46.42a1.37,1.37,0,0,0,1.37,1.37h2.62a1.38,1.38,0,0,0,1.37-1.37V26.68a1.38,1.38,0,0,0-1.37-1.37ZM31,22.78l1.66,1-.15.25-.46.75A5.4,5.4,0,0,1,28,27.35a5.47,5.47,0,0,1-1,0l.24.15a7,7,0,0,0,4.36,1.17A5.92,5.92,0,0,0,35.78,26l.16-.21,1.68,1-.83-5.73ZM24.78,55.33a1,1,0,0,1,.95-.95h4.06a.95.95,0,0,1,0,1.9H25.73a1,1,0,0,1-.95-.95m16.86,0a1,1,0,0,1,.95-.95h4.05a.95.95,0,0,1,0,1.9H42.59a1,1,0,0,1-.95-.95m-8.17,0a2.79,2.79,0,1,1,2.79,2.79,2.79,2.79,0,0,1-2.79-2.79m-8.87-7V19.57a1.28,1.28,0,0,1,1.21-1.34h20.9a1.28,1.28,0,0,1,1.21,1.34V48.35a1.28,1.28,0,0,1-1.21,1.34H25.81a1.28,1.28,0,0,1-1.21-1.34m.87-33.59a4.19,4.19,0,0,0-4,4.39V56.3a4.19,4.19,0,0,0,4,4.39H47.05a4.19,4.19,0,0,0,4-4.39V19.14a4.19,4.19,0,0,0-4-4.39Z"/></clipPath><linearGradient id="linear-gradient-3" x1="-112.51" y1="2029.03" x2="-111.51" y2="2029.03" gradientTransform="matrix(0, -45.93, -45.93, 0, 93238.6, -5107.34)" gradientUnits="userSpaceOnUse"><stop offset="0" stop-color="#d8e9a2"/><stop offset="0.28" stop-color="#d1e39a"/><stop offset="0.79" stop-color="#c9dc91"/><stop offset="1" stop-color="#c9dc91"/></linearGradient><linearGradient id="linear-gradient-4" x1="-112.51" y1="2029.02" x2="-111.51" y2="2029.02" gradientTransform="matrix(0, -72.49, -72.49, 0, 147129.76, -8084.05)" gradientUnits="userSpaceOnUse"><stop offset="0" stop-color="#67365d"/><stop offset="0.08" stop-color="#74426a"/><stop offset="0.39" stop-color="#9d6a95"/><stop offset="0.63" stop-color="#b783b0"/><stop offset="0.78" stop-color="#c18cba"/><stop offset="1" stop-color="#c18cba"/></linearGradient><linearGradient id="linear-gradient-5" x1="-112.51" y1="2029.03" x2="-111.51" y2="2029.03" gradientTransform="translate(76100.16 4220.32) rotate(90) scale(37.49)" gradientUnits="userSpaceOnUse"><stop offset="0" stop-color="#ddcad8"/><stop offset="0.17" stop-color="#cfaec9"/><stop offset="0.35" stop-color="#c295bb"/><stop offset="0.52" stop-color="#bb85b3"/><stop offset="0.66" stop-color="#b880b0"/><stop offset="1" stop-color="#a5719c"/></linearGradient><linearGradient id="linear-gradient-6" x1="-112.51" y1="2029.03" x2="-111.51" y2="2029.03" gradientTransform="matrix(0, -45.93, -45.93, 0, 93238.6, -5107.34)" gradientUnits="userSpaceOnUse"><stop offset="0" stop-color="#c493c0"/><stop offset="0.26" stop-color="#c089b9"/><stop offset="0.68" stop-color="#bb7eb0"/><stop offset="1" stop-color="#bb7eb0"/></linearGradient><linearGradient id="linear-gradient-7" x1="-112.51" y1="2029.02" x2="-111.51" y2="2029.02" gradientTransform="matrix(0, -72.49, -72.49, 0, 147129.76, -8084.05)" gradientUnits="userSpaceOnUse"><stop offset="0" stop-color="#485b96"/><stop offset="0.17" stop-color="#6379b1"/><stop offset="0.46" stop-color="#89a4d7"/><stop offset="0.68" stop-color="#a1beee"/><stop offset="0.81" stop-color="#aac8f7"/><stop offset="1" stop-color="#aac8f7"/></linearGradient><linearGradient id="linear-gradient-8" x1="-112.51" y1="2029.03" x2="-111.51" y2="2029.03" gradientTransform="translate(76100.16 4220.32) rotate(90) scale(37.49)" gradientUnits="userSpaceOnUse"><stop offset="0" stop-color="#d8e4fa"/><stop offset="0.04" stop-color="#d8e4fa"/><stop offset="0.04" stop-color="#d8e4fa"/><stop offset="0.36" stop-color="#b3c8ed"/><stop offset="0.63" stop-color="#9db6e6"/><stop offset="0.79" stop-color="#95b0e3"/><stop offset="1" stop-color="#88a0d6"/></linearGradient><linearGradient id="linear-gradient-9" x1="-112.51" y1="2029.03" x2="-111.51" y2="2029.03" gradientTransform="matrix(0, -45.93, -45.93, 0, 93238.6, -5107.34)" gradientUnits="userSpaceOnUse"><stop offset="0" stop-color="#a4c4f6"/><stop offset="0.11" stop-color="#a3c2f6"/><stop offset="0.68" stop-color="#9ebaf6"/><stop offset="1" stop-color="#9ebaf6"/></linearGradient><linearGradient id="linear-gradient-10" x1="-112.51" y1="2029.02" x2="-111.51" y2="2029.02" gradientTransform="matrix(0, -72.49, -72.49, 0, 147129.76, -8084.05)" gradientUnits="userSpaceOnUse"><stop offset="0" stop-color="#764c27"/><stop offset="0.14" stop-color="#8c6333"/><stop offset="0.43" stop-color="#b48d49"/><stop offset="0.66" stop-color="#cda757"/><stop offset="0.79" stop-color="#d6b15c"/><stop offset="1" stop-color="#d6b15c"/></linearGradient><clipPath id="clip-path-11"><path class="cls-1" d="M30.4,3.09C16.41,5.7,6.6,15.95,8.46,26,10,34.38,19.39,40,30.65,40a35.6,35.6,0,0,0,6.53-.61c14-2.61,23.8-12.85,21.93-22.86-1.57-8.43-10.92-14-22.19-14a35.76,35.76,0,0,0-6.53.61"/></clipPath><linearGradient id="linear-gradient-11" x1="-112.51" y1="2029.03" x2="-111.51" y2="2029.03" gradientTransform="translate(-76031.99 -4177.88) rotate(-90) scale(37.49)" gradientUnits="userSpaceOnUse"><stop offset="0" stop-color="#b68e48"/><stop offset="0.31" stop-color="#c6a25b"/><stop offset="0.7" stop-color="#dec178"/><stop offset="0.83" stop-color="#e4ce99"/><stop offset="1" stop-color="#ece1c8"/></linearGradient><linearGradient id="linear-gradient-12" x1="-112.51" y1="2029.03" x2="-111.51" y2="2029.03" gradientTransform="matrix(0, -45.93, -45.93, 0, 93238.6, -5107.34)" gradientUnits="userSpaceOnUse"><stop offset="0" stop-color="#dab96e"/><stop offset="0.01" stop-color="#dab96e"/><stop offset="0.68" stop-color="#cfb068"/><stop offset="1" stop-color="#cfb068"/></linearGradient><linearGradient id="linear-gradient-13" x1="-112.51" y1="2029.02" x2="-111.51" y2="2029.02" gradientTransform="matrix(0, -72.49, -72.49, 0, 147129.76, -8084.05)" gradientUnits="userSpaceOnUse"><stop offset="0" stop-color="#626466"/><stop offset="0.34" stop-color="#9da0a2"/><stop offset="0.67" stop-color="#cfd4d5"/><stop offset="0.82" stop-color="#e3e8e9"/><stop offset="1" stop-color="#e3e8e9"/></linearGradient><linearGradient id="linear-gradient-14" x1="-112.51" y1="2029.03" x2="-111.51" y2="2029.03" gradientTransform="translate(-76031.43 -4177.88) rotate(-90) scale(37.49)" gradientUnits="userSpaceOnUse"><stop offset="0" stop-color="#aeb2b2"/><stop offset="0.59" stop-color="#dddfe1"/><stop offset="0.84" stop-color="#fafbff"/><stop offset="1" stop-color="#fafbff"/></linearGradient><clipPath id="clip-path-15"><path class="cls-1" d="M21.24,38.16A2.55,2.55,0,0,0,18.7,40.7V59.55a2.55,2.55,0,0,0,2.54,2.54h4.85a2.55,2.55,0,0,0,2.54-2.54V40.7a2.55,2.55,0,0,0-2.54-2.54Zm12.38-7.32a2.55,2.55,0,0,0-2.54,2.54V59.55a2.55,2.55,0,0,0,2.54,2.54h4.85A2.55,2.55,0,0,0,41,59.55V33.38a2.55,2.55,0,0,0-2.54-2.54Zm12.71-10.4A2.55,2.55,0,0,0,43.79,23V59.55a2.55,2.55,0,0,0,2.54,2.54h4.84a2.55,2.55,0,0,0,2.54-2.54V23a2.55,2.55,0,0,0-2.54-2.54Zm-19.7-4.67,3.07,1.87-.28.46-.85,1.38A10,10,0,0,1,21,24.23a10.12,10.12,0,0,1-1.89,0l.44.27a13.06,13.06,0,0,0,8.08,2.16c3-.31,5.62-2,7.78-5l.29-.4,3.1,1.9L37.28,12.63Z"/></clipPath><linearGradient id="linear-gradient-15" x1="-112.52" y1="2029.02" x2="-111.52" y2="2029.02" gradientTransform="matrix(0, -49.46, -49.46, 0, 100392.35, -5502.99)" gradientUnits="userSpaceOnUse"><stop offset="0" stop-color="#d6dbe1"/><stop offset="0.27" stop-color="#cdd2d8"/><stop offset="0.68" stop-color="#c3c9ce"/><stop offset="1" stop-color="#c3c9ce"/></linearGradient><clipPath id="clip-path-16"><rect class="cls-2" x="31.08" y="28.6" width="9.93" height="31.24" rx="2.54" ry="2.54"/></clipPath><clipPath id="clip-path-17"><rect class="cls-2" x="43.79" y="18.2" width="9.93" height="41.64" rx="2.54" ry="2.54"/></clipPath><clipPath id="clip-path-18"><rect class="cls-2" x="18.7" y="35.92" width="9.93" height="23.93" rx="2.54" ry="2.54"/></clipPath><clipPath id="clip-path-19"><path class="cls-2" d="M26.63,13.53l3.07,1.87-.28.46-.85,1.38A10.11,10.11,0,0,1,19.12,22l.44.27a13.05,13.05,0,0,0,8.08,2.16c3-.31,5.62-2,7.78-5l.29-.4,3.1,1.9L37.28,10.39Z"/></clipPath></defs><title>Recurso 3</title><g id="Capa_2" data-name="Capa 2"><g id="Capa_1-2" data-name="Capa 1"><g class="cls-3"><rect class="cls-4" width="72.5" height="72.49"/></g><g class="cls-5"><rect class="cls-6" x="7.18" y="2.47" width="54.38" height="37.49"/></g><g class="cls-7"><rect class="cls-8" x="21.51" y="14.76" width="29.51" height="45.94"/></g><g class="cls-3"><rect class="cls-9" width="72.5" height="72.49"/></g><g class="cls-5"><rect class="cls-10" x="7.18" y="2.47" width="54.38" height="37.49"/></g><g class="cls-7"><rect class="cls-11" x="21.51" y="14.76" width="29.51" height="45.94"/></g><g class="cls-3"><rect class="cls-12" width="72.5" height="72.49"/></g><g class="cls-5"><rect class="cls-13" x="7.18" y="2.47" width="54.38" height="37.49"/></g><g class="cls-7"><rect class="cls-14" x="21.51" y="14.76" width="29.51" height="45.94"/></g><g class="cls-3"><rect class="cls-15" width="72.5" height="72.49"/></g><g class="cls-16"><rect class="cls-17" x="6.6" y="2.47" width="54.38" height="37.49"/></g><g class="cls-7"><rect class="cls-18" x="21.51" y="14.76" width="29.51" height="45.94"/></g><g class="cls-3"><rect class="cls-19" width="72.5" height="72.49"/></g><g class="cls-5"><rect class="cls-20" x="7.18" y="2.47" width="54.38" height="37.49"/></g><g class="cls-21"><rect class="cls-22" x="18.7" y="12.63" width="35.01" height="49.46"/></g><rect class="cls-2" x="31.08" y="28.6" width="9.93" height="31.24" rx="2.54" ry="2.54"/><g class="cls-23"><rect class="cls-2" x="31.08" y="28.6" width="9.93" height="31.25"/></g><rect class="cls-2" x="43.79" y="18.2" width="9.93" height="41.64" rx="2.54" ry="2.54"/><g class="cls-24"><rect class="cls-2" x="43.79" y="18.2" width="9.93" height="41.64"/></g><rect class="cls-2" x="18.7" y="35.92" width="9.93" height="23.93" rx="2.54" ry="2.54"/><g class="cls-25"><rect class="cls-2" x="18.7" y="35.92" width="9.93" height="23.93"/></g><path class="cls-2" d="M26.63,13.53l3.07,1.87-.28.46-.85,1.38A10.11,10.11,0,0,1,19.12,22l.44.27a13.05,13.05,0,0,0,8.08,2.16c3-.31,5.62-2,7.78-5l.29-.4,3.1,1.9L37.28,10.39Z"/><g class="cls-26"><rect class="cls-2" x="19.12" y="10.39" width="19.7" height="14.33"/></g></g></g></svg>