<svg xmlns="http://www.w3.org/2000/svg" viewBox="0 0 234.16 165.48"><defs><style>.cls-1{fill:#748b8a;}.cls-2{fill:#375452;}.cls-3{fill:#5e5f61;}.cls-4{fill:none;stroke:#761306;stroke-miterlimit:10;stroke-width:2.6px;}.cls-5{fill:#fff;}.cls-6{fill:#761306;}</style></defs><title>logoDTF</title><g id="Capa_2" data-name="Capa 2"><g id="Capa_1-2" data-name="Capa 1"><path class="cls-1" d="M.1,109.36V122.5H40.62c20.93,0,34.44-8.61,41.25-23.34C52.63,107.35,24.52,110.65.1,109.36"/><path class="cls-1" d="M107.77,90.71V122.5h28V78.71c-8.52,4.13-17.41,8-26.68,11.51l-1.35.49"/><path class="cls-2" d="M163.84,63.21v59.3h28V84h36.31V59.95H191.87V47.35h42.3V21.45H213.53c-12.49,14.71-29.4,29-49.7,41.76"/><path class="cls-3" d="M161.28,47.35V21.45h-79V45.1c.31.74.58,1.5.85,2.25h24.63V90.71l1.35-.49c9.27-3.51,18.16-7.37,26.68-11.51V47.35Z"/><path class="cls-2" d="M83.13,47.35c-.27-.76-.54-1.52-.85-2.25C76.53,31.38,65.22,21.45,46.09,21.45H.1v87.9c24.42,1.29,52.53-2,81.77-10.19,3.5-7.59,5.25-16.79,5.25-27.33a71.94,71.94,0,0,0-4-24.49m-44,49.25h-11V47.35H37c20.26,0,22,17.69,22,24.06,0,9.48-2.56,25.19-20,25.19"/><path class="cls-1" d="M213.53,21.45h-49.7V63.21c20.29-12.74,37.21-27,49.7-41.76"/><path class="cls-4" d="M221.56,11.12C200.47,41.3,160,70.95,109.12,90.22,70.33,104.9,32,111.07.1,109.39"/><polygon class="cls-5" points="220.38 8.76 220.88 14.87 223.17 13.73 221.84 9.67 220.38 8.76"/><path class="cls-3" d="M48.54,132.87h3.19c3.83,0,5.87,2.07,5.87,6.13s-2.46,6.13-5.87,6.13H48.54Zm2.25,10.54h.75c2.53,0,3.67-1.72,3.67-4.41s-1.14-4.41-3.67-4.41h-.75Z"/><polygon class="cls-3" points="59.71 132.88 66.15 132.88 66.15 134.66 61.95 134.66 61.95 137.94 65.92 137.94 65.92 139.73 61.95 139.73 61.95 143.34 66.33 143.34 66.33 145.14 59.71 145.14 59.71 132.88"/><path class="cls-3" d="M68.33,142.77a5,5,0,0,0,2.6.75,1.7,1.7,0,0,0,1.86-1.78c0-.88-.51-1.26-1.6-1.86L70,139.25A3.45,3.45,0,0,1,68,136c0-2.19,1.81-3.33,3.86-3.33a8,8,0,0,1,2.56.44L74.37,135a5.86,5.86,0,0,0-2.3-.53c-1.12,0-1.7.6-1.7,1.44s.62,1.26,1.3,1.65l1.32.74c1.44.81,2.13,1.58,2.13,3.31,0,2.49-1.78,3.68-4.11,3.68a5.6,5.6,0,0,1-2.79-.54Z"/><path class="cls-3" d="M83.41,142.18H79.2l-.88,3H76.07l4.11-12.26h2.46l4,12.26H84.27Zm-.47-1.72-1.55-5.73h0l-1.68,5.73Z"/><path class="cls-3" d="M87.89,132.88h3.83c2.18,0,3.65,1,3.65,3.23A2.75,2.75,0,0,1,93,139V139c.46.07,1,.28,1.35,1.42l1.6,4.67H93.56l-1.21-4a1.6,1.6,0,0,0-1.71-1.28h-.51v5.27H87.89Zm3.16,5.34a1.77,1.77,0,0,0,2-1.86c0-1.4-.74-1.76-2-1.76h-.91v3.62Z"/><path class="cls-3" d="M97.66,132.88h3.83c2.18,0,3.65,1,3.65,3.23a2.75,2.75,0,0,1-2.37,2.88V139c.46.07,1,.28,1.36,1.42l1.6,4.67h-2.39l-1.21-4a1.6,1.6,0,0,0-1.71-1.28H99.9v5.27H97.66Zm3.16,5.34a1.77,1.77,0,0,0,2-1.86c0-1.4-.74-1.76-2-1.76H99.9v3.62Z"/><path class="cls-3" d="M111.92,132.7c2.54,0,4.88,1.89,4.88,6.3s-2.34,6.31-4.88,6.31S107,143.41,107,139s2.34-6.3,4.88-6.3m0,10.89c1.42,0,2.56-1.21,2.56-4.59s-1.14-4.59-2.56-4.59-2.56,1.22-2.56,4.59,1.14,4.59,2.56,4.59"/><polygon class="cls-3" points="118.8 132.88 121.05 132.88 121.05 143.34 125.09 143.34 125.09 145.14 118.8 145.14 118.8 132.88"/><polygon class="cls-3" points="126.59 132.88 128.84 132.88 128.84 143.34 132.88 143.34 132.88 145.14 126.59 145.14 126.59 132.88"/><path class="cls-3" d="M138.89,132.7c2.55,0,4.88,1.89,4.88,6.3s-2.34,6.31-4.88,6.31S134,143.41,134,139s2.34-6.3,4.88-6.3m0,10.89c1.42,0,2.56-1.21,2.56-4.59s-1.14-4.59-2.56-4.59-2.56,1.22-2.56,4.59,1.14,4.59,2.56,4.59"/><path class="cls-3" d="M150.34,132.87h3.2c3.83,0,5.87,2.07,5.87,6.13s-2.46,6.13-5.87,6.13h-3.2Zm2.25,10.54h.76c2.53,0,3.67-1.72,3.67-4.41s-1.14-4.41-3.67-4.41h-.76Z"/><polygon class="cls-3" points="161.51 132.88 167.96 132.88 167.96 134.66 163.76 134.66 163.76 137.94 167.73 137.94 167.73 139.73 163.76 139.73 163.76 143.34 168.13 143.34 168.13 145.14 161.51 145.14 161.51 132.88"/><polygon class="cls-3" points="3.43 152.29 0 152.29 0 149.45 10.56 149.45 10.56 152.29 7.13 152.29 7.13 165.2 3.43 165.2 3.43 152.29"/><path class="cls-3" d="M19.42,161.69H14.47l-1.08,3.52H9.82l5.23-15.75h4.06l5.06,15.75H20.38Zm-2.35-9.21h0L15.15,159h3.54Z"/><polygon class="cls-3" points="25.81 149.45 29.51 149.45 29.51 162.36 34.72 162.36 34.72 165.21 25.81 165.21 25.81 149.45"/><polygon class="cls-3" points="36.67 149.45 45.76 149.45 45.76 152.21 40.23 152.21 40.23 155.73 45.49 155.73 45.49 158.48 40.23 158.48 40.23 162.45 46.03 162.45 46.03 165.21 36.67 165.21 36.67 149.45"/><polygon class="cls-3" points="48.32 149.45 52.65 149.45 57.23 160.38 57.28 160.38 57.28 149.45 60.53 149.45 60.53 165.21 56.15 165.21 51.62 153.81 51.57 153.81 51.57 165.21 48.32 165.21 48.32 149.45"/><polygon class="cls-3" points="65.75 152.29 62.32 152.29 62.32 149.45 72.88 149.45 72.88 152.29 69.45 152.29 69.45 165.2 65.75 165.2 65.75 152.29"/><path class="cls-3" d="M80.56,149.18c4.54,0,6.7,3.52,6.7,8.15s-2.17,8.15-6.7,8.15-6.68-3.52-6.68-8.15,2.14-8.15,6.68-8.15m0,13.63c2.14,0,2.91-2.46,2.91-5.48s-.77-5.48-2.91-5.48-2.89,2.46-2.89,5.48.75,5.48,2.89,5.48"/><polygon class="cls-3" points="95.67 149.45 104.4 149.45 104.4 152.21 99.24 152.21 99.24 155.86 104.2 155.86 104.2 158.62 99.24 158.62 99.24 165.21 95.67 165.21 95.67 149.45"/><rect class="cls-3" x="106.53" y="149.45" width="3.7" height="15.75"/><polygon class="cls-3" points="113.14 149.45 117.48 149.45 122.06 160.38 122.11 160.38 122.11 149.45 125.35 149.45 125.35 165.21 120.98 165.21 116.44 153.81 116.39 153.81 116.39 165.21 113.14 165.21 113.14 149.45"/><path class="cls-3" d="M136.51,161.69h-4.94l-1.08,3.52h-3.56l5.23-15.75h4.06l5.06,15.75h-3.79Zm-2.34-9.21h0L132.25,159h3.54Z"/><polygon class="cls-3" points="142.84 149.45 147.17 149.45 151.75 160.38 151.79 160.38 151.79 149.45 155.05 149.45 155.05 165.21 150.67 165.21 146.13 153.81 146.09 153.81 146.09 165.21 142.84 165.21 142.84 149.45"/><path class="cls-3" d="M168.57,153a5.89,5.89,0,0,0-3.21-.9c-2.48,0-4.06,2-4.06,5.19s1.78,5.14,4.13,5.14a6.7,6.7,0,0,0,3.23-.83l.13,3.29a12.69,12.69,0,0,1-4,.56c-4.31,0-7.33-3.23-7.33-8.21,0-5.78,3.88-8.08,7.09-8.08a9.87,9.87,0,0,1,4.15.77Z"/><rect class="cls-3" x="170.92" y="149.45" width="3.7" height="15.75"/><polygon class="cls-3" points="177.61 149.45 186.71 149.45 186.71 152.21 181.17 152.21 181.17 155.73 186.43 155.73 186.43 158.48 181.17 158.48 181.17 162.45 186.97 162.45 186.97 165.21 177.61 165.21 177.61 149.45"/><path class="cls-3" d="M189.33,149.45h5.78c2.6,0,4.81,1.15,4.81,4.06a3.68,3.68,0,0,1-3.14,3.86v0c1.15.14,1.6.77,2.19,2.64l1.63,5.14h-3.88L195.49,161c-.61-2.14-1.11-2.14-2.46-2.14v6.36h-3.7Zm3.56,6.73H194a2,2,0,0,0,2.17-2.08c0-.65-.21-2-2.19-2h-1.13Z"/><path class="cls-3" d="M208.95,149.18c4.54,0,6.7,3.52,6.7,8.15s-2.17,8.15-6.7,8.15-6.68-3.52-6.68-8.15,2.14-8.15,6.68-8.15m0,13.63c2.14,0,2.91-2.46,2.91-5.48s-.77-5.48-2.91-5.48-2.89,2.46-2.89,5.48.74,5.48,2.89,5.48"/><polygon class="cls-5" points="220.54 9.18 221.05 15.3 223.32 14.16 222 10.09 220.54 9.18"/><polygon class="cls-6" points="227.32 4.28 231.51 5.19 228.01 7.67 229.3 11.77 225.41 9.97 222.52 13.15 222.13 8.86 217.93 7.95 221.44 5.47 220.14 1.38 224.04 3.17 226.93 0 227.32 4.28"/></g></g></svg>