<svg xmlns="http://www.w3.org/2000/svg" viewBox="0 0 244.14 132.89"><defs><style>.cls-1{fill:#791f0b;}.cls-2{fill:#fff;}.cls-3{fill:#626262;}</style></defs><title>Logo1</title><g id="Capa_2" data-name="Capa 2"><g id="Capa_1-2" data-name="Capa 1"><rect class="cls-1" width="244.14" height="132.89"/><path class="cls-2" d="M54.14,76.62c.56.76,2.06,1,2.94,1.24a26.32,26.32,0,0,0,8.61.75,41.67,41.67,0,0,0,7.39-1.1c.47-.11.94-.24,1.4-.37.7-.21,1.12-1.47,1.34-2.09a7.75,7.75,0,0,0-.62-5.7,11.19,11.19,0,0,0-.81-1.46,12.27,12.27,0,0,0-2.33-2q-1-.83-1.94-1.69a3.44,3.44,0,0,0,.34-.92c1-.56.6-1.33,1.79-1s1.07,1.42,1.46,1.42a17.74,17.74,0,0,0,3.67-.85A1.85,1.85,0,0,0,78,61.47c.07-.44,1.13-.67,1.54-1.25a.64.64,0,0,0,.09-.51,2.55,2.55,0,0,0-1-2.08,26.35,26.35,0,0,1-2.64-2.35,5.85,5.85,0,0,1-1.16-3.23,3.48,3.48,0,0,0-1-2.08,10.2,10.2,0,0,0,1.92-1c1-.65,2.81-2.13,2.45-3.58a2.57,2.57,0,0,0-1.51-1.56,3.5,3.5,0,0,0-2.17-.59.85.85,0,0,0-.53.66L74,44a.41.41,0,0,0,.12.42c.41.34.94.53,1.37.85.95.69-.1,1.05-.79,1.28a13.77,13.77,0,0,1-3.56.61h-.08a4.4,4.4,0,0,0-1.94-1.38,5.54,5.54,0,0,0-5.18,1A14.94,14.94,0,0,1,61,44.33c-.46-.48-1.24-1.17-.72-1.88a1.93,1.93,0,0,1,.89-.57c.83-.36,1.72-.62,2.56-.93.49-.18.93-.36,1.07-.92a.39.39,0,0,0-.12-.42c-.5-.35-1.68,0-2.26.08a15.86,15.86,0,0,0-3.45.85,5.22,5.22,0,0,0-2.54,1.87,3.32,3.32,0,0,0,0,3.2,11.13,11.13,0,0,0,2.49,3.56,17.81,17.81,0,0,0-3.12,2.41,19.29,19.29,0,0,0-4.72,8.53,19.79,19.79,0,0,0,1.78,14.59,15.77,15.77,0,0,0,1.28,1.9M78.76,88c-.91-1.09-2.42-1.81-3-3.13s0-2.8.33-4.13c.17-.67-.32-2.51-1.26-2.46h0l-.1,0a38.1,38.1,0,0,1-7.22,1.36c-.69.07-1.39.12-2.1.15h.1a31.22,31.22,0,0,1-10.83-1.41c-.28-.08-.36.08-.36.08a4,4,0,0,0-.78,2,18.33,18.33,0,0,0,.58,3.05,3.15,3.15,0,0,1-1.32,3,11.81,11.81,0,0,0-2.14,2.17,3.6,3.6,0,0,0,.43,4.74,1.22,1.22,0,0,1-.63.56.44.44,0,0,0-.26.4v2.3a.44.44,0,0,0,.15.33c.16.15,4.12,3.6,14.74,3.64h.2c10.64,0,14.09-3.51,14.23-3.66a.45.45,0,0,0,.13-.31v-2.3a.45.45,0,0,0-.26-.4,1.2,1.2,0,0,1-.78-.94,4.76,4.76,0,0,0,1-1.74A3.42,3.42,0,0,0,78.76,88"/><path class="cls-2" d="M93.72,63.28H87.11c-2.94,0-2.94,0-2.94,2.41l.06,12.2c0,2.31,0,2.31,2.94,2.31l0-7.47H95.3c0-2.35,0-2.35-2.34-2.35H87.13l0-4.7h8.8c0-2.41,0-2.41-2.19-2.41"/><path class="cls-2" d="M98.21,68.75l0,9c0,2.42,0,2.42,2.9,2.41l-.05-9.13c0-2.32,0-2.32-2.87-2.31"/><path class="cls-2" d="M99.58,63.79c-1.28,0-2.12.33-2.12,1.72s.85,1.69,2.13,1.69,2.05-.33,2.05-1.69-.82-1.72-2.06-1.72"/><path class="cls-2" d="M111.36,66.48c-3.14,0-4.57,1.16-5,2.08,0-1.88,0-1.88-2.2-1.88l0,11.14c0,2.38,0,2.38,2.88,2.38l0-7.54c0-3.84,0-3.84,3.57-3.84,2.93,0,3.38,1.42,3.37,3.83l0,5.16c0,2.38,0,2.38,2.88,2.38l0-7.31c0-3.84-.94-6.41-5.46-6.41"/><path class="cls-2" d="M129.36,72.29h-7.18c0-3.63,0-3.63,3.68-3.64a3.18,3.18,0,0,1,3.48,3.57v.06Zm-3.24-5.81c-5.5,0-6.89,3.31-6.87,6.91s1.41,6.84,6.87,6.84h5.19c0-2.28,0-2.28-2.29-2.28h-3c-2.56,0-3.81-1.39-3.82-3.4h7.18c3,0,3,0,3-2.25,0-3.27-2-5.82-6.21-5.81"/><path class="cls-2" d="M137.17,70.53c0-1.82,0-1.65,3.11-1.65h2.87c2.12,0,2.12,0,2.1-2.25h-4.92c-4.29,0-6.08,1.65-6,4,.16,4.82,8.89,2.84,8.9,5.78,0,1.68,0,1.49-3.31,1.49h-3.17c-2.19,0-2.19,0-2.16,2.28h5.4c4.35,0,6.08-2,6.08-3.94,0-5-8.85-3.3-8.85-5.75"/><path class="cls-2" d="M155.36,66.62h-3.74V63.22h-2.86v2.41c0,1.59.26,1.65-1.79,1.65l0,1.69h1.85l0,7.31c0,3.21,2,4.26,6.48,4,0-2.38,0-2.38-2.21-2.38-1.08,0-1.35-.76-1.34-1.62l0-7.34H153c2.33,0,2.33,0,2.32-2.32"/><path class="cls-2" d="M159.65,68.5c0-1.88,0-1.88-2.2-1.88l0,11.21c0,2.35,0,2.35,2.88,2.35l0-7.5c0-3,0-3.7,2.42-3.71,1.82,0,1.83.07,1.79-2.41-3-.13-4.43,1-4.9,2"/><path class="cls-2" d="M172.5,78c-3.14,0-3.82-1.88-3.82-4.63,0-4.66,0-4.66,3.76-4.66,3.2,0,3.91,1.85,3.93,4.66,0,4.63,0,4.63-3.87,4.63m-.39-11.57c-4.75,0-6.33,3.24-6.33,6.94s1.37,7,5.92,7c3.27,0,4.8-1.19,5.3-2.12,0,1.95,0,1.95,2.19,1.95l-.05-6.81c-.05-3.6-1.46-6.94-7-6.94"/><path class="cls-3" d="M53.28,56.47a15.26,15.26,0,0,1,5.53-6.21l.76-.46A4.66,4.66,0,0,0,62,51.13a3.45,3.45,0,0,0,3.17-2,1.52,1.52,0,0,0-.41-2,5.3,5.3,0,0,1,2.62-.53,3.49,3.49,0,0,1,2.48.91,20.6,20.6,0,0,0,2,2c.6.65,1.23,1.25,1.77,1.95a4.71,4.71,0,0,1,.55,2.17A5.52,5.52,0,0,0,75.13,56,10.1,10.1,0,0,0,77,57.83c.62.51,1.78,1.11,1.85,2a.9.9,0,0,1-.41.58,2,2,0,0,1-1.48,0c-.61-.23-.61-1.39-1.11-1.47s-.74.59-.79.9,1.25.65,1.48.82.18.87-.11,1.08-1.71,1-2.25.8-.4-.76-1.27-1.33-1.53,0-2.28.25a15.19,15.19,0,0,1-3.49.91c-1.42.1-3.87-1.43-4.48-2.24a4.38,4.38,0,0,1-.41-3.56,12.79,12.79,0,0,0,.43-2.06,2.38,2.38,0,0,0,.26-.78c-.48,0-1.82,1.07-2.71,1a4.37,4.37,0,0,1-2-1.19l.79-.23a4.35,4.35,0,0,0,1.74-1.24c.64-.56,2.49-.11,2.49-.11s.23-.1,0-.24a5.26,5.26,0,0,0-1.79-.44c-1.15-.07-.91.43-1.8,1.08s-2.08.59-2.15,1,1.48,1.7,2.43,1.88,2.3-1,2.55-.75a8.63,8.63,0,0,0-1,4.84c.41,2.34,2.09,2.49,3.51,3.21s3.33,1.39,4.6,1a1.6,1.6,0,0,1-.25.51,1.15,1.15,0,0,0-.19.36A15.1,15.1,0,0,1,65.83,67s-.29.47.47.22a13.62,13.62,0,0,0,3.15-2l1.28,1.13,1.51,1.28c.28.24.68.48,1,.75a5,5,0,0,0-2.32,2.41,11,11,0,0,0-1.1,4.87l1.11-.23s-.14-3.21.87-4.87a5.89,5.89,0,0,1,1.73-1.9l.08.11a9.14,9.14,0,0,1,1.64,4.64,4.89,4.89,0,0,1-.29,1.84c-.07.21-.22.78-.35.82-.64.19-1.29.34-1.94.49a40.37,40.37,0,0,1-8.27,1,27.39,27.39,0,0,1-3-.11,21.24,21.24,0,0,1-8.12-12.71c-.1-.38-.08-.58-.21-.52s-.1.71-.1.71a19.68,19.68,0,0,0,6.26,12.22,19.27,19.27,0,0,1-3.64-1c-.76-.3-1-.87-1.53-1.52a15.32,15.32,0,0,1-1.88-4.09,18.22,18.22,0,0,1,1.09-14M57,44c-.48-1.77,1.93-2.43,3.21-2.77l.68-.16a3.19,3.19,0,0,0-1.12.95,2.13,2.13,0,0,0,.1,2.81,13.46,13.46,0,0,0,4,3.28l.1,0c.33.11.69.43.56.83a1.34,1.34,0,0,1-.75.76c-.92-.46-4.32-2.27-5.87-4.94,0,0-.15,0,.21.72A15.7,15.7,0,0,0,62.59,50a3.37,3.37,0,0,1-2-1A10.23,10.23,0,0,1,57,44m19,3a2,2,0,0,0,.95-1.61l.22.19c1,.95-.89,2.13-1.57,2.55a6.14,6.14,0,0,1-2.41,1c-.32-.34-.64-.67-1-1A8.31,8.31,0,0,0,75.92,47M54.14,76.62c.56.76,2.06,1,2.94,1.24a26.3,26.3,0,0,0,8.6.74,41.54,41.54,0,0,0,7.39-1.1c.47-.11.94-.23,1.4-.37.7-.21,1.12-1.47,1.34-2.09a7.75,7.75,0,0,0-.62-5.7,11,11,0,0,0-.81-1.46,12.18,12.18,0,0,0-2.33-2q-1-.83-1.94-1.69a3.48,3.48,0,0,0,.34-.91c1-.56.6-1.33,1.79-1s1.07,1.42,1.46,1.42a17.66,17.66,0,0,0,3.67-.85A1.84,1.84,0,0,0,78,61.47c.07-.44,1.13-.67,1.54-1.25a.64.64,0,0,0,.09-.51,2.56,2.56,0,0,0-1-2.08,26.1,26.1,0,0,1-2.63-2.35,5.79,5.79,0,0,1-1.16-3.23,3.52,3.52,0,0,0-1-2.08,10.15,10.15,0,0,0,1.92-1c1-.65,2.8-2.13,2.45-3.58a2.57,2.57,0,0,0-1.51-1.56,3.53,3.53,0,0,0-2.17-.59.85.85,0,0,0-.53.66L74,44a.39.39,0,0,0,.12.42c.4.34.94.53,1.37.85.95.69-.11,1.05-.79,1.28a14,14,0,0,1-3.56.61h-.08a4.36,4.36,0,0,0-1.95-1.38,5.54,5.54,0,0,0-5.18,1A14.85,14.85,0,0,1,61,44.33c-.47-.48-1.24-1.17-.72-1.87a1.94,1.94,0,0,1,.88-.57c.84-.36,1.71-.61,2.56-.93.49-.18.94-.36,1.07-.92a.39.39,0,0,0-.12-.42c-.5-.35-1.68,0-2.26.08a15.73,15.73,0,0,0-3.45.86,5.19,5.19,0,0,0-2.54,1.87,3.31,3.31,0,0,0,0,3.2,11.16,11.16,0,0,0,2.48,3.56,17.89,17.89,0,0,0-3.11,2.41,19.33,19.33,0,0,0-4.72,8.53,19.8,19.8,0,0,0,1.78,14.59,15.14,15.14,0,0,0,1.28,1.9M78.21,92.29c.19-.31-.16.17,0,0a6.09,6.09,0,0,1-1.76,1.14,18.41,18.41,0,0,1-4.56,1.33,37,37,0,0,1-8.4.59c-3.52-.16-7.56-.48-10.69-2.29a4.85,4.85,0,0,1-.79-.57l-.18-.17a2.46,2.46,0,0,1-.47-3.42c1.21-1.58,3-2.29,3.57-4.34a5.91,5.91,0,0,0-.09-2.73c-.19-.9-.5-1.52-.18-2.31,0,0,0-.17.24-.1a19.58,19.58,0,0,0,3.68,1,18.64,18.64,0,0,0,0,3.8c.19,2.05-2,3.1-2.32,3.39s.26.24.26.24a4.35,4.35,0,0,0,2.78-4.16,9.06,9.06,0,0,1,.47-3.06,31.58,31.58,0,0,0,6.67.15,37.68,37.68,0,0,0,8-1.41c.35,0,.64.77.73,1,.18.51-.11,1-.24,1.53a6.72,6.72,0,0,0-.23,2.91c.41,2.13,2.59,3,3.74,4.65.71,1,.39,1.83-.21,2.81m.48,2.27c-.93.92-4.26,3.32-13.73,3.32-9,0-12.73-2.42-13.81-3.34a2,2,0,0,0,.6-.6c2.15,1.53,5.18,2,7.7,2.29a37,37,0,0,0,14.77-.9,11.07,11.07,0,0,0,3.63-1.66,2,2,0,0,0,.85.9m.05,1.87c-.69.58-4.37,3.26-13.57,3.28S51.85,97,51.06,96.41V95c1.35,1.08,5.18,3.28,13.9,3.28,8.92,0,12.5-2.07,13.78-3.19Zm0-8.47c-.91-1.09-2.42-1.81-3-3.13s0-2.81.34-4.13c.16-.67-.32-2.51-1.26-2.46h0l-.1,0a38.24,38.24,0,0,1-7.23,1.36c-.69.07-1.39.12-2.1.15h.1a31.16,31.16,0,0,1-10.83-1.41c-.29-.08-.36.08-.36.08a4,4,0,0,0-.78,2,18.31,18.31,0,0,0,.58,3.06,3.15,3.15,0,0,1-1.33,3,11.88,11.88,0,0,0-2.13,2.16,3.59,3.59,0,0,0,.43,4.74,1.25,1.25,0,0,1-.63.56.45.45,0,0,0-.26.41v2.3a.45.45,0,0,0,.15.33c.16.14,4.12,3.59,14.75,3.63h.2c10.64,0,14.09-3.51,14.23-3.66a.45.45,0,0,0,.12-.31v-2.3a.45.45,0,0,0-.26-.41,1.19,1.19,0,0,1-.77-.94,4.72,4.72,0,0,0,1-1.74A3.41,3.41,0,0,0,78.76,88M69.47,52.08a8.14,8.14,0,0,1,.49,1.4,6.91,6.91,0,0,0-.92-.9,3.7,3.7,0,0,0-1.29-.7c-.06,0-.33-.11-.06,0l-.24-.1-.22-.07.2-.06a3.65,3.65,0,0,1,1.06-.17,1.27,1.27,0,0,1,1,.59M66.7,50.4v0h0a2.27,2.27,0,0,1,.51-.31,1.08,1.08,0,0,1,1.39.53,9.15,9.15,0,0,1,.51.82,2.67,2.67,0,0,0-1.37-.18,5.23,5.23,0,0,0-.81.18c-.18,0-.52.06-.64.21v.06a.46.46,0,0,0,.3.19l.09,0a3.06,3.06,0,0,1,.49.08,2.58,2.58,0,0,0,1.23,1.89,1.85,1.85,0,0,0,1.45.22,1.78,1.78,0,0,0,1.87.61h0l.06,0a.75.75,0,0,0,.36-.59c0-.33-.19-.82-.21-.4a.85.85,0,0,1-.55.74h0c-.64,0-.62-.74-.79-1.2a4.14,4.14,0,0,0-.28-.61c-.1-.27-.21-.53-.33-.79a4.43,4.43,0,0,0-1.4-2,2.3,2.3,0,0,0-2.4.46l0,0a.87.87,0,0,0-.29.43c0,.23.58-.21.82-.39"/><path class="cls-2" d="M107.72,85.85,107.11,84l-.61,1.87Zm-2.26,1.56,1.34-4h.65l1.34,4h-.56l-.36-1.11h-1.52L106,87.41Z"/><path class="cls-2" d="M110.14,87.48a1.89,1.89,0,0,1-.56-.08,2.53,2.53,0,0,1-.43-.17v-.56h0l.15.11.23.13.28.1a1.1,1.1,0,0,0,.32,0l.25,0,.2-.07.13-.13,0-.21a.36.36,0,0,0-.1-.27.83.83,0,0,0-.35-.15l-.25-.06-.29-.07a.91.91,0,0,1-.5-.31.87.87,0,0,1,.15-1.16,1.21,1.21,0,0,1,.81-.25,2.1,2.1,0,0,1,.5.06,1.74,1.74,0,0,1,.42.15v.54h0a1.53,1.53,0,0,0-.43-.24,1.34,1.34,0,0,0-.48-.09.76.76,0,0,0-.42.11.34.34,0,0,0-.17.31.35.35,0,0,0,.1.28.77.77,0,0,0,.32.15l.25.06.29.06a.94.94,0,0,1,.5.27.78.78,0,0,1,.17.52.88.88,0,0,1-.08.36.85.85,0,0,1-.22.3,1.19,1.19,0,0,1-.36.2,1.61,1.61,0,0,1-.51.07"/><path class="cls-2" d="M113.87,85.59a1.34,1.34,0,0,0,0-.35.68.68,0,0,0-.12-.25l-.23-.17a.9.9,0,0,0-.34-.06.86.86,0,0,0-.34.06.79.79,0,0,0-.26.17.86.86,0,0,0-.17.26,1.15,1.15,0,0,0-.07.33Zm-.59,1.89a1.47,1.47,0,0,1-1.1-.4,1.55,1.55,0,0,1-.39-1.14,1.68,1.68,0,0,1,.38-1.16,1.28,1.28,0,0,1,1-.43,1.41,1.41,0,0,1,.49.08,1,1,0,0,1,.37.25,1.19,1.19,0,0,1,.25.42,1.92,1.92,0,0,1,.09.6V86H112.3a1.12,1.12,0,0,0,.26.79,1,1,0,0,0,.72.27,1.37,1.37,0,0,0,.32,0,1.64,1.64,0,0,0,.29-.1l.23-.12.16-.11h0v.55l-.22.09-.23.08-.27.06-.3,0"/><path class="cls-2" d="M115.89,87.48a1.91,1.91,0,0,1-.56-.08,2.44,2.44,0,0,1-.43-.17v-.56h0l.15.11.23.13.28.1a1.11,1.11,0,0,0,.32,0l.25,0,.2-.07.13-.13,0-.21a.36.36,0,0,0-.1-.27.82.82,0,0,0-.35-.15l-.25-.06-.28-.07a.91.91,0,0,1-.5-.31.86.86,0,0,1,.15-1.16,1.21,1.21,0,0,1,.81-.25,2.1,2.1,0,0,1,.5.06,1.78,1.78,0,0,1,.42.15v.54h0a1.54,1.54,0,0,0-.43-.24,1.34,1.34,0,0,0-.48-.09.76.76,0,0,0-.42.11.34.34,0,0,0-.17.31.35.35,0,0,0,.1.28.76.76,0,0,0,.32.15l.25.06.29.06a.93.93,0,0,1,.5.27.78.78,0,0,1,.17.52.91.91,0,0,1-.08.36.85.85,0,0,1-.22.3,1.16,1.16,0,0,1-.36.2,1.6,1.6,0,0,1-.5.07"/><path class="cls-2" d="M119.67,85.92a1.43,1.43,0,0,0-.21-.86.7.7,0,0,0-.6-.28.71.71,0,0,0-.6.28,1.83,1.83,0,0,0,0,1.71.77.77,0,0,0,1.2,0,1.42,1.42,0,0,0,.21-.86m.52,0a1.7,1.7,0,0,1-.36,1.16,1.23,1.23,0,0,1-1,.41,1.21,1.21,0,0,1-1-.42,1.73,1.73,0,0,1-.36-1.15,1.69,1.69,0,0,1,.37-1.16,1.34,1.34,0,0,1,1.93,0,1.7,1.7,0,0,1,.36,1.16"/><path class="cls-2" d="M122.5,85h0l-.12,0h-.15a1,1,0,0,0-.4.09,1.3,1.3,0,0,0-.38.26v2.11h-.5v-3h.5v.44a2.3,2.3,0,0,1,.48-.34.89.89,0,0,1,.4-.1h.2Z"/><path class="cls-2" d="M125,85.59a1.31,1.31,0,0,0,0-.35.67.67,0,0,0-.12-.25l-.23-.17a.91.91,0,0,0-.34-.06.88.88,0,0,0-.34.06.8.8,0,0,0-.25.17.84.84,0,0,0-.17.26,1.19,1.19,0,0,0-.07.33Zm-.59,1.89a1.47,1.47,0,0,1-1.1-.4,1.56,1.56,0,0,1-.39-1.14,1.68,1.68,0,0,1,.38-1.16,1.27,1.27,0,0,1,1-.43,1.41,1.41,0,0,1,.49.08,1,1,0,0,1,.37.25,1.19,1.19,0,0,1,.25.42,1.92,1.92,0,0,1,.09.6V86h-2.06a1.12,1.12,0,0,0,.26.79,1,1,0,0,0,.72.27,1.39,1.39,0,0,0,.32,0l.29-.1.23-.12.16-.11h0v.55l-.22.09-.23.08-.27.06-.3,0"/><path class="cls-2" d="M127,87.48a1.91,1.91,0,0,1-.56-.08,2.53,2.53,0,0,1-.43-.17v-.56h0l.15.11.23.13.28.1a1.1,1.1,0,0,0,.32,0l.25,0,.21-.07.13-.13,0-.21a.36.36,0,0,0-.1-.27.83.83,0,0,0-.35-.15l-.25-.06-.29-.07a.91.91,0,0,1-.5-.31.87.87,0,0,1,.15-1.16,1.22,1.22,0,0,1,.81-.25,2.09,2.09,0,0,1,.5.06,1.73,1.73,0,0,1,.42.15v.54h0a1.53,1.53,0,0,0-.43-.24,1.35,1.35,0,0,0-.48-.09.76.76,0,0,0-.42.11.34.34,0,0,0-.17.31.35.35,0,0,0,.1.28.76.76,0,0,0,.32.15l.25.06.29.06a1,1,0,0,1,.5.27.78.78,0,0,1,.16.52.88.88,0,0,1-.08.36.83.83,0,0,1-.22.3,1.17,1.17,0,0,1-.36.2,1.61,1.61,0,0,1-.51.07"/><polygon class="cls-2" points="133.16 83.91 131.31 83.91 131.31 85.03 133.08 85.03 133.08 85.5 131.31 85.5 131.31 87.41 130.79 87.41 130.79 83.44 133.16 83.44 133.16 83.91"/><path class="cls-2" d="M133.82,87.41h.5v-3h-.5Zm0-3.47h.57v-.52h-.57Z"/><path class="cls-2" d="M137.62,87.41h-.5V85.71a3.71,3.71,0,0,0,0-.38A.83.83,0,0,0,137,85l-.17-.16a.66.66,0,0,0-.3-.06.87.87,0,0,0-.39.1,1.9,1.9,0,0,0-.39.26v2.22h-.5v-3h.5v.33a2,2,0,0,1,.44-.31,1,1,0,0,1,.46-.11.86.86,0,0,1,.69.29,1.26,1.26,0,0,1,.25.84Z"/><path class="cls-2" d="M140.2,86.67v-.83l-.45,0a2.37,2.37,0,0,0-.44.08.8.8,0,0,0-.33.19.47.47,0,0,0-.13.35.49.49,0,0,0,.14.38.61.61,0,0,0,.42.13.9.9,0,0,0,.43-.1,1.86,1.86,0,0,0,.36-.25m0,.42-.16.13-.2.13-.26.1a1.22,1.22,0,0,1-.35,0,.91.91,0,0,1-.64-.26.88.88,0,0,1-.19-.3,1.08,1.08,0,0,1,.06-.91.89.89,0,0,1,.41-.35,2.12,2.12,0,0,1,.59-.16l.73-.06v-.1a.66.66,0,0,0-.05-.29L140,84.9a.6.6,0,0,0-.23-.08l-.29,0a1.84,1.84,0,0,0-.41.05,2.93,2.93,0,0,0-.47.15h0v-.51l.4-.09a2.91,2.91,0,0,1,.51,0,2.47,2.47,0,0,1,.52,0,1,1,0,0,1,.38.17.73.73,0,0,1,.24.32,1.26,1.26,0,0,1,.08.47v2h-.5Z"/><path class="cls-2" d="M144,87.41h-.5V85.71a3.46,3.46,0,0,0,0-.38.86.86,0,0,0-.08-.28l-.17-.16a.67.67,0,0,0-.3-.06.86.86,0,0,0-.39.1,1.92,1.92,0,0,0-.39.26v2.22h-.5v-3h.5v.33a2,2,0,0,1,.44-.31,1.05,1.05,0,0,1,.46-.11.86.86,0,0,1,.69.29,1.26,1.26,0,0,1,.25.84Z"/><path class="cls-2" d="M146.06,87.47a1.62,1.62,0,0,1-.56-.09,1.16,1.16,0,0,1-.44-.29,1.29,1.29,0,0,1-.29-.49,2.08,2.08,0,0,1-.1-.69,2,2,0,0,1,.1-.68,1.44,1.44,0,0,1,.28-.48,1.17,1.17,0,0,1,.44-.3,1.49,1.49,0,0,1,.56-.11,1.67,1.67,0,0,1,.47.07,2.51,2.51,0,0,1,.41.16v.56h0l-.14-.1-.2-.12-.25-.09a1,1,0,0,0-.27,0,.75.75,0,0,0-.62.29,1.29,1.29,0,0,0-.24.83,1.33,1.33,0,0,0,.23.82.76.76,0,0,0,.63.29,1.09,1.09,0,0,0,.47-.1,1.44,1.44,0,0,0,.39-.26h0v.56l-.19.08-.2.07-.23.06-.26,0"/><path class="cls-2" d="M147.63,87.41h.5v-3h-.5Zm0-3.47h.57v-.52h-.57Z"/><path class="cls-2" d="M151,85.59a1.3,1.3,0,0,0,0-.35.68.68,0,0,0-.12-.25l-.23-.17a.91.91,0,0,0-.34-.06.87.87,0,0,0-.34.06.81.81,0,0,0-.25.17.88.88,0,0,0-.17.26,1.15,1.15,0,0,0-.07.33Zm-.59,1.89a1.47,1.47,0,0,1-1.11-.4,1.56,1.56,0,0,1-.39-1.14,1.68,1.68,0,0,1,.38-1.16,1.28,1.28,0,0,1,1-.43,1.41,1.41,0,0,1,.49.08,1,1,0,0,1,.37.25,1.17,1.17,0,0,1,.25.42,1.89,1.89,0,0,1,.09.6V86h-2.06a1.11,1.11,0,0,0,.26.79,1,1,0,0,0,.72.27,1.37,1.37,0,0,0,.32,0l.29-.1.23-.12.16-.11h0v.55l-.22.09-.23.08-.27.06-.3,0"/><path class="cls-2" d="M153.75,85h0l-.12,0h-.15a1,1,0,0,0-.4.09,1.31,1.31,0,0,0-.38.26v2.11h-.5v-3h.5v.44a2.3,2.3,0,0,1,.48-.34.9.9,0,0,1,.4-.1h.2Z"/><path class="cls-2" d="M156.27,85.92a1.43,1.43,0,0,0-.21-.86.7.7,0,0,0-.6-.28.71.71,0,0,0-.6.28,1.84,1.84,0,0,0,0,1.71.77.77,0,0,0,1.2,0,1.42,1.42,0,0,0,.21-.86m.52,0a1.7,1.7,0,0,1-.36,1.16,1.23,1.23,0,0,1-1,.41,1.21,1.21,0,0,1-1-.42,1.73,1.73,0,0,1-.36-1.15,1.7,1.7,0,0,1,.37-1.16,1.34,1.34,0,0,1,1.93,0,1.71,1.71,0,0,1,.36,1.16"/><path class="cls-2" d="M158.32,87.48a1.91,1.91,0,0,1-.56-.08,2.44,2.44,0,0,1-.43-.17v-.56h0l.15.11.23.13.28.1a1.11,1.11,0,0,0,.32,0l.25,0,.2-.07.14-.13,0-.21a.36.36,0,0,0-.1-.27.83.83,0,0,0-.35-.15l-.25-.06-.28-.07a.92.92,0,0,1-.5-.31.87.87,0,0,1,.15-1.16,1.22,1.22,0,0,1,.81-.25,2.1,2.1,0,0,1,.5.06,1.77,1.77,0,0,1,.42.15v.54h0a1.55,1.55,0,0,0-.43-.24,1.34,1.34,0,0,0-.48-.09.76.76,0,0,0-.42.11.34.34,0,0,0-.17.31.36.36,0,0,0,.1.28.77.77,0,0,0,.32.15l.25.06.29.06a.94.94,0,0,1,.5.27.78.78,0,0,1,.17.52.88.88,0,0,1-.08.36.83.83,0,0,1-.22.3,1.16,1.16,0,0,1-.36.2,1.6,1.6,0,0,1-.5.07"/><path class="cls-2" d="M180.23,65.36a.4.4,0,0,0-.35.13l0,0,0,0h0a.41.41,0,0,0-.26-.07.43.43,0,0,0-.33.11c0-.09,0-.1-.17-.1h0v.81c0,.18,0,.18.22.18h0v-.55c0-.25,0-.25.23-.25s.21.07.21.19v.44c0,.18,0,.18.22.18h0v-.63c0-.17,0-.17.23-.17l.17.05,0,.2v.37c0,.18,0,.18.22.18h0v-.54c0-.25,0-.47-.4-.47m.65.06c-.15,0-.19,0-.19.14v.65c0,.17.07.15.21.15v-.79h.18c.2,0,.22.08.22.14s0,.14-.22.14H181l-.05.13.22.27a.22.22,0,0,0,.22.11h.17L181.2,66c.18,0,.3-.07.3-.29s0-.3-.44-.3Zm-.57,1.88c-1.09,0-1.39-.61-1.4-1.42,0-1.25.2-1.42,1.38-1.42s1.39.61,1.39,1.42c0,1.21-.2,1.42-1.38,1.42m0-3.22c-1.44,0-1.82.82-1.81,1.79s.39,1.8,1.83,1.8,1.82-.81,1.81-1.8a1.59,1.59,0,0,0-1.83-1.79"/></g></g></svg>