<svg xmlns="http://www.w3.org/2000/svg" viewBox="0 0 76.95 76.89"><defs><style>.cls-1,.cls-2{fill:#a7a7a7;}.cls-2{fill-rule:evenodd;}</style></defs><title>logoPlace</title><g id="Capa_2" data-name="Capa 2"><g id="Capa_1-2" data-name="Capa 1"><path class="cls-1" d="M38.48,2.32A36.13,36.13,0,1,1,2.32,38.45,36.14,36.14,0,0,1,38.48,2.32m0-2.32A38.45,38.45,0,1,0,77,38.45,38.5,38.5,0,0,0,38.48,0"/><path class="cls-1" d="M8.72,37.46h.11l.08,0,0,0a.07.07,0,0,1,0,.05l0,2a.25.25,0,0,1-.05.15.22.22,0,0,1-.19.07l-4.1.06h0l0,0a.33.33,0,0,1,0-.09.87.87,0,0,1,0-.14c0-.06,0-.1,0-.14l0-.09a.1.1,0,0,1,0-.05h0l3.84-.05,0-1.59a.1.1,0,0,1,0-.05l0,0,.08,0h.12"/><path class="cls-1" d="M7.69,33.61a2.17,2.17,0,0,1,.7.19,1.41,1.41,0,0,1,.78,1,2.19,2.19,0,0,1,0,.72,2,2,0,0,1-.17.65,1.44,1.44,0,0,1-.36.48,1.34,1.34,0,0,1-.55.28,2,2,0,0,1-.73,0l-2.74-.28,0,0a.15.15,0,0,1,0-.05.42.42,0,0,1,0-.09s0-.08,0-.14a.75.75,0,0,1,0-.14.33.33,0,0,1,0-.09l0,0h0l2.66.28a1.69,1.69,0,0,0,.54,0,1,1,0,0,0,.4-.18.91.91,0,0,0,.26-.31,1.27,1.27,0,0,0,.12-.44,1.35,1.35,0,0,0,0-.47.86.86,0,0,0-.19-.36,1.15,1.15,0,0,0-.35-.25,1.79,1.79,0,0,0-.51-.12l-2.7-.28,0,0a.1.1,0,0,1,0-.05.48.48,0,0,1,0-.09.9.9,0,0,1,0-.14.74.74,0,0,1,0-.14.31.31,0,0,1,0-.08.07.07,0,0,1,0,0H5Z"/><path class="cls-1" d="M6.62,28.62l.11,0,.07,0s0,0,0,0a.09.09,0,0,1,0,0,.28.28,0,0,1-.1.12,1.88,1.88,0,0,0-.2.21,2.5,2.5,0,0,0-.24.34,2,2,0,0,0-.19.5,1.49,1.49,0,0,0,0,.66,1.38,1.38,0,0,0,.24.57,1.55,1.55,0,0,0,.47.44,2.06,2.06,0,0,0,.65.28,2.15,2.15,0,0,0,.76.07,1.57,1.57,0,0,0,.62-.18,1.35,1.35,0,0,0,.46-.4,1.77,1.77,0,0,0,.32-1,1.64,1.64,0,0,0,0-.42L8.3,29.68l-.25,1a.09.09,0,0,1-.08.07.37.37,0,0,1-.18,0l-.11,0-.07,0a.09.09,0,0,1,0,0,.09.09,0,0,1,0-.05l.35-1.36a.25.25,0,0,1,0-.07L8,29.06a.15.15,0,0,1,.08,0h.11l1.64.42a.33.33,0,0,1,.14.07.26.26,0,0,1,.08.15,1.94,1.94,0,0,1,0,.28,2.64,2.64,0,0,1,0,.33,2.82,2.82,0,0,1,0,.35A2.71,2.71,0,0,1,10,31a2.41,2.41,0,0,1-.38.85,1.87,1.87,0,0,1-.61.55,2,2,0,0,1-.79.24,2.7,2.7,0,0,1-.93-.08,2.76,2.76,0,0,1-.88-.39,2.15,2.15,0,0,1-.6-.62,2,2,0,0,1-.28-.79,2.35,2.35,0,0,1,.06-.91,2.51,2.51,0,0,1,.16-.45A2.49,2.49,0,0,1,6,29a1.13,1.13,0,0,1,.2-.25l.15-.13.12,0,.17,0"/><path class="cls-1" d="M11.72,25.53l.12,0a.09.09,0,0,1,.05,0,.16.16,0,0,1,0,.1,1.33,1.33,0,0,1-.06.16l-.07.16a.32.32,0,0,1-.05.08l0,0h-.06l-1.14-.06-.7,1.7.84.74,0,0a.19.19,0,0,1,0,.05.37.37,0,0,1,0,.1,1.4,1.4,0,0,1-.05.14l-.07.15a.22.22,0,0,1-.06.07.1.1,0,0,1-.08,0l-.1-.07L7,26.05,7,26a.15.15,0,0,1,0-.07.48.48,0,0,1,0-.11s0-.09.06-.16l.07-.17a.39.39,0,0,1,.06-.1.13.13,0,0,1,.06,0h.07Zm-4.09.37h0l1.75,1.55L10,26Z"/><path class="cls-1" d="M13.6,22.5l0,0a.09.09,0,0,1,0,.06.34.34,0,0,1,0,.09l-.08.14-.08.12a.27.27,0,0,1-.06.07l-.06,0h-.07l-1.11-.17-.36,0a1,1,0,0,0-.32,0,.77.77,0,0,0-.27.13.93.93,0,0,0-.22.27l-.2.34,1.64.94,0,0a.11.11,0,0,1,0,.06l0,.09-.06.12a.64.64,0,0,1-.08.12l-.06.07-.05,0h0L8.57,23a.24.24,0,0,1-.13-.16.26.26,0,0,1,0-.16l.47-.81.15-.24.12-.16a1.47,1.47,0,0,1,.35-.32A1.13,1.13,0,0,1,9.93,21a1,1,0,0,1,.39,0,1.34,1.34,0,0,1,.4.15,1.41,1.41,0,0,1,.32.25,1.05,1.05,0,0,1,.18.31,1.16,1.16,0,0,1,.07.35,1.65,1.65,0,0,1,0,.39.93.93,0,0,1,.2-.11,1,1,0,0,1,.24-.05H12l.33,0,1,.14.18,0,.07,0m-3.14-.79a.88.88,0,0,0-.44-.12.69.69,0,0,0-.42.21.91.91,0,0,0-.13.15,2.6,2.6,0,0,0-.15.24l-.25.43,1.29.74.29-.5a1.26,1.26,0,0,0,.15-.37.85.85,0,0,0,0-.33.65.65,0,0,0-.12-.26.9.9,0,0,0-.23-.2"/><path class="cls-1" d="M15.49,16.67a3,3,0,0,1,.66.77,1.78,1.78,0,0,1,.25.79,1.75,1.75,0,0,1-.14.8,3,3,0,0,1-.54.83l-.62.71a.25.25,0,0,1-.14.07.22.22,0,0,1-.19-.07L11.8,18a.22.22,0,0,1-.09-.18.21.21,0,0,1,.06-.14l.66-.76a2.88,2.88,0,0,1,.76-.62A1.67,1.67,0,0,1,14,16a1.81,1.81,0,0,1,.78.14,2.63,2.63,0,0,1,.76.49m-.39.48a2.41,2.41,0,0,0-.56-.37,1.43,1.43,0,0,0-.59-.15,1.24,1.24,0,0,0-.58.13,1.85,1.85,0,0,0-.59.47l-.4.45L15,20l.4-.45a2.1,2.1,0,0,0,.39-.61,1.16,1.16,0,0,0,.08-.58,1.4,1.4,0,0,0-.22-.58,2.84,2.84,0,0,0-.52-.59"/><path class="cls-1" d="M19.43,15.79l.07.08,0,.07a.19.19,0,0,1,0,.06l0,0-1.58,1.43a.25.25,0,0,1-.15.06.21.21,0,0,1-.18-.09L15,14.51a.23.23,0,0,1-.07-.18.24.24,0,0,1,.08-.14l1.56-1.41,0,0h.06l.07,0,.08.07.07.09a.16.16,0,0,1,0,.07.15.15,0,0,1,0,.05.06.06,0,0,1,0,0L15.56,14.3l.93,1,1.11-1,0,0h.06l.07,0,.08.08.07.09a.24.24,0,0,1,0,.06.11.11,0,0,1,0,.06.08.08,0,0,1,0,0l-1.1,1,1.06,1.17,1.3-1.18,0,0h.05l.07,0,.08.08"/><path class="cls-1" d="M21.56,9.54a.52.52,0,0,1,.05.1.26.26,0,0,1,0,.08.09.09,0,0,1,0,.05.08.08,0,0,1,0,0l-1.05.67,2.07,3.24a.09.09,0,0,1,0,0,.08.08,0,0,1,0,.05l-.07.07-.12.08-.12.07-.09,0h-.06l0,0L20.05,10.8,19,11.47h0l-.06,0-.06,0-.07-.09a.49.49,0,0,1-.06-.1.23.23,0,0,1,0-.08.1.1,0,0,1,0-.06l0,0,2.6-1.66.05,0,.05,0,.06.05.07.09"/><path class="cls-1" d="M26.9,11.46a.12.12,0,0,1,0,0,.07.07,0,0,1,0,.05l-.08.06-.14.08-.14.06-.09,0-.07,0-.06-.05-.82-.76a3.52,3.52,0,0,0-.28-.23,1,1,0,0,0-.28-.15.65.65,0,0,0-.3,0,.92.92,0,0,0-.34.1l-.35.17.82,1.7a.08.08,0,0,1,0,.05.11.11,0,0,1,0,.05l-.07.05-.12.07-.13.06-.09,0h-.06a.07.07,0,0,1,0,0L22.45,9.05a.21.21,0,0,1,0-.2.23.23,0,0,1,.11-.11l.85-.41.25-.11.19-.07a1.64,1.64,0,0,1,.47-.07,1,1,0,0,1,.4.07.9.9,0,0,1,.33.22,1.25,1.25,0,0,1,.24.35,1.13,1.13,0,0,1,.12.38.92.92,0,0,1,0,.36,1.13,1.13,0,0,1-.14.33,1.54,1.54,0,0,1-.25.3l.23,0,.23.09a1.69,1.69,0,0,1,.23.15l.25.21.78.71.13.13,0,.06M24.75,9a.8.8,0,0,0-.3-.35A.65.65,0,0,0,24,8.64l-.19.05-.26.12L23.09,9l.65,1.35.52-.25a1.2,1.2,0,0,0,.34-.23.77.77,0,0,0,.19-.26.56.56,0,0,0,0-.29A.76.76,0,0,0,24.75,9"/><path class="cls-1" d="M30.68,10.06a.41.41,0,0,1,.06.1.09.09,0,0,1,0,.08.16.16,0,0,1-.08.05l-.16.06-.16.05h-.15l0,0-.7-.9L27.7,10v1.12a.2.2,0,0,1,0,.06l0,.05-.08.05-.15.06-.16,0h-.09a.1.1,0,0,1,0-.06.41.41,0,0,1,0-.12l.12-4.37a.15.15,0,0,1,0-.07.11.11,0,0,1,0-.05l.1-.06.16-.06.17-.05.12,0,.08,0,.05.05Zm-3-2.86h0l0,2.34,1.46-.48Z"/><path class="cls-1" d="M34,8.35a1.23,1.23,0,0,1,0,.39,1.18,1.18,0,0,1-.09.34,1.07,1.07,0,0,1-.18.29,1.22,1.22,0,0,1-.27.23,1.91,1.91,0,0,1-.34.18,2.5,2.5,0,0,1-.43.12l-1.14.22a.23.23,0,0,1-.16,0,.21.21,0,0,1-.1-.17L30.53,6a.23.23,0,0,1,0-.2.26.26,0,0,1,.14-.08l1-.19a2.25,2.25,0,0,1,.65-.05,1.25,1.25,0,0,1,.46.13.9.9,0,0,1,.32.3,1.28,1.28,0,0,1,.17.45,1.24,1.24,0,0,1,0,.3,1.27,1.27,0,0,1-.06.28,1,1,0,0,1-.14.25.81.81,0,0,1-.22.2,1,1,0,0,1,.36.06,1,1,0,0,1,.31.18,1,1,0,0,1,.25.29,1.13,1.13,0,0,1,.14.39M32.71,6.57a.83.83,0,0,0-.1-.28.54.54,0,0,0-.18-.19A.65.65,0,0,0,32.16,6a1.58,1.58,0,0,0-.41,0l-.6.12.27,1.41.66-.12a1,1,0,0,0,.35-.13.72.72,0,0,0,.2-.2.67.67,0,0,0,.09-.26.91.91,0,0,0,0-.28m.64,1.93a.93.93,0,0,0-.12-.33A.63.63,0,0,0,33,8a.77.77,0,0,0-.33-.1,1.51,1.51,0,0,0-.46,0L31.51,8l.29,1.53.84-.15A1.6,1.6,0,0,0,33,9.28a.85.85,0,0,0,.23-.2.62.62,0,0,0,.13-.26.78.78,0,0,0,0-.33"/><path class="cls-1" d="M38.17,9.1a.61.61,0,0,1,0,.13.08.08,0,0,1,0,.07.13.13,0,0,1-.09,0l-.17,0h-.27l-.05,0,0-.05-.45-1.05-1.84.12L35,9.41l0,.05a.09.09,0,0,1,0,0l-.09,0-.15,0h-.16l-.09,0a.09.09,0,0,1,0-.07.41.41,0,0,1,0-.12l1.23-4.2a.19.19,0,0,1,0-.07l.06,0,.11,0L36,5h.3a.11.11,0,0,1,.07,0,.12.12,0,0,1,0,.06ZM36,5.6h0l-.62,2.25L37,7.75Z"/><path class="cls-1" d="M40,8.31a2.27,2.27,0,0,1-.07.48,1,1,0,0,1-.18.37.73.73,0,0,1-.32.22,1.11,1.11,0,0,1-.47.06l-.19,0-.17,0-.14-.06a.16.16,0,0,1-.07-.05l0,0,0-.05a.45.45,0,0,1,0-.07.92.92,0,0,1,0-.11c0-.05,0-.09,0-.12a.25.25,0,0,1,0-.08l0,0h0l.07,0,.1.06.14.06a.61.61,0,0,0,.18,0,.48.48,0,0,0,.2,0,.27.27,0,0,0,.14-.1.55.55,0,0,0,.09-.21,1.82,1.82,0,0,0,0-.36l.14-3.17a.06.06,0,0,1,0,0,.07.07,0,0,1,0,0l.09,0H40l.09,0,0,0a.08.08,0,0,1,0,0Z"/><path class="cls-1" d="M45,7.79a3.38,3.38,0,0,1-.28.93,2,2,0,0,1-.49.67,1.67,1.67,0,0,1-.7.36,2.25,2.25,0,0,1-.9,0,2.35,2.35,0,0,1-.83-.28A1.53,1.53,0,0,1,41.29,9,1.85,1.85,0,0,1,41,8.23a3.76,3.76,0,0,1,0-1,3.42,3.42,0,0,1,.27-.92,1.94,1.94,0,0,1,.49-.65,1.78,1.78,0,0,1,.7-.36,2.53,2.53,0,0,1,1.72.26,1.58,1.58,0,0,1,.53.52,1.79,1.79,0,0,1,.25.74,3.47,3.47,0,0,1,0,1m-.62-.05a3.76,3.76,0,0,0,0-.7,1.72,1.72,0,0,0-.13-.59A1.1,1.1,0,0,0,43.95,6a1.42,1.42,0,0,0-.61-.23,1.31,1.31,0,0,0-.66,0,1.22,1.22,0,0,0-.48.32,1.53,1.53,0,0,0-.31.51,3.06,3.06,0,0,0-.17.65,3.5,3.5,0,0,0,0,.72,1.53,1.53,0,0,0,.13.59,1,1,0,0,0,.35.43,1.5,1.5,0,0,0,.62.23,1.34,1.34,0,0,0,.66,0,1.16,1.16,0,0,0,.48-.31,1.73,1.73,0,0,0,.32-.53,3.45,3.45,0,0,0,.17-.66"/><path class="cls-1" d="M49.88,11.08l0,.09,0,.06,0,0-.06,0-.17.05-.3,0-.39,0a2.22,2.22,0,0,1-.45-.12,2.11,2.11,0,0,1-.69-.4,1.62,1.62,0,0,1-.41-.6,1.93,1.93,0,0,1-.12-.78,3.27,3.27,0,0,1,.2-.93,3.05,3.05,0,0,1,.47-.88,2,2,0,0,1,.62-.55,1.65,1.65,0,0,1,.73-.22A1.93,1.93,0,0,1,50,7a1.84,1.84,0,0,1,.34.16,1.77,1.77,0,0,1,.29.2,1.56,1.56,0,0,1,.21.21,1,1,0,0,1,.12.16l0,.09a.29.29,0,0,1,0,.06A.32.32,0,0,1,51,8a.46.46,0,0,1,0,.1l0,.11,0,.07,0,0h0a.26.26,0,0,1-.1-.11L50.49,8a2.06,2.06,0,0,0-.26-.25,1.37,1.37,0,0,0-.41-.21,1.23,1.23,0,0,0-.55-.08,1.19,1.19,0,0,0-.51.19,1.75,1.75,0,0,0-.44.44,3.15,3.15,0,0,0-.51,1.41,1.56,1.56,0,0,0,.06.6,1.12,1.12,0,0,0,.28.45,1.42,1.42,0,0,0,.49.29,1.47,1.47,0,0,0,.46.1,2,2,0,0,0,.37,0l.27-.06a.34.34,0,0,1,.16,0l0,0a.08.08,0,0,1,0,0,.28.28,0,0,1,0,.08l0,.12"/><path class="cls-1" d="M52.56,12.84a.38.38,0,0,1-.05.09.14.14,0,0,1-.05.06l-.05,0-.05,0-1.9-.95a.25.25,0,0,1-.11-.12.22.22,0,0,1,0-.2l1.77-3.53a.23.23,0,0,1,.15-.13.25.25,0,0,1,.16,0L54.31,9a.11.11,0,0,1,0,0,.08.08,0,0,1,0,.05.53.53,0,0,1,0,.08l0,.11-.06.09-.05.05-.05,0h0L52.54,8.7l-.62,1.24,1.33.67a.07.07,0,0,1,0,0,.12.12,0,0,1,0,.05.25.25,0,0,1,0,.08.64.64,0,0,1,0,.11l-.05.09-.05.05-.05,0h0l-1.33-.67L51,11.78l1.57.79,0,0a.2.2,0,0,1,0,.06.31.31,0,0,1,0,.08.38.38,0,0,1,0,.1"/><path class="cls-1" d="M55.68,15l0,0h-.06l-.09,0-.14-.09-.12-.09-.06-.06a.15.15,0,0,1,0-.07.26.26,0,0,1,0-.07l.24-1.1a3.56,3.56,0,0,0,.06-.36,1.07,1.07,0,0,0,0-.31.72.72,0,0,0-.12-.28.84.84,0,0,0-.25-.24l-.33-.22-1,1.58,0,0H53.6l-.09,0-.12-.07-.12-.09-.06-.07a.08.08,0,0,1,0-.05.1.1,0,0,1,0-.05L55.47,10a.23.23,0,0,1,.16-.12.22.22,0,0,1,.15,0l.79.52.23.16.16.12a1.8,1.8,0,0,1,.3.37,1.14,1.14,0,0,1,.14.39,1,1,0,0,1,0,.39,1.21,1.21,0,0,1-.18.38,1.3,1.3,0,0,1-.27.31,1,1,0,0,1-.31.16,1.14,1.14,0,0,1-.36,0,1.52,1.52,0,0,1-.39-.05.86.86,0,0,1,.1.21,1,1,0,0,1,0,.24,1.63,1.63,0,0,1,0,.27c0,.1,0,.21-.05.33l-.21,1a1.2,1.2,0,0,1,0,.17l0,.08m1-3.09a.77.77,0,0,0,.15-.43.66.66,0,0,0-.18-.43l-.14-.14-.23-.16-.41-.28L55,11.75l.48.31a1.31,1.31,0,0,0,.37.18.88.88,0,0,0,.32,0,.59.59,0,0,0,.27-.11.85.85,0,0,0,.21-.22"/><path class="cls-1" d="M60.93,14.07l-.08.08-.07,0h-.06l0,0-1-.79-2.45,3,0,0h-.06l-.08,0L57,16.24l-.1-.09-.06-.08a.12.12,0,0,1,0-.05.17.17,0,0,1,0,0l2.45-3-1-.8a.09.09,0,0,1,0,0,.1.1,0,0,1,0-.05l0-.07.07-.09.08-.09.07,0h.06a0,0,0,0,1,0,0l2.38,2,0,0a.16.16,0,0,1,0,.06L61,14l-.07.09"/><path class="cls-1" d="M59.12,18.07l0,0H59l-.08,0-.11-.1-.09-.11-.05-.08a.1.1,0,0,1,0-.06.08.08,0,0,1,0,0l3-3,0,0,.06,0,.08,0,.1.09.09.11.05.08a.09.09,0,0,1,0,.06.08.08,0,0,1,0,0Z"/><path class="cls-1" d="M64.51,18l-.09.07-.07,0h-.06l0,0-1.06-1.24-1.14,1L63,19a.07.07,0,0,1,0,0,.18.18,0,0,1,0,.05.15.15,0,0,1,0,.07l-.09.08-.09.07-.07,0h-.06s0,0,0,0l-1-1.16-1.41,1.2,0,0-.05,0-.07-.05-.1-.1L59.91,19l0-.08a.08.08,0,0,1,0-.06l0,0L63,16.19a.22.22,0,0,1,.19-.07.24.24,0,0,1,.14.08l1.29,1.51,0,0a.09.09,0,0,1,0,.06.19.19,0,0,1,0,.07l-.08.08"/><path class="cls-1" d="M62.2,21.75l0,0-.05,0L62,21.69l-.09-.11-.08-.12a.55.55,0,0,1,0-.09.08.08,0,0,1,0-.06.08.08,0,0,1,0,0l3.45-2.49h0l.05,0,.07.06.09.1a.81.81,0,0,1,.08.12.41.41,0,0,1,0,.08.12.12,0,0,1,0,.06l0,0Z"/><path class="cls-1" d="M64.8,24.91l-.08,0-.07,0h-.13l-.16-.07-.26-.17a2.12,2.12,0,0,1-.29-.27,2.22,2.22,0,0,1-.27-.37,1.91,1.91,0,0,1-.27-.74,1.58,1.58,0,0,1,.06-.73,1.89,1.89,0,0,1,.41-.67,3,3,0,0,1,.75-.6A3.09,3.09,0,0,1,65.4,21a2.06,2.06,0,0,1,.83,0,1.67,1.67,0,0,1,.71.29,1.86,1.86,0,0,1,.54.61,1.68,1.68,0,0,1,.16.33,2.52,2.52,0,0,1,.09.33,1.56,1.56,0,0,1,0,.3,1.52,1.52,0,0,1,0,.21l0,.09,0,0-.06.05-.09.06-.1.05-.08,0h-.06l0,0a.25.25,0,0,1,0-.15,2.4,2.4,0,0,0,0-.26,1.94,1.94,0,0,0,0-.36,1.51,1.51,0,0,0-.18-.43,1.27,1.27,0,0,0-.37-.41,1.12,1.12,0,0,0-.51-.18,1.67,1.67,0,0,0-.62.05,2.88,2.88,0,0,0-.7.3,2.78,2.78,0,0,0-.59.46,1.54,1.54,0,0,0-.33.5,1.11,1.11,0,0,0-.07.53,1.4,1.4,0,0,0,.19.54,1.47,1.47,0,0,0,.29.36,1.86,1.86,0,0,0,.29.22l.24.13a.23.23,0,0,1,.13.09.07.07,0,0,1,0,0,.07.07,0,0,1,0,0l-.06.05-.11.07"/><path class="cls-1" d="M66,28.77a.4.4,0,0,1-.1.08.08.08,0,0,1-.07,0,.16.16,0,0,1-.07-.07,1.2,1.2,0,0,1-.07-.15,1.24,1.24,0,0,1-.06-.15.38.38,0,0,1,0-.1.07.07,0,0,1,0-.05l0,0,.84-.78L65.8,25.8l-1.12.09h-.06l-.06,0-.06-.07a1.52,1.52,0,0,1-.06-.14l-.06-.15a.19.19,0,0,1,0-.1.08.08,0,0,1,.05,0l.12,0,4.37-.25H69l.06,0,.06.09.07.16.07.17,0,.11a.16.16,0,0,1,0,.08.18.18,0,0,1,0,.06Zm2.59-3.18h0l-2.33.17.61,1.42Z"/><path class="cls-1" d="M69.12,32.08a3.14,3.14,0,0,1-1,.12,1.84,1.84,0,0,1-.8-.23,1.72,1.72,0,0,1-.59-.56,3,3,0,0,1-.39-.91l-.25-.9a.28.28,0,0,1,0-.16.23.23,0,0,1,.16-.11l3.81-1a.22.22,0,0,1,.2,0,.24.24,0,0,1,.09.13l.27,1a2.91,2.91,0,0,1,.11,1,1.72,1.72,0,0,1-.24.76,1.83,1.83,0,0,1-.54.57,2.83,2.83,0,0,1-.83.37m-.19-.59a2.64,2.64,0,0,0,.62-.26,1.5,1.5,0,0,0,.44-.41,1.28,1.28,0,0,0,.21-.56,1.84,1.84,0,0,0-.08-.76L70,28.93l-3.33.91.16.58a2.17,2.17,0,0,0,.29.66,1.21,1.21,0,0,0,.44.38,1.37,1.37,0,0,0,.61.14,2.71,2.71,0,0,0,.78-.11"/><path class="cls-1" d="M69.75,36.84a4,4,0,0,1-1,0,2.09,2.09,0,0,1-.77-.29,1.65,1.65,0,0,1-.54-.57,2.3,2.3,0,0,1-.27-.86,2.28,2.28,0,0,1,0-.87,1.56,1.56,0,0,1,.36-.65,1.83,1.83,0,0,1,.66-.43,3.76,3.76,0,0,1,.95-.23,3.21,3.21,0,0,1,1,0,2,2,0,0,1,.77.29,1.66,1.66,0,0,1,.54.57,2.26,2.26,0,0,1,.27.86,2.31,2.31,0,0,1,0,.87,1.54,1.54,0,0,1-.36.65,1.79,1.79,0,0,1-.65.44,3.61,3.61,0,0,1-.93.23m-.12-.61a3.22,3.22,0,0,0,.69-.15,1.56,1.56,0,0,0,.53-.29,1.08,1.08,0,0,0,.32-.46,1.43,1.43,0,0,0,.06-.66,1.31,1.31,0,0,0-.22-.62,1.16,1.16,0,0,0-.43-.37,1.52,1.52,0,0,0-.58-.16,2.6,2.6,0,0,0-.67,0,3.4,3.4,0,0,0-.71.15,1.68,1.68,0,0,0-.54.28,1.07,1.07,0,0,0-.32.46,1.36,1.36,0,0,0-.05.65,1.31,1.31,0,0,0,.22.63,1.15,1.15,0,0,0,.44.38,1.68,1.68,0,0,0,.59.16,3.37,3.37,0,0,0,.68,0"/><path class="cls-2" d="M20.78,57.34H56.7V21.26H20.78ZM46.25,24.92l-1.15,2.43h2.29ZM54.88,48.6a.88.88,0,0,0-.65.26.91.91,0,0,0-.15,1.1.92.92,0,0,0,.34.33.9.9,0,0,0,.46.12.89.89,0,0,0,.46-.12.89.89,0,0,0,.46-.78.9.9,0,0,0-.91-.92m.26,1.54,0-.08s0-.07,0-.12a.84.84,0,0,0,0-.2.09.09,0,0,0,0-.06.3.3,0,0,0-.13,0h-.22v.48H54.4V48.88H55a.65.65,0,0,1,.26,0,.3.3,0,0,1,.13.13.34.34,0,0,1,.05.2.45.45,0,0,1,0,.17.41.41,0,0,1-.11.12.27.27,0,0,1,.09.09.39.39,0,0,1,0,.18,2.61,2.61,0,0,0,0,.27.13.13,0,0,0,.06.07Zm-8-8.11a2.9,2.9,0,0,0-.37,1.46,2.8,2.8,0,0,0,2.81,2.82A2.86,2.86,0,0,0,51,45.93a2.69,2.69,0,0,0,1-1,2.91,2.91,0,0,0,.37-1.45A2.83,2.83,0,0,0,52.07,42a2.79,2.79,0,0,0-1-1,2.83,2.83,0,0,0-1.42-.38,2.77,2.77,0,0,0-1.4.38,2.81,2.81,0,0,0-1,1m2.41-18.51h3.64v.65H51.73v6h-.66v-6H49.58Zm3.55,11v.65H50v2.62h3.13v.65H49.34V31.82h3.82v.65H50v2.08Zm0,8.89a3.52,3.52,0,0,1-6,2.49,3.34,3.34,0,0,1-1-2.46,3.56,3.56,0,0,1,.46-1.78,3.43,3.43,0,0,1,3-1.75,3.45,3.45,0,0,1,2.53,1,3.37,3.37,0,0,1,1,2.49m-7-19.94h.17l3.11,6.66h-.72l-1-2.18h-2.9l-1,2.18H43Zm-1.09,8.13a3.87,3.87,0,0,1,1.68.36,3.32,3.32,0,0,1,1.23,1l-.53.4a2.81,2.81,0,0,0-1-.86,3.1,3.1,0,0,0-1.34-.29,2.9,2.9,0,0,0-1.47.39,2.65,2.65,0,0,0-1.05,1,2.81,2.81,0,0,0-.38,1.45,2.71,2.71,0,0,0,.84,2,2.87,2.87,0,0,0,2.11.82,3,3,0,0,0,2.34-1.1l.53.39a3.38,3.38,0,0,1-1.24,1,3.8,3.8,0,0,1-1.66.35,3.44,3.44,0,0,1-2.75-1.17,3.5,3.5,0,0,1-.85-2.37,3.3,3.3,0,0,1,1-2.46,3.5,3.5,0,0,1,2.56-1m-6.66-8.13h3.82v.65H39.08v2.09h3.13v.66H39.08v2.62h3.13v.65H38.41Zm-5.6,0h1.32a8.28,8.28,0,0,1,1.51.09,1.74,1.74,0,0,1,1,.58A1.67,1.67,0,0,1,37,25.3a1.76,1.76,0,0,1-.26,1,1.65,1.65,0,0,1-.73.63,3.42,3.42,0,0,1-1.31.21l2.4,3.09h-.82l-2.4-3.09h-.38v3.09h-.66Zm1,14.31v.65H30.58V31.82h.66v6Zm-8.9-12.75a3.39,3.39,0,0,1,1.31-1.27,3.77,3.77,0,0,1,1.88-.46,4.22,4.22,0,0,1,1.59.3,4.9,4.9,0,0,1,1.46,1l-.52.49a4,4,0,0,0-1.22-.83,3.28,3.28,0,0,0-1.3-.28,3.13,3.13,0,0,0-1.5.39,2.82,2.82,0,0,0-1.1,1,2.71,2.71,0,0,0-.39,1.39,2.79,2.79,0,0,0,.4,1.43,2.88,2.88,0,0,0,1.12,1.06,3.24,3.24,0,0,0,1.56.39A2.69,2.69,0,0,0,30,29.12a2.26,2.26,0,0,0,.85-1.5H28.69V27h2.87a3.37,3.37,0,0,1-.92,2.47,3.28,3.28,0,0,1-2.44.91,3.67,3.67,0,0,1-2.93-1.26,3.35,3.35,0,0,1-.83-2.24,3.45,3.45,0,0,1,.47-1.76m.89,10.3v3.1h-.66V31.82h1.33a7.43,7.43,0,0,1,1.54.1,1.71,1.71,0,0,1,.94.57,1.65,1.65,0,0,1,.36,1.1A1.68,1.68,0,0,1,29,34.7a1.76,1.76,0,0,1-1,.58,8.78,8.78,0,0,1-1.7.11Zm6.75,19.7h-.11l-2-5-2,5h-.11l-1.9-6.66h.67l1.37,4.8,1.91-4.8h.13l1.89,4.8,1.38-4.8h.68Zm5.19-23.26h.17L41,38.49h-.72l-1-2.19H36.38l-1,2.19H34.6Zm3.3,22.41a3.51,3.51,0,0,1-6-2.45A3.57,3.57,0,0,1,35.52,50a3.44,3.44,0,0,1,3-1.75,3.45,3.45,0,0,1,2.53,1,3.53,3.53,0,0,1,0,5m.73-13.46v-.65h3.64v.65H43.94v6h-.66v-6Zm5,14.31L44.43,52h-.38v3.08h-.66V48.43h1.33a7.81,7.81,0,0,1,1.5.09,1.66,1.66,0,0,1,1.34,1.68,1.78,1.78,0,0,1-.26,1,1.58,1.58,0,0,1-.73.62,3.38,3.38,0,0,1-1.31.22l2.4,3.08Zm5.74,0L49.65,52v3.1H49V48.43h.66v2.5l2.69-2.5h.88l-3.21,3,3.47,3.67Zm3.3-5a1.13,1.13,0,0,1-.42.42,1.15,1.15,0,0,1-1.74-1,1.17,1.17,0,0,1,.15-.58,1.14,1.14,0,0,1,.42-.42,1.16,1.16,0,0,1,1.58.42,1.15,1.15,0,0,1,.15.58,1.1,1.1,0,0,1-.15.57M28.45,34.22a1.14,1.14,0,0,0,0-1.24A1,1,0,0,0,28,32.6a2.82,2.82,0,0,0-1-.12H25.81v2.25l1.13,0a3,3,0,0,0,1-.12,1.08,1.08,0,0,0,.5-.4m18.24,16.6a1.14,1.14,0,0,0,.18-.62,1.11,1.11,0,0,0-.18-.61,1,1,0,0,0-.48-.39,2.84,2.84,0,0,0-1-.12H44.05v2.27h1.15a2.75,2.75,0,0,0,1-.13,1,1,0,0,0,.5-.41M37.84,33.22l-1.15,2.43H39Zm17.07,15.9h-.23v.3h.23a.27.27,0,0,0,.18,0,.13.13,0,0,0,0-.12.13.13,0,0,0,0-.11.27.27,0,0,0-.18,0m-19.3-22.8a1,1,0,0,0,.5-.41,1.11,1.11,0,0,0,.18-.62,1.06,1.06,0,0,0-.18-.61,1,1,0,0,0-.47-.39,2.91,2.91,0,0,0-1-.12H33.47v2.27h1.15a2.81,2.81,0,0,0,1-.13M40,49.3a2.81,2.81,0,0,0-1.42-.39,2.86,2.86,0,0,0-2.44,1.42,2.84,2.84,0,0,0-.37,1.45,2.8,2.8,0,0,0,2.81,2.82A2.83,2.83,0,0,0,40,54.23a2.67,2.67,0,0,0,1-1,2.9,2.9,0,0,0,.37-1.46A2.79,2.79,0,0,0,41,50.33a2.74,2.74,0,0,0-1-1"/></g></g></svg>