<svg xmlns="http://www.w3.org/2000/svg" viewBox="0 0 153.8 71.13"><defs><style>.cls-1{fill:#fff;}.cls-2{fill:#626262;}</style></defs><title>logoFooter</title><g id="Capa_2" data-name="Capa 2"><g id="Capa_1-2" data-name="Capa 1"><path class="cls-1" d="M4.89,43.24c.65.88,2.39,1.15,3.42,1.44a30.62,30.62,0,0,0,10,.87,48.49,48.49,0,0,0,8.61-1.28c.54-.13,1.09-.27,1.63-.43.82-.25,1.3-1.71,1.56-2.43a9,9,0,0,0-.71-6.63,12.91,12.91,0,0,0-.94-1.7,14.28,14.28,0,0,0-2.71-2.32q-1.14-1-2.26-2a4.06,4.06,0,0,0,.39-1.06c1.2-.65.69-1.54,2.08-1.18s1.25,1.65,1.7,1.65a20.59,20.59,0,0,0,4.27-1,2.15,2.15,0,0,0,.78-1.6c.08-.51,1.31-.79,1.79-1.46a.73.73,0,0,0,.1-.59,3,3,0,0,0-1.14-2.42,30.3,30.3,0,0,1-3.06-2.74A6.78,6.78,0,0,1,29,14.65a4.06,4.06,0,0,0-1.21-2.43,11.82,11.82,0,0,0,2.23-1.16c1.21-.76,3.26-2.47,2.86-4.16A3,3,0,0,0,31.16,5.1a4.07,4.07,0,0,0-2.52-.69,1,1,0,0,0-.62.77l0,.1a.47.47,0,0,0,.14.49c.47.4,1.1.62,1.6,1,1.1.8-.12,1.22-.92,1.49A16.13,16.13,0,0,1,24.68,9h-.1a5.07,5.07,0,0,0-2.26-1.61,6.44,6.44,0,0,0-6,1.11,17.38,17.38,0,0,1-3.41-2.79c-.54-.56-1.45-1.37-.84-2.19a2.25,2.25,0,0,1,1-.66c1-.42,2-.72,3-1.08.57-.21,1.09-.42,1.24-1.07a.45.45,0,0,0-.14-.49c-.58-.41-1.95,0-2.63.09a18.45,18.45,0,0,0-4,1,6.09,6.09,0,0,0-3,2.18,3.86,3.86,0,0,0,0,3.72,13,13,0,0,0,2.89,4.14,20.83,20.83,0,0,0-3.62,2.81A22.44,22.44,0,0,0,1.33,24,23,23,0,0,0,3.4,41a17.75,17.75,0,0,0,1.49,2.21m28.65,13.2c-1.05-1.27-2.82-2.1-3.5-3.64s0-3.26.39-4.81c.19-.78-.38-2.92-1.47-2.87h0l-.12,0a44.22,44.22,0,0,1-8.4,1.58c-.81.09-1.62.14-2.44.18h.12A36.36,36.36,0,0,1,5.49,45.27c-.33-.1-.42.09-.42.09a4.66,4.66,0,0,0-.91,2.28c-.07,1.21.54,2.36.67,3.55a3.67,3.67,0,0,1-1.54,3.5A13.77,13.77,0,0,0,.81,57.21a4.19,4.19,0,0,0,.5,5.51,1.43,1.43,0,0,1-.73.65.52.52,0,0,0-.3.47v2.68a.51.51,0,0,0,.17.38c.19.17,4.79,4.19,17.16,4.23h.24c12.38,0,16.39-4.09,16.56-4.26a.51.51,0,0,0,.15-.36V63.84a.52.52,0,0,0-.3-.47,1.4,1.4,0,0,1-.9-1.09,5.56,5.56,0,0,0,1.22-2,4,4,0,0,0-1-3.82"/><path class="cls-1" d="M50.95,27.72H43.26c-3.41,0-3.41,0-3.42,2.81l.07,14.2c0,2.69,0,2.69,3.42,2.69l0-8.69h9.5c0-2.73,0-2.73-2.72-2.73H43.28l0-5.47H53.49c0-2.81,0-2.81-2.54-2.81"/><path class="cls-1" d="M56.17,34.09l0,10.51c0,2.81,0,2.81,3.37,2.81l-.06-10.63c0-2.69,0-2.69-3.34-2.69"/><path class="cls-1" d="M57.76,28.32c-1.49,0-2.47.39-2.46,2s1,2,2.47,2,2.39-.38,2.39-2-.95-2-2.4-2"/><path class="cls-1" d="M71.46,31.44c-3.65,0-5.32,1.35-5.86,2.42,0-2.19,0-2.19-2.56-2.19l0,13c0,2.77,0,2.77,3.36,2.77l0-8.77c0-4.46,0-4.46,4.16-4.46,3.41,0,3.94,1.65,3.93,4.46l0,6c0,2.77,0,2.77,3.36,2.77l0-8.5c0-4.46-1.09-7.46-6.35-7.46"/><path class="cls-1" d="M92.42,38.2H84.06C84,34,84.11,34,88.35,34c3.06,0,4.09,2,4.05,4.15v.07Zm-3.77-6.77c-6.4,0-8,3.85-8,8s1.64,8,8,8h6c0-2.66,0-2.66-2.66-2.65H88.49c-3,0-4.44-1.62-4.44-4H92.4c3.5,0,3.5,0,3.47-2.62,0-3.81-2.36-6.77-7.22-6.77"/><path class="cls-1" d="M101.5,36.16c0-2.11,0-1.92,3.62-1.92h3.34c2.47,0,2.47,0,2.44-2.62h-5.73c-5,0-7.07,1.92-7,4.7.18,5.61,10.35,3.3,10.36,6.73,0,2,0,1.73-3.86,1.73H101c-2.55,0-2.55,0-2.51,2.65h6.28c5.06,0,7.07-2.27,7.07-4.58,0-5.81-10.3-3.84-10.3-6.69"/><path class="cls-1" d="M122.67,31.61h-4.36v-4H115v2.81c0,1.85.3,1.92-2.09,1.93l0,2H115l0,8.5c0,3.73,2.27,5,7.54,4.65,0-2.77,0-2.77-2.57-2.77-1.25,0-1.57-.89-1.55-1.89l0-8.54H120c2.7,0,2.7,0,2.7-2.69"/><path class="cls-1" d="M127.67,33.8c0-2.19,0-2.19-2.56-2.19l0,13c0,2.73,0,2.73,3.35,2.73l0-8.73c0-3.54,0-4.31,2.82-4.31,2.12,0,2.13.08,2.09-2.81-3.53-.15-5.16,1.16-5.7,2.27"/><path class="cls-1" d="M142.61,44.84c-3.65,0-4.45-2.19-4.45-5.39,0-5.42,0-5.42,4.38-5.43,3.73,0,4.55,2.15,4.57,5.42,0,5.39,0,5.39-4.5,5.39m-.46-13.46c-5.53,0-7.37,3.77-7.36,8.08s1.6,8.12,6.89,8.12c3.81,0,5.58-1.39,6.17-2.46,0,2.27,0,2.27,2.54,2.27l-.06-7.93c-.06-4.19-1.71-8.08-8.18-8.07"/><path class="cls-2" d="M3.89,19.79a17.75,17.75,0,0,1,6.43-7.22l.88-.53A5.42,5.42,0,0,0,14,13.58a4,4,0,0,0,3.69-2.27A1.76,1.76,0,0,0,17.25,9a6.15,6.15,0,0,1,3.05-.62c.86,0,2.35.28,2.88,1.05a23.48,23.48,0,0,0,2.33,2.37c.7.75,1.43,1.46,2.06,2.27a5.49,5.49,0,0,1,.64,2.53,6.4,6.4,0,0,0,1.09,2.66,11.69,11.69,0,0,0,2.13,2.14c.72.59,2.07,1.29,2.15,2.36a1.05,1.05,0,0,1-.47.68,2.36,2.36,0,0,1-1.73,0c-.71-.27-.71-1.62-1.3-1.71s-.86.69-.92,1.05,1.45.76,1.72,1,.22,1-.13,1.25-2,1.18-2.62.93-.46-.89-1.48-1.55-1.78,0-2.65.29A17.61,17.61,0,0,1,20,26.71c-1.66.12-4.5-1.66-5.21-2.61A5.1,5.1,0,0,1,14.27,20a15.25,15.25,0,0,0,.5-2.39,2.78,2.78,0,0,0,.31-.91c-.56,0-2.12,1.25-3.16,1.19a5.1,5.1,0,0,1-2.36-1.38l.92-.27a5,5,0,0,0,2-1.44c.75-.65,2.9-.12,2.9-.12s.27-.12,0-.28a6.16,6.16,0,0,0-2.08-.51c-1.34-.07-1.05.51-2.09,1.26s-2.43.68-2.51,1.17,1.72,2,2.83,2.19,2.68-1.18,3-.87a10,10,0,0,0-1.11,5.63c.47,2.73,2.43,2.9,4.09,3.73s3.87,1.62,5.35,1.21a1.92,1.92,0,0,1-.3.59,1.31,1.31,0,0,0-.21.42A17.62,17.62,0,0,1,18.49,32s-.34.54.54.26A15.73,15.73,0,0,0,22.7,30l1.5,1.31c.58.5,1.17,1,1.75,1.49.33.28.78.56,1.15.87a5.79,5.79,0,0,0-2.7,2.81,12.74,12.74,0,0,0-1.29,5.67l1.29-.27s-.17-3.73,1-5.66a6.86,6.86,0,0,1,2-2.21l.1.12a10.62,10.62,0,0,1,1.91,5.39,5.67,5.67,0,0,1-.34,2.14c-.08.24-.26.91-.41,1-.74.22-1.5.4-2.26.57a47.08,47.08,0,0,1-9.62,1.16,32,32,0,0,1-3.46-.13A24.71,24.71,0,0,1,3.9,29.4c-.11-.44-.09-.68-.24-.61s-.12.83-.12.83a22.91,22.91,0,0,0,7.29,14.22,22.45,22.45,0,0,1-4.23-1.21c-.88-.35-1.22-1-1.78-1.77a17.73,17.73,0,0,1-2.19-4.75A21.2,21.2,0,0,1,3.89,19.79M8.17,5.24C7.6,3.18,10.42,2.41,11.9,2l.79-.19a3.7,3.7,0,0,0-1.31,1.1,2.48,2.48,0,0,0,.12,3.27A15.63,15.63,0,0,0,16.16,10l.11,0c.38.12.8.5.65,1a1.55,1.55,0,0,1-.87.88C15,11.36,11,9.25,9.22,6.14c0,0-.17,0,.24.84a18.26,18.26,0,0,0,5.26,5.3,3.93,3.93,0,0,1-2.35-1.11,11.9,11.9,0,0,1-4.2-5.93M30.24,8.75a2.35,2.35,0,0,0,1.1-1.87l.25.22c1.11,1.1-1,2.48-1.82,3A7.17,7.17,0,0,1,27,11.28c-.37-.4-.75-.78-1.14-1.16a9.66,9.66,0,0,0,4.41-1.37M4.89,43.24c.65.88,2.39,1.15,3.42,1.44a30.53,30.53,0,0,0,10,.87,48.24,48.24,0,0,0,8.6-1.28c.55-.13,1.09-.27,1.63-.43.82-.25,1.3-1.71,1.56-2.43a9,9,0,0,0-.72-6.63,12.81,12.81,0,0,0-.94-1.69,14.14,14.14,0,0,0-2.71-2.32c-.76-.64-1.51-1.3-2.26-2a4,4,0,0,0,.39-1.07c1.2-.65.69-1.54,2.08-1.17s1.25,1.65,1.7,1.65a20.66,20.66,0,0,0,4.27-1,2.15,2.15,0,0,0,.78-1.6c.08-.51,1.31-.78,1.79-1.46a.75.75,0,0,0,.1-.59,3,3,0,0,0-1.14-2.42,30.3,30.3,0,0,1-3.06-2.74A6.74,6.74,0,0,1,29,14.65a4.09,4.09,0,0,0-1.21-2.42,11.75,11.75,0,0,0,2.23-1.16c1.21-.76,3.26-2.47,2.85-4.16A3,3,0,0,0,31.16,5.1a4.1,4.1,0,0,0-2.52-.69,1,1,0,0,0-.62.77l0,.1a.46.46,0,0,0,.14.49c.47.4,1.1.62,1.6,1,1.1.8-.12,1.22-.92,1.49A16.27,16.27,0,0,1,24.68,9h-.1a5.05,5.05,0,0,0-2.26-1.61,6.44,6.44,0,0,0-6,1.11,17.22,17.22,0,0,1-3.41-2.79c-.54-.56-1.45-1.37-.84-2.18a2.24,2.24,0,0,1,1-.67c1-.42,2-.72,3-1.08.58-.21,1.09-.42,1.24-1.07a.46.46,0,0,0-.14-.49c-.58-.41-2,0-2.63.09a18.29,18.29,0,0,0-4,1,6.06,6.06,0,0,0-3,2.18,3.86,3.86,0,0,0,0,3.72,13.06,13.06,0,0,0,2.89,4.14,20.71,20.71,0,0,0-3.62,2.81A22.47,22.47,0,0,0,1.33,24,23,23,0,0,0,3.4,41a17.52,17.52,0,0,0,1.48,2.21m28,18.23c.22-.36-.19.19-.05.05a7,7,0,0,1-2,1.33A21.41,21.41,0,0,1,25.5,64.4a43,43,0,0,1-9.77.68c-4.1-.19-8.79-.55-12.43-2.66a5.61,5.61,0,0,1-.92-.66l-.21-.2c-1.08-1.07-1.63-2.56-.54-4,1.4-1.84,3.52-2.67,4.15-5.05a6.92,6.92,0,0,0-.1-3.17c-.22-1-.59-1.77-.21-2.7,0,0,0-.2.28-.11A22.64,22.64,0,0,0,10,47.67a21.85,21.85,0,0,0,0,4.42c.21,2.39-2.37,3.61-2.7,3.94s.3.28.3.28a5.06,5.06,0,0,0,3.23-4.84,10.57,10.57,0,0,1,.54-3.56,36.8,36.8,0,0,0,7.76.18,43.89,43.89,0,0,0,9.3-1.64c.41,0,.75.9.84,1.18.21.59-.13,1.22-.28,1.79a7.79,7.79,0,0,0-.27,3.38c.48,2.48,3,3.46,4.35,5.4.83,1.21.45,2.13-.25,3.28m.55,2.64c-1.08,1.07-4.95,3.86-16,3.86C7,68,2.67,65.15,1.41,64.08a2.34,2.34,0,0,0,.7-.7c2.5,1.78,6,2.29,9,2.67a43.11,43.11,0,0,0,17.19-1,12.85,12.85,0,0,0,4.22-1.94,2.38,2.38,0,0,0,1,1m.06,2.17c-.8.68-5.08,3.8-15.79,3.81S2.23,67,1.31,66.27V64.68c1.57,1.26,6,3.81,16.17,3.81,10.38,0,14.54-2.41,16-3.71Zm0-9.85c-1.06-1.27-2.82-2.1-3.5-3.64s0-3.26.39-4.81c.19-.78-.37-2.92-1.46-2.87h0l-.12,0a44.24,44.24,0,0,1-8.41,1.58c-.8.09-1.62.14-2.44.18h.11a36.3,36.3,0,0,1-12.6-1.64c-.33-.09-.42.09-.42.09a4.65,4.65,0,0,0-.91,2.27c-.07,1.21.53,2.36.67,3.56a3.67,3.67,0,0,1-1.54,3.5A13.85,13.85,0,0,0,.81,57.21a4.18,4.18,0,0,0,.5,5.51,1.44,1.44,0,0,1-.74.65.52.52,0,0,0-.3.47v2.67a.52.52,0,0,0,.17.38c.19.17,4.79,4.18,17.16,4.23h.24c12.38,0,16.39-4.08,16.56-4.26a.51.51,0,0,0,.14-.36V63.84a.52.52,0,0,0-.3-.47,1.38,1.38,0,0,1-.9-1.09,5.48,5.48,0,0,0,1.21-2,4,4,0,0,0-1-3.82M22.73,14.7a9.25,9.25,0,0,1,.58,1.63,8,8,0,0,0-1.07-1.05,4.25,4.25,0,0,0-1.5-.81c-.07,0-.38-.13-.07,0l-.29-.12-.26-.08.23-.07A4.28,4.28,0,0,1,21.6,14a1.48,1.48,0,0,1,1.13.69m-3.22-2v0h0a2.66,2.66,0,0,1,.59-.36,1.25,1.25,0,0,1,1.61.61c.21.31.41.63.59,1a3.13,3.13,0,0,0-1.59-.21,6.23,6.23,0,0,0-.94.21c-.21.06-.61.07-.74.25l0,.07a.54.54,0,0,0,.36.22l.11,0a3.41,3.41,0,0,1,.56.09,3,3,0,0,0,1.44,2.19A2.16,2.16,0,0,0,23.2,17a2.07,2.07,0,0,0,2.17.71h0l.07,0a.88.88,0,0,0,.42-.68c0-.38-.23-.95-.25-.46a1,1,0,0,1-.64.87h0c-.74,0-.72-.86-.91-1.4a5,5,0,0,0-.32-.71c-.12-.31-.24-.62-.39-.91a5.13,5.13,0,0,0-1.63-2.28,2.68,2.68,0,0,0-2.8.54l0,0a1,1,0,0,0-.33.5c-.05.27.67-.25,1-.46"/><path class="cls-1" d="M67.24,54l-.71-2.17L65.81,54ZM64.6,55.79l1.56-4.62h.76l1.56,4.62h-.65l-.42-1.29H65.64l-.42,1.29Z"/><path class="cls-1" d="M70.06,55.88a2.18,2.18,0,0,1-.65-.09,2.74,2.74,0,0,1-.5-.2v-.65h0l.17.13a1.86,1.86,0,0,0,.27.15l.32.12a1.32,1.32,0,0,0,.37.05l.3,0,.24-.08.16-.15,0-.24a.43.43,0,0,0-.11-.31,1,1,0,0,0-.4-.18L70,54.32l-.33-.08a1,1,0,0,1-.58-.36.93.93,0,0,1-.18-.58.94.94,0,0,1,.36-.76,1.42,1.42,0,0,1,.94-.29,2.53,2.53,0,0,1,.58.07,2.08,2.08,0,0,1,.49.18v.62h0a1.81,1.81,0,0,0-.5-.28,1.52,1.52,0,0,0-.55-.1.89.89,0,0,0-.49.12.4.4,0,0,0-.2.36.42.42,0,0,0,.12.32.93.93,0,0,0,.38.18l.29.07.33.07a1.14,1.14,0,0,1,.58.32.92.92,0,0,1,.19.61,1,1,0,0,1-.09.42.93.93,0,0,1-.26.34,1.36,1.36,0,0,1-.42.24,1.84,1.84,0,0,1-.59.08"/><path class="cls-1" d="M74.39,53.68a1.46,1.46,0,0,0-.05-.41.78.78,0,0,0-.14-.29l-.26-.2a1,1,0,0,0-.4-.07,1,1,0,0,0-.39.07,1,1,0,0,0-.3.2,1,1,0,0,0-.2.3,1.47,1.47,0,0,0-.09.39Zm-.68,2.2a1.72,1.72,0,0,1-1.29-.47A1.81,1.81,0,0,1,72,54.08a2,2,0,0,1,.44-1.35,1.48,1.48,0,0,1,1.16-.5,1.61,1.61,0,0,1,.57.09,1.16,1.16,0,0,1,.44.29,1.45,1.45,0,0,1,.29.49,2.22,2.22,0,0,1,.1.7v.32h-2.4a1.29,1.29,0,0,0,.3.92,1.11,1.11,0,0,0,.84.32,1.52,1.52,0,0,0,.38,0,1.86,1.86,0,0,0,.33-.11l.27-.14.18-.12h0v.63l-.25.1-.27.1-.31.07a1.93,1.93,0,0,1-.35,0"/><path class="cls-1" d="M76.74,55.88a2.2,2.2,0,0,1-.65-.09,2.81,2.81,0,0,1-.5-.2v-.65h0l.17.13.27.15.33.12a1.3,1.3,0,0,0,.37.05l.3,0,.23-.08.16-.15,0-.24a.41.41,0,0,0-.11-.31,1,1,0,0,0-.4-.18l-.29-.06-.33-.08a1,1,0,0,1-.58-.36.94.94,0,0,1-.18-.58,1,1,0,0,1,.36-.76,1.42,1.42,0,0,1,.94-.29,2.53,2.53,0,0,1,.58.07,2,2,0,0,1,.49.18v.62h0a1.77,1.77,0,0,0-.5-.28,1.52,1.52,0,0,0-.55-.1.89.89,0,0,0-.49.12.4.4,0,0,0-.2.36.42.42,0,0,0,.12.32.9.9,0,0,0,.38.18l.29.07.34.07a1.12,1.12,0,0,1,.58.32.9.9,0,0,1,.2.61,1,1,0,0,1-.09.42,1,1,0,0,1-.26.34,1.34,1.34,0,0,1-.42.24,1.84,1.84,0,0,1-.59.08"/><path class="cls-1" d="M81.14,54.06a1.68,1.68,0,0,0-.24-1,.92.92,0,0,0-1.4,0,2.13,2.13,0,0,0,0,2,.9.9,0,0,0,1.4,0,1.66,1.66,0,0,0,.25-1m.6,0a2,2,0,0,1-.42,1.35,1.43,1.43,0,0,1-1.12.47,1.4,1.4,0,0,1-1.13-.49,2,2,0,0,1-.42-1.33,2,2,0,0,1,.43-1.35,1.55,1.55,0,0,1,2.25,0,2,2,0,0,1,.42,1.35"/><path class="cls-1" d="M84.43,53h0l-.14,0h-.18a1.18,1.18,0,0,0-.47.1,1.5,1.5,0,0,0-.44.3v2.46h-.58V52.33h.58v.51a2.68,2.68,0,0,1,.55-.4,1,1,0,0,1,.46-.12h.24Z"/><path class="cls-1" d="M87.29,53.68a1.52,1.52,0,0,0-.06-.41.78.78,0,0,0-.14-.29l-.26-.2a1,1,0,0,0-.4-.07,1,1,0,0,0-.39.07,1,1,0,0,0-.29.2,1,1,0,0,0-.2.3,1.43,1.43,0,0,0-.09.39Zm-.68,2.2a1.71,1.71,0,0,1-1.29-.47,1.81,1.81,0,0,1-.46-1.32,2,2,0,0,1,.44-1.35,1.48,1.48,0,0,1,1.16-.5,1.6,1.6,0,0,1,.57.09,1.16,1.16,0,0,1,.44.29,1.38,1.38,0,0,1,.29.49,2.16,2.16,0,0,1,.1.7v.32h-2.4a1.3,1.3,0,0,0,.3.92,1.12,1.12,0,0,0,.84.32,1.54,1.54,0,0,0,.38,0,1.84,1.84,0,0,0,.33-.11l.26-.14.18-.12h0v.63l-.25.1-.27.1-.31.07a1.9,1.9,0,0,1-.35,0"/><path class="cls-1" d="M89.64,55.88a2.19,2.19,0,0,1-.65-.09,2.77,2.77,0,0,1-.5-.2v-.65h0l.17.13.27.15.32.12a1.32,1.32,0,0,0,.37.05l.3,0,.24-.08.15-.15,0-.24a.42.42,0,0,0-.11-.31,1,1,0,0,0-.4-.18l-.29-.06-.33-.08a1.06,1.06,0,0,1-.58-.36,1,1,0,0,1-.18-.58.94.94,0,0,1,.36-.76,1.42,1.42,0,0,1,.94-.29,2.53,2.53,0,0,1,.58.07,2,2,0,0,1,.49.18v.62h0a1.79,1.79,0,0,0-.5-.28,1.55,1.55,0,0,0-.55-.1.88.88,0,0,0-.49.12.4.4,0,0,0-.2.36.42.42,0,0,0,.12.32.9.9,0,0,0,.38.18l.29.07.34.07a1.13,1.13,0,0,1,.58.32.92.92,0,0,1,.19.61,1,1,0,0,1-.09.42.92.92,0,0,1-.26.34,1.37,1.37,0,0,1-.42.24,1.84,1.84,0,0,1-.59.08"/><polygon class="cls-1" points="96.84 51.72 94.69 51.72 94.69 53.02 96.75 53.02 96.75 53.57 94.69 53.57 94.69 55.79 94.08 55.79 94.08 51.18 96.84 51.18 96.84 51.72"/><path class="cls-1" d="M97.61,55.79h.59V52.33h-.59Zm0-4h.66v-.6h-.66Z"/><path class="cls-1" d="M102,55.79h-.58v-2a4,4,0,0,0,0-.45.94.94,0,0,0-.09-.33l-.2-.19a.78.78,0,0,0-.35-.06,1,1,0,0,0-.45.12,2.33,2.33,0,0,0-.45.3v2.59H99.3V52.33h.58v.38a2.37,2.37,0,0,1,.52-.36,1.25,1.25,0,0,1,.54-.12,1,1,0,0,1,.8.34,1.47,1.47,0,0,1,.29,1Z"/><path class="cls-1" d="M105,54.94V54l-.53,0a2.89,2.89,0,0,0-.51.09.91.91,0,0,0-.38.22.55.55,0,0,0-.15.41.57.57,0,0,0,.17.45.71.71,0,0,0,.49.15,1.07,1.07,0,0,0,.5-.12,2.25,2.25,0,0,0,.42-.29m0,.48-.19.15-.23.15-.3.12a1.47,1.47,0,0,1-.4,0,1.05,1.05,0,0,1-.75-.31,1.08,1.08,0,0,1-.22-.35,1.19,1.19,0,0,1-.08-.44,1.14,1.14,0,0,1,.15-.61,1,1,0,0,1,.48-.4,2.42,2.42,0,0,1,.69-.19l.86-.08V53.4a.82.82,0,0,0-.06-.33l-.17-.19a.7.7,0,0,0-.28-.1l-.33,0a2.21,2.21,0,0,0-.47.06,3.52,3.52,0,0,0-.54.17h0V52.4l.46-.1a3.08,3.08,0,0,1,.59-.06,2.67,2.67,0,0,1,.6.06,1.13,1.13,0,0,1,.44.2.84.84,0,0,1,.28.37,1.5,1.5,0,0,1,.09.55v2.37H105Z"/><path class="cls-1" d="M109.4,55.79h-.58v-2c0-.16,0-.31,0-.45a1,1,0,0,0-.09-.33l-.2-.19a.78.78,0,0,0-.35-.06,1,1,0,0,0-.45.12,2.23,2.23,0,0,0-.45.3v2.59h-.58V52.33h.58v.38a2.4,2.4,0,0,1,.51-.36,1.25,1.25,0,0,1,.54-.12,1,1,0,0,1,.8.34,1.46,1.46,0,0,1,.29,1Z"/><path class="cls-1" d="M111.85,55.87a1.9,1.9,0,0,1-.65-.11,1.32,1.32,0,0,1-.51-.34,1.49,1.49,0,0,1-.33-.56,2.44,2.44,0,0,1-.12-.8,2.28,2.28,0,0,1,.12-.79,1.68,1.68,0,0,1,.33-.56,1.38,1.38,0,0,1,.51-.35,1.78,1.78,0,0,1,.66-.12,1.92,1.92,0,0,1,.55.08,2.84,2.84,0,0,1,.47.19v.65h0l-.16-.12-.24-.14a1.59,1.59,0,0,0-.29-.11,1.15,1.15,0,0,0-.32,0,.88.88,0,0,0-.73.34,1.51,1.51,0,0,0-.28,1,1.54,1.54,0,0,0,.27,1,.89.89,0,0,0,.74.34,1.3,1.3,0,0,0,.54-.12,1.69,1.69,0,0,0,.45-.3h0v.65l-.22.1-.24.08-.27.07a1.47,1.47,0,0,1-.3,0"/><path class="cls-1" d="M113.68,55.79h.58V52.33h-.58Zm0-4h.66v-.6h-.66Z"/><path class="cls-1" d="M117.55,53.68a1.52,1.52,0,0,0-.06-.41.75.75,0,0,0-.14-.29l-.26-.2a1.16,1.16,0,0,0-.79,0,1,1,0,0,0-.29.2.94.94,0,0,0-.2.3,1.36,1.36,0,0,0-.09.39Zm-.68,2.2a1.71,1.71,0,0,1-1.29-.47,1.81,1.81,0,0,1-.46-1.32,2,2,0,0,1,.44-1.35,1.48,1.48,0,0,1,1.16-.5,1.59,1.59,0,0,1,.57.09,1.16,1.16,0,0,1,.44.29,1.41,1.41,0,0,1,.29.49,2.22,2.22,0,0,1,.1.7v.32h-2.4a1.3,1.3,0,0,0,.3.92,1.12,1.12,0,0,0,.84.32,1.55,1.55,0,0,0,.38,0,1.84,1.84,0,0,0,.33-.11l.26-.14.18-.12h0v.63l-.26.1-.27.1-.31.07a1.91,1.91,0,0,1-.35,0"/><path class="cls-1" d="M120.8,53h0l-.14,0h-.18a1.19,1.19,0,0,0-.47.1,1.49,1.49,0,0,0-.44.3v2.46H119V52.33h.58v.51a2.67,2.67,0,0,1,.55-.4,1,1,0,0,1,.46-.12h.23Z"/><path class="cls-1" d="M123.72,54.06a1.68,1.68,0,0,0-.24-1,.92.92,0,0,0-1.4,0,2.13,2.13,0,0,0,0,2,.9.9,0,0,0,1.4,0,1.65,1.65,0,0,0,.25-1m.6,0a2,2,0,0,1-.42,1.35,1.56,1.56,0,0,1-2.26,0,2,2,0,0,1-.42-1.33,2,2,0,0,1,.43-1.35,1.55,1.55,0,0,1,2.24,0,2,2,0,0,1,.42,1.35"/><path class="cls-1" d="M126.11,55.88a2.2,2.2,0,0,1-.65-.09,2.77,2.77,0,0,1-.5-.2v-.65h0l.17.13a2.1,2.1,0,0,0,.27.15l.33.12a1.3,1.3,0,0,0,.37.05l.3,0,.23-.08.16-.15,0-.24a.42.42,0,0,0-.11-.31,1,1,0,0,0-.4-.18l-.29-.06-.33-.08a1,1,0,0,1-.58-.36,1,1,0,0,1,.17-1.34,1.42,1.42,0,0,1,.94-.29,2.53,2.53,0,0,1,.58.07,2,2,0,0,1,.49.18v.62h0a1.77,1.77,0,0,0-.5-.28,1.52,1.52,0,0,0-.55-.1.89.89,0,0,0-.49.12.4.4,0,0,0-.2.36.42.42,0,0,0,.12.32.91.91,0,0,0,.38.18l.29.07.34.07a1.13,1.13,0,0,1,.58.32.91.91,0,0,1,.2.61,1,1,0,0,1-.09.42.91.91,0,0,1-.26.34,1.35,1.35,0,0,1-.42.24,1.86,1.86,0,0,1-.59.08"/><path class="cls-1" d="M151.6,30.13a.47.47,0,0,0-.41.16l0-.06,0,0h0a.48.48,0,0,0-.31-.08.52.52,0,0,0-.39.13c0-.11,0-.11-.2-.11h0v.95c0,.21,0,.21.25.21h0v-.64c0-.29,0-.29.26-.29s.24.08.25.22v.51c0,.21,0,.21.26.21h0v-.73c0-.2,0-.2.27-.2l.2.06.06.23v.43c0,.21,0,.21.25.21h0v-.62c0-.29-.05-.55-.46-.55m.75.07c-.17,0-.22,0-.22.17v.76c0,.2.08.17.24.17v-.91h.21c.23,0,.26.09.26.16s0,.17-.26.17h-.09l-.06.15.25.31a.26.26,0,0,0,.26.12h.2l-.41-.41c.21,0,.35-.08.35-.34s-.06-.35-.51-.35Zm-.67,2.18c-1.26,0-1.61-.71-1.62-1.65,0-1.46.23-1.66,1.61-1.66s1.62.71,1.62,1.66c0,1.41-.23,1.65-1.6,1.65m0-3.74c-1.67,0-2.12,1-2.11,2.08s.45,2.09,2.13,2.09,2.12-.95,2.11-2.09a1.86,1.86,0,0,0-2.13-2.09"/></g></g></svg>