<svg xmlns="http://www.w3.org/2000/svg" viewBox="0 0 104.58 73.8"><defs><style>.cls-1{fill:#a7a7a7;}.cls-2{fill:#fff;}.cls-3{fill:#77160b;}</style></defs><title>logoISO</title><g id="Capa_2" data-name="Capa 2"><g id="Capa_1-2" data-name="Capa 1"><path class="cls-1" d="M98.08,58.5A5.46,5.46,0,0,1,103.54,64V67.3a5.46,5.46,0,0,1-5.46,5.46H6.5A5.46,5.46,0,0,1,1,67.3V64A5.46,5.46,0,0,1,6.5,58.5H98.08m0-1H6.5A6.5,6.5,0,0,0,0,64V67.3a6.5,6.5,0,0,0,6.5,6.5H98.08a6.5,6.5,0,0,0,6.5-6.5V64a6.5,6.5,0,0,0-6.5-6.5"/><path class="cls-2" d="M15.42,69.41v-.65a.46.46,0,0,1-.28-.36v0l0,0a1.18,1.18,0,0,0,.26-.45.82.82,0,0,0-.22-.8,2.39,2.39,0,0,0-.33-.31,1.72,1.72,0,0,1-.52-.58,1.48,1.48,0,0,1,0-1l.05-.2a.73.73,0,0,0-.12-.48.14.14,0,0,0-.11-.07,10.8,10.8,0,0,1-2,.38l-.56,0h0a8.73,8.73,0,0,1-3-.39,1,1,0,0,0-.18.46,1.41,1.41,0,0,0,.08.46,2.68,2.68,0,0,1,.08.37,1,1,0,0,1-.4.92,3.15,3.15,0,0,0-.57.58.89.89,0,0,0,.11,1.17l.05.05,0,.07a.44.44,0,0,1-.22.2v.65c0,.05,1.13,1,4,1h.05v0c2.89,0,3.81-.94,3.85-1"/><path class="cls-2" d="M8.24,63.3a3.4,3.4,0,0,0,.3.46l0,.06a1.2,1.2,0,0,0,.6.27l.15,0a6.34,6.34,0,0,0,1.75.21l.58,0a11.35,11.35,0,0,0,2-.3l.38-.1c.13,0,.25-.36.29-.49a2.06,2.06,0,0,0-.16-1.51,3.05,3.05,0,0,0-.21-.39,1.75,1.75,0,0,0-.41-.36L13.37,61l-.54-.47-.06-.05,0-.07a.83.83,0,0,0,.08-.22v0l0,0a.42.42,0,0,0,.17-.16c.06-.09.14-.2.4-.13a.52.52,0,0,1,.39.36v0a5.09,5.09,0,0,0,.93-.22c.1-.06.12-.2.14-.3s.12-.17.24-.24a.69.69,0,0,0,.21-.15.09.09,0,0,0,0-.06.62.62,0,0,0-.24-.52l-.25-.21a3.45,3.45,0,0,1-.48-.44,1.71,1.71,0,0,1-.34-.95.85.85,0,0,0-.26-.52l-.1-.12.15-.05a2.83,2.83,0,0,0,.51-.26c.27-.17.71-.55.63-.87a.61.61,0,0,0-.36-.36c-.12-.06-.39-.2-.52-.15a.13.13,0,0,0-.07.1v0a.66.66,0,0,0,.19.13,1.18,1.18,0,0,1,.18.11.26.26,0,0,1,.14.25c0,.16-.24.23-.39.28a4,4,0,0,1-1,.17h-.08l0,0L13,55.76a1,1,0,0,0-.43-.29,1.5,1.5,0,0,0-.45-.07,1.28,1.28,0,0,0-.88.31l-.06.05-.07,0a4.14,4.14,0,0,1-.83-.67l0,0c-.13-.13-.37-.37-.18-.62a.58.58,0,0,1,.27-.18c.17-.07.33-.13.48-.18l.25-.09c.14,0,.2-.08.23-.18s0,0-.11,0a1.83,1.83,0,0,0-.31,0l-.12,0a4.25,4.25,0,0,0-.93.23,1.32,1.32,0,0,0-.65.48.79.79,0,0,0,0,.78,3,3,0,0,0,.66.95l.09.09-.11.07A4.75,4.75,0,0,0,9,57a5.14,5.14,0,0,0-1.27,2.3,5.33,5.33,0,0,0,.48,3.95"/><polygon class="cls-1" points="19.48 64.29 21.2 64.29 21.2 64.79 20.05 64.79 20.05 65.47 21.1 65.47 21.1 65.97 20.05 65.97 20.05 66.68 21.22 66.68 21.22 67.19 19.48 67.19 19.48 64.29"/><polygon class="cls-1" points="23.9 65.69 23.96 65.11 23.93 65.11 23.75 65.57 23.14 66.65 22.96 66.65 22.31 65.57 22.12 65.11 22.1 65.11 22.19 65.68 22.19 67.19 21.65 67.19 21.65 64.29 22.16 64.29 22.94 65.61 23.08 65.94 23.09 65.94 23.22 65.6 23.95 64.29 24.46 64.29 24.46 67.19 23.9 67.19 23.9 65.69"/><path class="cls-1" d="M25,64.32l.38-.05.42,0a2.71,2.71,0,0,1,.43,0,1,1,0,0,1,.39.14.83.83,0,0,1,.29.29,1,1,0,0,1,.11.49,1,1,0,0,1-.1.46.89.89,0,0,1-.25.31,1,1,0,0,1-.36.17,1.56,1.56,0,0,1-.42.05h-.33v1H25Zm.85.42h-.16l-.12,0v.94h.24l.22,0a.53.53,0,0,0,.2-.07.39.39,0,0,0,.14-.16.57.57,0,0,0,.05-.26.41.41,0,0,0-.18-.37.49.49,0,0,0-.19-.07l-.21,0"/><path class="cls-1" d="M27.33,64.32l.2,0,.22,0h.41a2.12,2.12,0,0,1,.4,0,1,1,0,0,1,.35.13.65.65,0,0,1,.25.25.77.77,0,0,1,.09.4,1,1,0,0,1-.16.58.87.87,0,0,1-.44.31l.2.13.66,1.11h-.65l-.66-1.13L27.9,66v1.19h-.57Zm.87.44H28l-.13,0v.84h.24a.61.61,0,0,0,.38-.11.42.42,0,0,0,.14-.36.37.37,0,0,0-.12-.29.49.49,0,0,0-.34-.1"/><polygon class="cls-1" points="29.83 64.29 31.55 64.29 31.55 64.79 30.39 64.79 30.39 65.47 31.44 65.47 31.44 65.97 30.39 65.97 30.39 66.68 31.56 66.68 31.56 67.19 29.83 67.19 29.83 64.29"/><path class="cls-1" d="M33.24,66.41a.26.26,0,0,0-.1-.21A1.08,1.08,0,0,0,32.9,66l-.32-.14a1.72,1.72,0,0,1-.32-.18.94.94,0,0,1-.25-.26.75.75,0,0,1-.1-.4.88.88,0,0,1,.07-.37.68.68,0,0,1,.2-.26.85.85,0,0,1,.31-.15,1.49,1.49,0,0,1,.4-.05,2.63,2.63,0,0,1,.48,0,1.27,1.27,0,0,1,.37.13l-.18.48a1,1,0,0,0-.27-.11,1.57,1.57,0,0,0-.39,0,.5.5,0,0,0-.3.08.25.25,0,0,0-.11.21.26.26,0,0,0,.1.21,1,1,0,0,0,.24.15l.32.15a1.87,1.87,0,0,1,.32.18.93.93,0,0,1,.24.26.71.71,0,0,1,.1.39,1,1,0,0,1-.08.4.81.81,0,0,1-.21.28.88.88,0,0,1-.34.16,1.58,1.58,0,0,1-.43.06,2.29,2.29,0,0,1-.55-.06,1.62,1.62,0,0,1-.35-.12l.18-.48.12.05.16.05.19,0,.21,0a.74.74,0,0,0,.39-.09.28.28,0,0,0,.13-.26"/><path class="cls-1" d="M35.61,66.55h-.89l-.22.64h-.57l1-2.92h.42l1,2.92h-.6Zm-.75-.46h.62l-.21-.64L35.19,65h0l-.09.46Z"/><path class="cls-1" d="M39.47,67.07a.89.89,0,0,1-.34.13,2,2,0,0,1-.42,0,1.52,1.52,0,0,1-.49-.08,1.06,1.06,0,0,1-.41-.26,1.29,1.29,0,0,1-.28-.47,2.06,2.06,0,0,1-.1-.7,1.94,1.94,0,0,1,.12-.71,1.29,1.29,0,0,1,.31-.46,1.1,1.1,0,0,1,.42-.25,1.47,1.47,0,0,1,.46-.08,2.14,2.14,0,0,1,.42,0,1.45,1.45,0,0,1,.29.08l-.11.48a.81.81,0,0,0-.23-.06l-.32,0a.7.7,0,0,0-.55.25,1.14,1.14,0,0,0-.21.76,1.53,1.53,0,0,0,0,.41.87.87,0,0,0,.15.32.68.68,0,0,0,.25.2.76.76,0,0,0,.35.07,1.11,1.11,0,0,0,.31,0,1,1,0,0,0,.22-.1Z"/><path class="cls-1" d="M39.59,65.74a1.72,1.72,0,0,1,.32-1.12,1.11,1.11,0,0,1,.91-.39,1.28,1.28,0,0,1,.54.11,1,1,0,0,1,.38.31,1.34,1.34,0,0,1,.23.47,2.44,2.44,0,0,1,.07.62,1.72,1.72,0,0,1-.32,1.12,1.11,1.11,0,0,1-.91.39,1.28,1.28,0,0,1-.55-.11,1,1,0,0,1-.38-.31,1.35,1.35,0,0,1-.23-.48,2.37,2.37,0,0,1-.07-.62m.6,0a2.16,2.16,0,0,0,0,.4,1.07,1.07,0,0,0,.11.32.58.58,0,0,0,.2.2.58.58,0,0,0,.75-.16,1.36,1.36,0,0,0,.17-.77,2,2,0,0,0,0-.39,1.08,1.08,0,0,0-.11-.32.55.55,0,0,0-.2-.21.52.52,0,0,0-.29-.08.53.53,0,0,0-.47.24,1.37,1.37,0,0,0-.17.76"/><polygon class="cls-1" points="44.71 65.69 44.77 65.11 44.74 65.11 44.57 65.57 43.95 66.65 43.77 66.65 43.12 65.57 42.94 65.11 42.91 65.11 43 65.68 43 67.19 42.46 67.19 42.46 64.29 42.98 64.29 43.75 65.61 43.89 65.94 43.9 65.94 44.03 65.6 44.76 64.29 45.27 64.29 45.27 67.19 44.71 67.19 44.71 65.69"/><path class="cls-1" d="M45.77,64.32l.38-.05.42,0a2.7,2.7,0,0,1,.43,0,1,1,0,0,1,.39.14.84.84,0,0,1,.28.29,1,1,0,0,1,.11.49,1,1,0,0,1-.09.46.86.86,0,0,1-.25.31,1,1,0,0,1-.36.17,1.55,1.55,0,0,1-.41.05h-.33v1h-.57Zm.85.42h-.16l-.12,0v.94h.24l.22,0a.54.54,0,0,0,.2-.07.39.39,0,0,0,.14-.16.57.57,0,0,0,.05-.26.47.47,0,0,0,0-.23.45.45,0,0,0-.13-.14.49.49,0,0,0-.19-.07l-.21,0"/><path class="cls-1" d="M48.14,64.32l.21,0,.22,0H49a2.1,2.1,0,0,1,.4,0,1,1,0,0,1,.35.13.65.65,0,0,1,.25.25.77.77,0,0,1,.09.4,1,1,0,0,1-.17.58.87.87,0,0,1-.44.31l.2.13.66,1.11h-.65L49,66.05l-.3-.05v1.19h-.57Zm.87.44h-.17l-.13,0v.84H49a.61.61,0,0,0,.38-.11.42.42,0,0,0,.14-.36.38.38,0,0,0-.11-.29.49.49,0,0,0-.34-.1"/><path class="cls-1" d="M50.41,65.74a1.72,1.72,0,0,1,.32-1.12,1.11,1.11,0,0,1,.91-.39,1.27,1.27,0,0,1,.54.11,1,1,0,0,1,.39.31,1.32,1.32,0,0,1,.23.47,2.44,2.44,0,0,1,.07.62,1.71,1.71,0,0,1-.32,1.12,1.11,1.11,0,0,1-.91.39,1.28,1.28,0,0,1-.55-.11,1,1,0,0,1-.38-.31,1.36,1.36,0,0,1-.22-.48,2.37,2.37,0,0,1-.07-.62m.6,0a2.08,2.08,0,0,0,0,.4,1,1,0,0,0,.11.32.57.57,0,0,0,.2.2.58.58,0,0,0,.75-.16,1.37,1.37,0,0,0,.17-.77,2.16,2.16,0,0,0,0-.39,1.13,1.13,0,0,0-.11-.32.55.55,0,0,0-.19-.21.52.52,0,0,0-.29-.08.53.53,0,0,0-.47.24,1.38,1.38,0,0,0-.17.76"/><polygon class="cls-1" points="55.53 65.69 55.59 65.11 55.56 65.11 55.38 65.57 54.77 66.65 54.59 66.65 53.94 65.57 53.75 65.11 53.73 65.11 53.81 65.68 53.81 67.19 53.28 67.19 53.28 64.29 53.79 64.29 54.57 65.61 54.7 65.94 54.72 65.94 54.85 65.6 55.58 64.29 56.09 64.29 56.09 67.19 55.53 67.19 55.53 65.69"/><polygon class="cls-1" points="56.59 64.29 58.31 64.29 58.31 64.79 57.16 64.79 57.16 65.47 58.21 65.47 58.21 65.97 57.16 65.97 57.16 66.68 58.33 66.68 58.33 67.19 56.59 67.19 56.59 64.29"/><polygon class="cls-1" points="60.81 64.79 59.97 64.79 59.97 67.19 59.4 67.19 59.4 64.79 58.55 64.79 58.55 64.29 60.81 64.29 60.81 64.79"/><rect class="cls-1" x="61.17" y="64.29" width="0.57" height="2.9"/><path class="cls-1" d="M62.29,64.29l.2,0h.65a1.8,1.8,0,0,1,.66.11,1.1,1.1,0,0,1,.44.3,1.22,1.22,0,0,1,.25.46,2.09,2.09,0,0,1,.08.6,2.06,2.06,0,0,1-.07.57,1.23,1.23,0,0,1-.71.83,1.73,1.73,0,0,1-.7.13h-.63l-.16,0Zm.89.46h-.32v1.94h.29a.86.86,0,0,0,.4-.09.66.66,0,0,0,.25-.23.84.84,0,0,0,.13-.33,1.89,1.89,0,0,0,0-.72.86.86,0,0,0-.12-.31.7.7,0,0,0-.24-.22.79.79,0,0,0-.39-.08"/><path class="cls-1" d="M66.28,66.55h-.89l-.22.64H64.6l1-2.92h.42l1,2.92h-.6Zm-.74-.46h.62l-.22-.64L65.86,65h0l-.09.46Z"/><path class="cls-1" d="M70.14,67.07a.88.88,0,0,1-.34.13,2,2,0,0,1-.42,0,1.53,1.53,0,0,1-.49-.08,1.06,1.06,0,0,1-.41-.26,1.26,1.26,0,0,1-.28-.47,2.06,2.06,0,0,1-.1-.7A1.89,1.89,0,0,1,68.2,65a1.29,1.29,0,0,1,.31-.46,1.1,1.1,0,0,1,.42-.25,1.48,1.48,0,0,1,.46-.08,2.18,2.18,0,0,1,.42,0,1.49,1.49,0,0,1,.28.08l-.11.48a.82.82,0,0,0-.23-.06l-.32,0a.69.69,0,0,0-.55.25,1.15,1.15,0,0,0-.21.76,1.61,1.61,0,0,0,0,.41.86.86,0,0,0,.15.32.65.65,0,0,0,.25.2.77.77,0,0,0,.35.07,1.13,1.13,0,0,0,.32,0,1,1,0,0,0,.22-.1Z"/><path class="cls-1" d="M70.26,65.74a1.72,1.72,0,0,1,.32-1.12,1.11,1.11,0,0,1,.91-.39,1.27,1.27,0,0,1,.54.11,1.05,1.05,0,0,1,.39.31,1.34,1.34,0,0,1,.23.47,2.45,2.45,0,0,1,.08.62,1.72,1.72,0,0,1-.32,1.12,1.1,1.1,0,0,1-.91.39,1.28,1.28,0,0,1-.55-.11,1,1,0,0,1-.38-.31,1.39,1.39,0,0,1-.23-.48,2.41,2.41,0,0,1-.07-.62m.6,0a2.15,2.15,0,0,0,0,.4,1.09,1.09,0,0,0,.11.32.58.58,0,0,0,.2.2.54.54,0,0,0,.29.08A.54.54,0,0,0,72,66.5a1.38,1.38,0,0,0,.17-.77,2.07,2.07,0,0,0,0-.39A1.13,1.13,0,0,0,72,65a.54.54,0,0,0-.2-.21.52.52,0,0,0-.29-.08A.53.53,0,0,0,71,65a1.37,1.37,0,0,0-.17.76"/><polygon class="cls-1" points="73.85 65.67 73.62 65.22 73.6 65.22 73.66 65.67 73.66 67.19 73.13 67.19 73.13 64.27 73.54 64.27 74.64 65.81 74.86 66.25 74.88 66.25 74.81 65.81 74.81 64.29 75.35 64.29 75.35 67.21 74.94 67.21 73.85 65.67"/><polygon class="cls-1" points="78.73 67.19 76.9 67.19 76.9 64.29 77.46 64.29 77.46 66.68 78.73 66.68 78.73 67.19"/><path class="cls-1" d="M79.95,66.55h-.89l-.22.64h-.57l1-2.92h.42l1,2.92h-.6Zm-.74-.46h.62l-.22-.64L79.52,65h0l-.09.46Z"/><path class="cls-1" d="M83.8,67.07a.89.89,0,0,1-.34.13,2,2,0,0,1-.42,0,1.52,1.52,0,0,1-.49-.08,1.06,1.06,0,0,1-.41-.26,1.28,1.28,0,0,1-.28-.47,2.06,2.06,0,0,1-.11-.7,1.89,1.89,0,0,1,.12-.71,1.28,1.28,0,0,1,.31-.46,1.1,1.1,0,0,1,.42-.25,1.48,1.48,0,0,1,.46-.08,2.18,2.18,0,0,1,.42,0,1.47,1.47,0,0,1,.28.08l-.11.48a.82.82,0,0,0-.23-.06l-.32,0a.7.7,0,0,0-.55.25,1.14,1.14,0,0,0-.21.76,1.61,1.61,0,0,0,0,.41.85.85,0,0,0,.15.32.67.67,0,0,0,.25.2.77.77,0,0,0,.35.07,1.11,1.11,0,0,0,.31,0,1,1,0,0,0,.22-.1Z"/><path class="cls-1" d="M85.4,66.55h-.89l-.22.64h-.57l1-2.92h.42l1,2.92h-.6Zm-.75-.46h.62l-.22-.64L85,65h0l-.09.46Z"/><polygon class="cls-1" points="88.31 67.19 86.48 67.19 86.48 64.29 87.05 64.29 87.05 66.68 88.31 66.68 88.31 67.19"/><rect class="cls-1" x="88.67" y="64.29" width="0.57" height="2.9"/><path class="cls-1" d="M89.79,64.29l.2,0h.65a1.8,1.8,0,0,1,.66.11,1.07,1.07,0,0,1,.44.3,1.2,1.2,0,0,1,.25.46,2.24,2.24,0,0,1,0,1.16,1.28,1.28,0,0,1-.25.48,1.27,1.27,0,0,1-.46.34,1.73,1.73,0,0,1-.7.13H90l-.16,0Zm.89.46h-.32v1.94h.29a.87.87,0,0,0,.4-.09.68.68,0,0,0,.25-.23.9.9,0,0,0,.13-.33,1.77,1.77,0,0,0,0-.38,1.86,1.86,0,0,0,0-.34.86.86,0,0,0-.12-.31.71.71,0,0,0-.24-.22.8.8,0,0,0-.39-.08"/><path class="cls-1" d="M93.78,66.55h-.89l-.22.64h-.57l1-2.92h.42l1,2.92H94ZM93,66.09h.62l-.22-.64L93.36,65h0l-.09.46Z"/><path class="cls-1" d="M94.86,64.29l.2,0h.65a1.79,1.79,0,0,1,.66.11,1.09,1.09,0,0,1,.44.3,1.22,1.22,0,0,1,.25.46,2.16,2.16,0,0,1,.08.6,2.14,2.14,0,0,1-.07.57,1.24,1.24,0,0,1-.25.48,1.28,1.28,0,0,1-.46.34,1.73,1.73,0,0,1-.7.13H95l-.16,0Zm.89.46h-.32v1.94h.29a.87.87,0,0,0,.4-.09.69.69,0,0,0,.25-.23.87.87,0,0,0,.13-.33,1.92,1.92,0,0,0,0-.72.86.86,0,0,0-.12-.31.71.71,0,0,0-.24-.22.8.8,0,0,0-.39-.08"/><path class="cls-1" d="M78.48,1A25.06,25.06,0,1,1,53.41,26.1,25.06,25.06,0,0,1,78.48,1m0-1a26.1,26.1,0,1,0,26.1,26.1A26.13,26.13,0,0,0,78.48,0"/><path class="cls-1" d="M82.61,8a.77.77,0,0,1-.32.05,1.93,1.93,0,0,1-.38,0,1.29,1.29,0,0,1-.42-.17.94.94,0,0,1-.31-.31A1.18,1.18,0,0,1,81,7.09a1.87,1.87,0,0,1,0-.64,1.68,1.68,0,0,1,.25-.6,1.1,1.1,0,0,1,.36-.35,1,1,0,0,1,.42-.14,1.38,1.38,0,0,1,.42,0,2.3,2.3,0,0,1,.36.11l.24.12-.19.4a.73.73,0,0,0-.18-.1l-.28-.08a.64.64,0,0,0-.53.11,1,1,0,0,0-.33.63,1.46,1.46,0,0,0,0,.37.77.77,0,0,0,.07.31.6.6,0,0,0,.18.23.69.69,0,0,0,.29.13,1,1,0,0,0,.28,0l.22,0Z"/><polygon class="cls-1" points="83.7 5.74 85.17 6.24 85.03 6.67 84.04 6.34 83.85 6.92 84.75 7.22 84.6 7.65 83.71 7.35 83.5 7.96 84.51 8.29 84.36 8.72 82.87 8.22 83.7 5.74"/><path class="cls-1" d="M85.77,6.49l.18.05.19.06.18.07.16.07a1.83,1.83,0,0,1,.32.18,1,1,0,0,1,.24.24.61.61,0,0,1,.11.3.71.71,0,0,1-.07.36.89.89,0,0,1-.35.41.75.75,0,0,1-.48.09l.12.18.13,1.16-.54-.25-.11-1.18-.22-.16-.45,1-.46-.21Zm.55.68-.14-.06-.11,0-.32.69.2.09a.55.55,0,0,0,.35.05.38.38,0,0,0,.25-.24.34.34,0,0,0,0-.28.44.44,0,0,0-.24-.21"/><polygon class="cls-1" points="89.24 8.8 88.59 8.41 87.49 10.27 87.05 10.01 88.14 8.15 87.49 7.76 87.72 7.37 89.47 8.4 89.24 8.8"/><polygon class="cls-1" points="89.88 8.7 90.3 9 88.8 11.13 88.38 10.84 89.88 8.7"/><polygon class="cls-1" points="90.85 9.39 92.05 10.38 91.76 10.73 90.95 10.07 90.55 10.57 91.29 11.18 91 11.53 90.26 10.92 89.59 11.74 89.19 11.41 90.85 9.39"/><rect class="cls-1" x="90.44" y="11.64" width="2.61" height="0.51" transform="translate(19.93 70.22) rotate(-46.47)"/><path class="cls-1" d="M92.65,14.6a.74.74,0,0,1-.29-.14,1.74,1.74,0,0,1-.28-.26,1.36,1.36,0,0,1-.25-.38,1,1,0,0,1-.07-.43,1.17,1.17,0,0,1,.14-.47,1.85,1.85,0,0,1,.4-.49,1.71,1.71,0,0,1,.55-.35,1.2,1.2,0,0,1,.5-.07,1,1,0,0,1,.42.13,1.4,1.4,0,0,1,.33.27,2,2,0,0,1,.23.3,1.5,1.5,0,0,1,.12.24l-.39.21A.64.64,0,0,0,94,13a1.91,1.91,0,0,0-.18-.23.62.62,0,0,0-.5-.22,1,1,0,0,0-.63.32,1.29,1.29,0,0,0-.25.28.8.8,0,0,0-.12.29.62.62,0,0,0,0,.29.68.68,0,0,0,.16.28.94.94,0,0,0,.21.19l.2.09Z"/><path class="cls-1" d="M93.88,15.47l-.47-.65-.58.18-.3-.41,2.68-.79.22.3-1.57,2.31L93.53,16Zm-.06-.79.33.45.36-.5.29-.3v0l-.38.18Z"/><path class="cls-1" d="M94.87,18a.77.77,0,0,1-.26-.2,2,2,0,0,1-.22-.31,1.39,1.39,0,0,1-.16-.42,1,1,0,0,1,0-.44,1.18,1.18,0,0,1,.24-.43,1.88,1.88,0,0,1,.5-.4,1.7,1.7,0,0,1,.61-.23,1.14,1.14,0,0,1,.5,0,1,1,0,0,1,.39.21,1.32,1.32,0,0,1,.27.33,2,2,0,0,1,.16.34,1.35,1.35,0,0,1,.07.26l-.42.13a.75.75,0,0,0-.05-.21,2.2,2.2,0,0,0-.13-.26.62.62,0,0,0-.44-.32,1,1,0,0,0-.69.18,1.51,1.51,0,0,0-.3.22.81.81,0,0,0-.18.26.66.66,0,0,0,0,.29.73.73,0,0,0,.1.3,1,1,0,0,0,.17.23.82.82,0,0,0,.17.13Z"/><rect class="cls-1" x="94.9" y="17.77" width="2.61" height="0.51" transform="translate(1.74 43.64) rotate(-25.78)"/><path class="cls-1" d="M96.55,18.71a1.55,1.55,0,0,1,1-.08,1,1,0,0,1,.62.65,1.16,1.16,0,0,1,.08.49,1,1,0,0,1-.14.42,1.21,1.21,0,0,1-.33.34,2.16,2.16,0,0,1-.5.26,1.55,1.55,0,0,1-1,.08,1,1,0,0,1-.62-.65,1.13,1.13,0,0,1-.08-.49.9.9,0,0,1,.14-.42,1.23,1.23,0,0,1,.33-.34,2.07,2.07,0,0,1,.5-.26m.19.5a1.75,1.75,0,0,0-.33.16,1,1,0,0,0-.23.2.51.51,0,0,0-.11.23.52.52,0,0,0,.37.59,1.23,1.23,0,0,0,.7-.1,1.63,1.63,0,0,0,.32-.15,1,1,0,0,0,.24-.19.53.53,0,0,0,.12-.23.48.48,0,0,0,0-.27.48.48,0,0,0-.35-.32,1.22,1.22,0,0,0-.69.1m2.06,0,.21.56-.1,0-.52-.45L98.25,19Z"/><polygon class="cls-1" points="97.67 21.9 98.02 21.6 98.02 21.58 97.63 21.74 96.3 22.05 96.19 21.57 98.76 20.98 98.84 21.34 97.71 22.62 97.37 22.9 97.37 22.92 97.75 22.77 99.09 22.46 99.2 22.93 96.63 23.53 96.55 23.17 97.67 21.9"/><path class="cls-1" d="M10.81,1.26H0V51.08H12.54V1.26ZM11.5,3V50H1V2.29H11.5Z"/><rect class="cls-1" x="1.73" y="2.98" width="9.08" height="46.37"/><path class="cls-1" d="M48.68,28.79a16.54,16.54,0,0,0-4.37-4.66,29.48,29.48,0,0,0-5.41-3.06c-1.81-.78-3.51-1.55-5.05-2.29a16.47,16.47,0,0,1-3.53-2.21,2.44,2.44,0,0,1-1-2,2.28,2.28,0,0,1,1-2,6.51,6.51,0,0,1,3.84-.92,23.38,23.38,0,0,1,5.86.71,14.6,14.6,0,0,1,3.88,1.47L45.72,15l.75-2,2.85-7.62L49.84,4l-1.28-.73a21.19,21.19,0,0,0-6.42-2.21A41.72,41.72,0,0,0,34.19.32a25.61,25.61,0,0,0-6.82.86,15.65,15.65,0,0,0-5.54,2.76,12.75,12.75,0,0,0-3.71,4.78,15.85,15.85,0,0,0-1.28,6.58,13.8,13.8,0,0,0,1.81,7.33A16.48,16.48,0,0,0,23,27.34a28.2,28.2,0,0,0,5.45,3c1.88.8,3.53,1.53,5,2.23A15.74,15.74,0,0,1,37,34.77,2.62,2.62,0,0,1,38,36.9a2.85,2.85,0,0,1-1.34,2.68,10.16,10.16,0,0,1-5.27,1.09,18.82,18.82,0,0,1-3.07-.24,27,27,0,0,1-2.91-.62,23.34,23.34,0,0,1-2.43-.8,17.09,17.09,0,0,1-1.7-.77l-1.74-.95-.7,1.86L15.88,46.9l-.54,1.44,1.37.71a28.25,28.25,0,0,0,6,2,38.76,38.76,0,0,0,9.16,1,28,28,0,0,0,7.37-.93,16.38,16.38,0,0,0,6-3A14,14,0,0,0,49.11,43a17.06,17.06,0,0,0,1.38-7.11,13.23,13.23,0,0,0-1.81-7.11m-.5,13.79a13,13,0,0,1-3.64,4.73,15.45,15.45,0,0,1-5.62,2.78,27,27,0,0,1-7.1.89,37.64,37.64,0,0,1-8.91-1,27.61,27.61,0,0,1-5.72-1.91l-.55-.28.22-.58,2.92-7.75.28-.74.7.38a18,18,0,0,0,1.81.82,23.7,23.7,0,0,0,2.54.83,28,28,0,0,0,3,.65,20.23,20.23,0,0,0,3.24.25,11.09,11.09,0,0,0,5.82-1.25A3.87,3.87,0,0,0,39,36.9,3.63,3.63,0,0,0,37.69,34a16.79,16.79,0,0,0-3.75-2.32c-1.52-.71-3.18-1.44-5.08-2.24a27.12,27.12,0,0,1-5.24-2.92,15.45,15.45,0,0,1-4.09-4.41,12.79,12.79,0,0,1-1.65-6.79,14.85,14.85,0,0,1,1.19-6.15,11.7,11.7,0,0,1,3.41-4.4,14.6,14.6,0,0,1,5.18-2.58,24.57,24.57,0,0,1,6.55-.82,40.6,40.6,0,0,1,7.75.71A20.15,20.15,0,0,1,48,4.17l.51.29L48.35,5,45.5,12.63l-.3.8L44.49,13a15.44,15.44,0,0,0-4.17-1.6,24.37,24.37,0,0,0-6.12-.74,7.47,7.47,0,0,0-4.46,1.12,3.32,3.32,0,0,0-1.41,2.82,3.49,3.49,0,0,0,1.32,2.79,17.24,17.24,0,0,0,3.75,2.35c1.56.75,3.27,1.52,5.09,2.31a28.28,28.28,0,0,1,5.22,3,15.51,15.51,0,0,1,4.09,4.37,12.22,12.22,0,0,1,1.66,6.56,16.06,16.06,0,0,1-1.28,6.68"/><path class="cls-1" d="M39.67,36.9a4.32,4.32,0,0,0-1.55-3.45A17.36,17.36,0,0,0,34.21,31q-2.35-1.09-5.1-2.25A26.13,26.13,0,0,1,24,25.94a14.72,14.72,0,0,1-3.91-4.21,12.06,12.06,0,0,1-1.55-6.43,14.1,14.1,0,0,1,1.12-5.86A11,11,0,0,1,22.88,5.3a13.84,13.84,0,0,1,4.93-2.45,23.7,23.7,0,0,1,6.36-.79,39.9,39.9,0,0,1,7.62.7,19.39,19.39,0,0,1,5.9,2l-2.85,7.61a16.07,16.07,0,0,0-4.37-1.69,25,25,0,0,0-6.29-.76,8.09,8.09,0,0,0-4.87,1.26,4,4,0,0,0-1.69,3.38,4.18,4.18,0,0,0,1.56,3.32,18,18,0,0,0,3.9,2.45c1.57.75,3.27,1.52,5.11,2.32a27.71,27.71,0,0,1,5.1,2.88,14.76,14.76,0,0,1,3.91,4.17,11.47,11.47,0,0,1,1.55,6.2,15.32,15.32,0,0,1-1.22,6.39,12.22,12.22,0,0,1-3.44,4.47,14.63,14.63,0,0,1-5.37,2.65,26.25,26.25,0,0,1-6.92.86A36.82,36.82,0,0,1,23,49.35a26.84,26.84,0,0,1-5.57-1.85l2.92-7.75a18.21,18.21,0,0,0,1.89.86,24.22,24.22,0,0,0,2.62.86,28.72,28.72,0,0,0,3.08.66,20.35,20.35,0,0,0,3.35.27A11.68,11.68,0,0,0,37.52,41a4.56,4.56,0,0,0,2.15-4.14"/><polygon class="cls-1" points="84.53 19.38 87.22 22.07 76.46 32.83 69.73 26.1 72.42 23.41 76.46 27.45 84.53 19.38"/><path class="cls-3" d="M12,56.65h0l.14-.09a.29.29,0,0,1,.38.15l.14.22a.73.73,0,0,0-.38,0l-.22,0s-.14,0-.18.06a0,0,0,0,0,0,0,.13.13,0,0,0,.08.05h0l.13,0a.71.71,0,0,0,.34.52.52.52,0,0,0,.4.06.49.49,0,0,0,.52.17h0a.21.21,0,0,0,.1-.16c0-.09-.05-.23-.06-.11a.23.23,0,0,1-.15.2h0c-.18,0-.17-.2-.22-.33a1,1,0,0,0-.08-.17c0-.07-.06-.15-.09-.22a1.25,1.25,0,0,0-.39-.54.64.64,0,0,0-.66.13h0a.24.24,0,0,0-.08.12c0,.06.16-.06.23-.11m.76.46a2.29,2.29,0,0,1,.14.39,2.28,2.28,0,0,0-.25-.25,1.05,1.05,0,0,0-.35-.19s-.09,0,0,0l-.07,0-.06,0,.06,0a1,1,0,0,1,.29,0,.34.34,0,0,1,.27.16M15.28,67c-.25-.3-.67-.5-.83-.86A1.76,1.76,0,0,1,14.54,65c0-.19-.09-.7-.34-.68h0a10.13,10.13,0,0,1-2,.37l-.58,0h0a8.57,8.57,0,0,1-3-.39c-.08,0-.1,0-.1,0a1.08,1.08,0,0,0-.22.54,4.75,4.75,0,0,0,.16.84.86.86,0,0,1-.37.83,3.51,3.51,0,0,0-.59.6,1,1,0,0,0,.12,1.31.35.35,0,0,1-.17.15.13.13,0,0,0-.07.11v.63a.12.12,0,0,0,0,.09s1.14,1,4.07,1h.06c2.93,0,3.89-1,3.92-1a.13.13,0,0,0,0-.09v-.63a.12.12,0,0,0-.07-.11.32.32,0,0,1-.21-.26,1.29,1.29,0,0,0,.29-.48.94.94,0,0,0-.24-.91m0,2.34c-.19.16-1.2.9-3.74.9a6.63,6.63,0,0,1-3.89-.91V69c.37.3,1.42.9,3.83.9s3.45-.57,3.8-.88Zm0-.52c-.26.25-1.18.92-3.79.92S8,69.07,7.67,68.82a.56.56,0,0,0,.17-.17,4.78,4.78,0,0,0,2.12.63A10.23,10.23,0,0,0,14,69a3,3,0,0,0,1-.46.54.54,0,0,0,.23.25m-.13-.62c.05-.08,0,0,0,0a1.62,1.62,0,0,1-.48.31,4.94,4.94,0,0,1-1.26.37,10.24,10.24,0,0,1-2.32.16,6.54,6.54,0,0,1-2.95-.63,1.21,1.21,0,0,1-.22-.16l0,0a.68.68,0,0,1-.13-.94c.33-.44.83-.63,1-1.2a1.6,1.6,0,0,0,0-.75c-.05-.25-.14-.42,0-.64,0,0,0,0,.06,0a5.5,5.5,0,0,0,1,.27,4.83,4.83,0,0,0,0,1c.05.57-.56.85-.64.93s.07.07.07.07a1.2,1.2,0,0,0,.77-1.15A2.46,2.46,0,0,1,10,65a8.77,8.77,0,0,0,1.84,0,10.7,10.7,0,0,0,2.2-.39c.09,0,.18.21.2.28s0,.29-.07.42a1.91,1.91,0,0,0-.06.81c.11.59.71.82,1,1.28.2.29.11.5-.06.78M8.49,63.88c.15.21.57.27.81.34a7.24,7.24,0,0,0,2.37.21,11.41,11.41,0,0,0,2-.3l.39-.1c.2-.06.31-.4.37-.57a2.15,2.15,0,0,0-.17-1.57,3.12,3.12,0,0,0-.22-.4,3.36,3.36,0,0,0-.64-.55l-.54-.46A.94.94,0,0,0,13,60.2c.28-.15.16-.36.49-.28s.3.39.4.39a4.81,4.81,0,0,0,1-.24.51.51,0,0,0,.19-.38c0-.12.31-.19.43-.35a.19.19,0,0,0,0-.14.7.7,0,0,0-.27-.57,7.28,7.28,0,0,1-.73-.65,1.61,1.61,0,0,1-.32-.89,1,1,0,0,0-.29-.57,2.69,2.69,0,0,0,.53-.28c.29-.18.77-.59.68-1a.71.71,0,0,0-.41-.43,1,1,0,0,0-.6-.16.23.23,0,0,0-.15.18v0A.11.11,0,0,0,14,55c.11.09.26.15.38.23s0,.29-.22.35a4,4,0,0,1-1,.17h0a1.2,1.2,0,0,0-.54-.38,1.53,1.53,0,0,0-1.43.26,4.07,4.07,0,0,1-.81-.66c-.13-.13-.34-.32-.2-.52a.56.56,0,0,1,.25-.16c.23-.1.47-.17.71-.26s.26-.1.29-.26a.11.11,0,0,0,0-.12c-.14-.1-.46,0-.62,0a4.33,4.33,0,0,0-1,.24,1.45,1.45,0,0,0-.7.52.93.93,0,0,0,0,.88,3.07,3.07,0,0,0,.69,1A5.07,5.07,0,0,0,9,57a5.33,5.33,0,0,0-1.3,2.35,5.47,5.47,0,0,0,.49,4,4.45,4.45,0,0,0,.35.52m6-8.17a.56.56,0,0,0,.26-.44l.06.05c.26.26-.25.59-.43.71a1.74,1.74,0,0,1-.66.29L13.46,56a2.3,2.3,0,0,0,1-.32m-5.23-.83c-.13-.49.53-.67.89-.76l.19,0a.91.91,0,0,0-.31.26.59.59,0,0,0,0,.77,3.75,3.75,0,0,0,1.11.9h0c.09,0,.19.12.15.23a.37.37,0,0,1-.21.21,4.1,4.1,0,0,1-1.62-1.37s0,0,.05.2a4.41,4.41,0,0,0,1.25,1.26.94.94,0,0,1-.56-.26,2.82,2.82,0,0,1-1-1.41m-1,3.45a4.2,4.2,0,0,1,1.52-1.71l.21-.13a1.28,1.28,0,0,0,.67.37,1,1,0,0,0,.88-.54.42.42,0,0,0-.11-.55,1.43,1.43,0,0,1,.72-.15.94.94,0,0,1,.68.25,5.67,5.67,0,0,0,.55.56c.17.18.34.34.49.54a1.3,1.3,0,0,1,.15.6,1.52,1.52,0,0,0,.26.63,2.75,2.75,0,0,0,.51.51c.17.14.49.31.51.56a.25.25,0,0,1-.11.16.57.57,0,0,1-.41,0c-.17-.07-.17-.38-.31-.4s-.2.16-.22.25.34.18.41.23.05.24,0,.29-.47.28-.62.22-.11-.21-.35-.37-.42,0-.63.07a4.15,4.15,0,0,1-1,.25,2,2,0,0,1-1.24-.62,1.21,1.21,0,0,1-.11-1,3.91,3.91,0,0,0,.12-.57.66.66,0,0,0,.07-.22c-.13,0-.5.3-.75.28a1.19,1.19,0,0,1-.56-.33l.22-.06a1.23,1.23,0,0,0,.48-.34c.18-.16.69,0,.69,0s.06,0,0-.06a1.36,1.36,0,0,0-.49-.12c-.32,0-.25.12-.5.3s-.58.16-.59.28.41.47.67.52.63-.28.7-.21a2.38,2.38,0,0,0-.26,1.34c.11.65.58.69,1,.88a2.16,2.16,0,0,0,1.27.29.5.5,0,0,1-.07.14.31.31,0,0,0-.05.1,4.15,4.15,0,0,1-.9.68s-.08.13.13.06a3.7,3.7,0,0,0,.87-.55l.35.31.41.35.27.21a1.38,1.38,0,0,0-.64.67,3,3,0,0,0-.31,1.34l.31-.06a3,3,0,0,1,.24-1.34,1.65,1.65,0,0,1,.48-.53l0,0A2.55,2.55,0,0,1,14.31,63a1.41,1.41,0,0,1-.08.51c0,.06-.06.21-.1.23l-.53.13a11.09,11.09,0,0,1-2.28.28c-.27,0-.55,0-.82,0A5.87,5.87,0,0,1,8.26,60.6c0-.1,0-.16-.06-.14s0,.2,0,.2A5.43,5.43,0,0,0,9.9,64a5.38,5.38,0,0,1-1-.29c-.21-.08-.29-.24-.42-.42A4.17,4.17,0,0,1,8,62.19a5,5,0,0,1,.3-3.87"/><path class="cls-1" d="M102.65,26.17A24.17,24.17,0,1,1,78.48,1.93v9.39A14.78,14.78,0,1,0,93.25,26.17ZM68,42.48a1,1,0,0,0,.06.39,1,1,0,0,0,.2.31,1.1,1.1,0,0,0,.29.22,1,1,0,0,0,.33.12.63.63,0,0,0,.29,0,1.38,1.38,0,0,1-.29.28,1.23,1.23,0,0,1-.36.17,1.37,1.37,0,0,1-.42.05,1.62,1.62,0,0,1-.47-.1l-.1.49a1.94,1.94,0,0,0,.66.14,1.67,1.67,0,0,0,.67-.12,2,2,0,0,0,.64-.43,2.88,2.88,0,0,0,.56-.78,1.28,1.28,0,0,0,.15-1,1.11,1.11,0,0,0-.6-.67,1.2,1.2,0,0,0-.45-.14,1,1,0,0,0-.41,0,1,1,0,0,0-.35.21,1.38,1.38,0,0,0-.27.36,1.05,1.05,0,0,0-.13.44M69,42a.45.45,0,0,1,.39,0,.51.51,0,0,1,.2.17.51.51,0,0,1,.08.22.74.74,0,0,1,0,.25,1.1,1.1,0,0,1-.09.25l-.1.16a.52.52,0,0,1-.24.05.73.73,0,0,1-.31-.09.53.53,0,0,1-.28-.29.52.52,0,0,1,0-.43A.62.62,0,0,1,69,42M70,45.07a1,1,0,0,0,.67.72,1,1,0,0,0,1-.11,2.27,2.27,0,0,0,.72-1.12,2.39,2.39,0,0,0,.18-1.32,1,1,0,0,0-.68-.69,1,1,0,0,0-1,.11,2.27,2.27,0,0,0-.72,1.12,2.43,2.43,0,0,0-.17,1.3m1.17-1.9A.42.42,0,0,1,71.7,43a.43.43,0,0,1,.29.44,2.5,2.5,0,0,1-.18.87,2.39,2.39,0,0,1-.43.82.43.43,0,0,1-.77-.3A2.55,2.55,0,0,1,70.8,44a2.47,2.47,0,0,1,.42-.81M72.72,46a.94.94,0,0,0,.75.63,1,1,0,0,0,.93-.23A2.25,2.25,0,0,0,75,45.15a2.36,2.36,0,0,0,0-1.33,1,1,0,0,0-.76-.6,1,1,0,0,0-.93.23,2.28,2.28,0,0,0-.57,1.2,2.42,2.42,0,0,0,0,1.31m.92-2a.42.42,0,0,1,.46-.2.43.43,0,0,1,.35.4,2.54,2.54,0,0,1-.07.89,2.42,2.42,0,0,1-.32.87.43.43,0,0,1-.8-.2,2.53,2.53,0,0,1,.07-.9,2.47,2.47,0,0,1,.32-.86m1.82,3,1.88.17,0-.52-.64-.06L77,43.64l-.35,0-1.15.77.23.38.45-.25.25-.25-.1.31-.17,1.86-.66-.06Zm2.88-1.58a.38.38,0,0,0,.27.1.4.4,0,0,0,.29-.1A.36.36,0,0,0,79,45a.34.34,0,0,0-.1-.26.39.39,0,0,0-.28-.1.38.38,0,0,0-.28.1.34.34,0,0,0-.1.26.35.35,0,0,0,.1.27m0,1.71a.37.37,0,0,0,.27.1.39.39,0,0,0,.28-.1.35.35,0,0,0,.11-.27.34.34,0,0,0-.11-.26.41.41,0,0,0-.28-.1.39.39,0,0,0-.28.1.39.39,0,0,0,0,.53m2.77-3a.72.72,0,0,0-.22-.25.73.73,0,0,0-.31-.14,1.09,1.09,0,0,0-.38,0,1.44,1.44,0,0,0-.94.42l.29.41a.85.85,0,0,1,.25-.19.82.82,0,0,1,.3-.09.47.47,0,0,1,.36.09.49.49,0,0,1,.14.31,1.06,1.06,0,0,1,0,.35,2.1,2.1,0,0,1-.14.38,3.83,3.83,0,0,1-.21.41l-.25.39-.25.36-.23.3,0,.31,2-.18,0-.52-.9.08-.33.1v0l.23-.22c.09-.13.19-.28.28-.43a4.9,4.9,0,0,0,.26-.48,3,3,0,0,0,.18-.5,1.44,1.44,0,0,0,0-.49,1,1,0,0,0-.1-.37m1.32,2.32a1,1,0,0,0,.95.25,1,1,0,0,0,.75-.6,2.27,2.27,0,0,0,0-1.34,2.41,2.41,0,0,0-.55-1.21,1.11,1.11,0,0,0-1.69.38,2.28,2.28,0,0,0,0,1.33,2.41,2.41,0,0,0,.55,1.19m0-2.23a.43.43,0,0,1,.34-.37.43.43,0,0,1,.48.21,2.55,2.55,0,0,1,.31.84,2.39,2.39,0,0,1,.07.93.43.43,0,0,1-.34.37.43.43,0,0,1-.47-.22,2.54,2.54,0,0,1-.31-.85,2.45,2.45,0,0,1-.07-.91m2.76,1.56a1,1,0,0,0,1,.12,1,1,0,0,0,.66-.69,2.28,2.28,0,0,0-.16-1.33,2.4,2.4,0,0,0-.7-1.13,1.1,1.1,0,0,0-1.63.59,2.25,2.25,0,0,0,.15,1.32,2.45,2.45,0,0,0,.7,1.11m-.3-2.21a.42.42,0,0,1,.29-.41.43.43,0,0,1,.5.15,2.48,2.48,0,0,1,.41.79,2.39,2.39,0,0,1,.19.91.43.43,0,0,1-.29.41.42.42,0,0,1-.5-.16,3.3,3.3,0,0,1-.61-1.69m2.8,1.19a.74.74,0,0,0,.31.15,1,1,0,0,0,.37,0,1.39,1.39,0,0,0,.41-.14,1.31,1.31,0,0,0,.36-.26,1,1,0,0,0,.22-.33.81.81,0,0,0,.06-.36.92.92,0,0,0-.11-.38.83.83,0,0,0-.36-.39,1.38,1.38,0,0,0-.55-.13,1.34,1.34,0,0,0,.17-.48.88.88,0,0,0-.11-.48.79.79,0,0,0-.21-.26.73.73,0,0,0-.29-.14.9.9,0,0,0-.34,0,1.36,1.36,0,0,0-.37.13,1.28,1.28,0,0,0-.34.25,1,1,0,0,0-.2.31.77.77,0,0,0,0,.34.85.85,0,0,0,.09.34.82.82,0,0,0,.34.37,1.29,1.29,0,0,0,.48.14,1.7,1.7,0,0,0-.13.24,1,1,0,0,0-.08.26.86.86,0,0,0,0,.27.91.91,0,0,0,.1.28.84.84,0,0,0,.23.29m-.43-2.36a.38.38,0,0,1,.22-.23.4.4,0,0,1,.3,0,.39.39,0,0,1,.24.22.69.69,0,0,1,0,.6h-.21l-.2,0a.47.47,0,0,1-.17-.08.43.43,0,0,1-.13-.16.37.37,0,0,1,0-.27m1.56,1.67a.53.53,0,0,1-.26.25.48.48,0,0,1-.39,0,.46.46,0,0,1-.26-.23.61.61,0,0,1-.06-.3.8.8,0,0,1,.15-.38h.24l.22,0a.65.65,0,0,1,.2.08.4.4,0,0,1,.14.15.37.37,0,0,1,0,.34"/></g></g></svg>