<svg xmlns="http://www.w3.org/2000/svg" viewBox="0 0 172.24 67.88"><defs><style>.cls-1{fill:#a7a7a7;}</style></defs><title>logoESR</title><g id="Capa_2" data-name="Capa 2"><g id="Capa_1-2" data-name="Capa 1"><path class="cls-1" d="M40.89,47.22l9.6,1.38C44.94,52.11,33,57.07,23.55,53.75,13.22,50.12,13.05,38,22.5,24S52.91,3.41,63.17,3.77,85.74,6.25,86.23,22.85c0,0,3.56-23-26.66-22.85C28.09.12-3.12,31.52,4.36,50.65c6.2,15.83,41.08,12.25,57.72-9.42Z"/><path class="cls-1" d="M45.48,20.66l-9.6-1.38c5.54-3.51,17.48-8.47,26.93-5.15,10.33,3.63,10.5,15.76,1.05,29.75S33.45,64.47,23.19,64.1.62,61.63.13,45c0,0-3.56,23,26.66,22.85C58.27,67.76,89.49,36.36,82,17.22,75.81,1.39,40.92,5,24.29,26.64Z"/><polygon class="cls-1" points="29.86 28.33 35.93 28.33 35.63 30.32 31.88 30.32 31.51 32.79 35.07 32.79 34.75 34.8 31.21 34.8 30.79 37.55 34.43 37.55 34.13 39.54 28.16 39.54 29.86 28.33"/><path class="cls-1" d="M45.35,29.52,44.1,31.15A11.73,11.73,0,0,0,43,30.47a1.73,1.73,0,0,0-.84-.23,1.48,1.48,0,0,0-1,.37,1.22,1.22,0,0,0-.41.94,1.13,1.13,0,0,0,.44.88,6.42,6.42,0,0,0,1.51.84,9.38,9.38,0,0,1,1.17.82,3,3,0,0,1,.87,2.1,3.26,3.26,0,0,1-1.09,2.47,3.7,3.7,0,0,1-2.63,1,5.48,5.48,0,0,1-3.57-1.45l1.32-1.62,1,.68a2.07,2.07,0,0,0,1.14.37,1.49,1.49,0,0,0,1-.4,1.29,1.29,0,0,0,.44-1,1.2,1.2,0,0,0-.43-.91,4.54,4.54,0,0,0-1.29-.75A6.17,6.17,0,0,1,39.44,34a3.15,3.15,0,0,1-.73-.87,2.79,2.79,0,0,1-.36-1.47,3.2,3.2,0,0,1,1.09-2.48,4,4,0,0,1,2.75-1,4.62,4.62,0,0,1,3.15,1.34"/><path class="cls-1" d="M49.51,28.33h2.12a5.19,5.19,0,0,1,3.24.87A3,3,0,0,1,56,31.71,4.25,4.25,0,0,1,55.38,34a3,3,0,0,1-2,1.31l2.18,4.25H53.19l-2.08-4.05h-.35l-.6,4.05H47.84Zm2,2-.47,3.17.47,0A2.31,2.31,0,0,0,53,33a1.47,1.47,0,0,0,.61-1.19,1.28,1.28,0,0,0-.51-1.15,2.9,2.9,0,0,0-1.59-.36"/><polygon class="cls-1" points="90.35 16.16 95.41 16.16 95.16 17.81 92.04 17.81 91.73 19.87 94.69 19.87 94.43 21.54 91.47 21.54 91.13 23.84 94.16 23.84 93.91 25.5 88.94 25.5 90.35 16.16"/><polygon class="cls-1" points="97.7 16.16 99.48 16.16 100.44 21.41 103.08 16.16 104.87 16.16 104.87 25.5 103.14 25.5 103.14 19.92 100.29 25.5 99.4 25.5 98.35 19.68 96.37 25.5 94.54 25.5 97.7 16.16"/><path class="cls-1" d="M107.13,16.16h1.94q3.51,0,3.51,3a3.09,3.09,0,0,1-.35,1.44,2.62,2.62,0,0,1-.88,1,2.77,2.77,0,0,1-1.1.43,17.34,17.34,0,0,1-2,.1l-.5,3.39h-1.93Zm1.72,1.65-.4,2.62H109a1.69,1.69,0,0,0,1.16-.41,1.29,1.29,0,0,0,.47-1,1.11,1.11,0,0,0-.39-.86,1.36,1.36,0,0,0-.95-.35Z"/><path class="cls-1" d="M114.48,16.16h1.77a4.33,4.33,0,0,1,2.7.72,2.49,2.49,0,0,1,.93,2.09,3.55,3.55,0,0,1-.5,1.89A2.52,2.52,0,0,1,117.68,22l1.82,3.54h-2l-1.73-3.38h-.29L115,25.5h-1.93Zm1.68,1.65-.39,2.64h.39a1.91,1.91,0,0,0,1.24-.41,1.22,1.22,0,0,0,.51-1,1.07,1.07,0,0,0-.43-1,2.42,2.42,0,0,0-1.33-.3"/><polygon class="cls-1" points="122.06 16.16 127.12 16.16 126.87 17.81 123.75 17.81 123.44 19.87 126.4 19.87 126.14 21.54 123.19 21.54 122.84 23.84 125.87 23.84 125.62 25.5 120.65 25.5 122.06 16.16"/><path class="cls-1" d="M133.07,17.15l-1,1.36a9.83,9.83,0,0,0-.88-.57,1.46,1.46,0,0,0-.7-.19,1.24,1.24,0,0,0-.87.31,1,1,0,0,0-.34.79.94.94,0,0,0,.37.73,5.35,5.35,0,0,0,1.26.7,7.68,7.68,0,0,1,1,.69,2.49,2.49,0,0,1,.73,1.75,2.71,2.71,0,0,1-.91,2.06,3.08,3.08,0,0,1-2.19.85,4.57,4.57,0,0,1-3-1.21l1.1-1.35.85.57a1.75,1.75,0,0,0,.95.31,1.24,1.24,0,0,0,.88-.34,1.07,1.07,0,0,0,.36-.81,1,1,0,0,0-.36-.76,3.79,3.79,0,0,0-1.08-.62,5.12,5.12,0,0,1-1-.53,2.6,2.6,0,0,1-.61-.72,2.33,2.33,0,0,1-.3-1.22,2.66,2.66,0,0,1,.91-2.06,3.29,3.29,0,0,1,2.29-.82,3.86,3.86,0,0,1,2.63,1.12"/><path class="cls-1" d="M137.72,16.16h1.34l2.38,9.34h-1.81l-.47-1.88H135.7l-1,1.88h-2Zm.34,3.07L136.57,22h2.17Z"/><path class="cls-1" d="M90.32,42.38h1.77a4.32,4.32,0,0,1,2.7.72,2.48,2.48,0,0,1,.93,2.09,3.54,3.54,0,0,1-.5,1.89,2.51,2.51,0,0,1-1.69,1.09l1.82,3.54h-2l-1.73-3.38h-.29l-.5,3.38H88.94ZM92,44l-.39,2.64.39,0a1.93,1.93,0,0,0,1.24-.41,1.23,1.23,0,0,0,.51-1,1.07,1.07,0,0,0-.43-1A2.42,2.42,0,0,0,92,44"/><polygon class="cls-1" points="97.91 42.38 102.96 42.38 102.71 44.03 99.59 44.03 99.28 46.09 102.24 46.09 101.98 47.76 99.03 47.76 98.68 50.06 101.71 50.06 101.46 51.72 96.49 51.72 97.91 42.38"/><path class="cls-1" d="M108.92,43.37l-1,1.36a9.28,9.28,0,0,0-.89-.57,1.44,1.44,0,0,0-.7-.19,1.24,1.24,0,0,0-.87.31,1,1,0,0,0-.34.79.93.93,0,0,0,.37.73,5.28,5.28,0,0,0,1.25.7,7.69,7.69,0,0,1,1,.69,2.5,2.5,0,0,1,.73,1.75A2.72,2.72,0,0,1,107.5,51a3.09,3.09,0,0,1-2.2.85,4.56,4.56,0,0,1-3-1.21l1.1-1.35.85.56a1.71,1.71,0,0,0,.95.31,1.25,1.25,0,0,0,.87-.34,1.07,1.07,0,0,0,.36-.81,1,1,0,0,0-.36-.76,3.79,3.79,0,0,0-1.08-.63,5,5,0,0,1-1-.53,2.55,2.55,0,0,1-.61-.72,2.33,2.33,0,0,1-.3-1.23,2.65,2.65,0,0,1,.91-2.06,3.29,3.29,0,0,1,2.29-.82,3.85,3.85,0,0,1,2.62,1.12"/><path class="cls-1" d="M110.12,42.38h1.94q3.51,0,3.51,3a3.09,3.09,0,0,1-.35,1.45,2.61,2.61,0,0,1-.88,1,2.8,2.8,0,0,1-1.1.43,17,17,0,0,1-2,.1l-.5,3.39h-1.93ZM111.83,44l-.4,2.62H112a1.68,1.68,0,0,0,1.16-.41,1.29,1.29,0,0,0,.46-1,1.11,1.11,0,0,0-.38-.86,1.37,1.37,0,0,0-1-.35Z"/><path class="cls-1" d="M121.53,42.24a4.32,4.32,0,0,1,3.29,1.22A4.71,4.71,0,0,1,126,46.84a4.79,4.79,0,0,1-1.44,3.63,5.18,5.18,0,0,1-3.76,1.38,4.3,4.3,0,0,1-3.24-1.24,4.65,4.65,0,0,1-1.18-3.36,4.83,4.83,0,0,1,1.45-3.58,5.11,5.11,0,0,1,3.74-1.43M124,46.87a3.05,3.05,0,0,0-.74-2.14,2.51,2.51,0,0,0-2-.82,2.87,2.87,0,0,0-2.16,1,3.3,3.3,0,0,0-.91,2.33,3.06,3.06,0,0,0,.75,2.12,2.47,2.47,0,0,0,1.92.83,2.9,2.9,0,0,0,2.19-1,3.3,3.3,0,0,0,.92-2.33"/><polygon class="cls-1" points="128.07 42.38 130.05 42.38 133.03 48.63 133.95 42.38 135.87 42.38 134.5 51.72 132.7 51.72 129.57 45.24 128.63 51.72 126.7 51.72 128.07 42.38"/><path class="cls-1" d="M142.14,43.37l-1,1.36a8.7,8.7,0,0,0-.88-.57,1.43,1.43,0,0,0-.7-.19,1.23,1.23,0,0,0-.87.31,1,1,0,0,0-.34.79.93.93,0,0,0,.37.73,5.28,5.28,0,0,0,1.25.7,7.79,7.79,0,0,1,1,.69,2.51,2.51,0,0,1,.72,1.75,2.71,2.71,0,0,1-.91,2.06,3.09,3.09,0,0,1-2.19.85,4.56,4.56,0,0,1-3-1.21l1.1-1.35.85.56a1.7,1.7,0,0,0,.94.31,1.24,1.24,0,0,0,.88-.34,1.07,1.07,0,0,0,.36-.81,1,1,0,0,0-.36-.76,3.75,3.75,0,0,0-1.08-.63,5,5,0,0,1-1-.53,2.51,2.51,0,0,1-.6-.72,2.3,2.3,0,0,1-.3-1.23,2.66,2.66,0,0,1,.91-2.06,3.29,3.29,0,0,1,2.29-.82,3.85,3.85,0,0,1,2.62,1.12"/><path class="cls-1" d="M146.79,42.38h1.34l2.38,9.34H148.7l-.47-1.88h-3.46l-1,1.88h-2Zm.34,3.07-1.48,2.75h2.17Z"/><path class="cls-1" d="M152.81,42.38H155q3.21,0,3.21,2.39a2.52,2.52,0,0,1-1.32,2.17A2.31,2.31,0,0,1,157.3,51a5.3,5.3,0,0,1-3,.7H151.4ZM154,47.63l-.38,2.55h1a2.51,2.51,0,0,0,1.39-.35,1,1,0,0,0,.53-.89A1.14,1.14,0,0,0,156,48a1.92,1.92,0,0,0-1.21-.38Zm.55-3.71-.33,2.23h.73a1.93,1.93,0,0,0,1.14-.31.93.93,0,0,0,.45-.78,1,1,0,0,0-.39-.83,1.61,1.61,0,0,0-1-.31Z"/><polygon class="cls-1" points="160.53 42.38 162.45 42.38 161.33 50.06 164.42 50.06 164.18 51.72 159.16 51.72 160.53 42.38"/><polygon class="cls-1" points="166.76 42.38 171.82 42.38 171.57 44.03 168.44 44.03 168.13 46.09 171.1 46.09 170.84 47.76 167.88 47.76 167.54 50.06 170.56 50.06 170.32 51.72 165.34 51.72 166.76 42.38"/><path class="cls-1" d="M95.52,30l-1,1.36a10,10,0,0,0-.89-.57,1.47,1.47,0,0,0-.7-.19,1.24,1.24,0,0,0-.87.31,1,1,0,0,0-.34.79.94.94,0,0,0,.37.73,5.37,5.37,0,0,0,1.25.7,7.8,7.8,0,0,1,1,.69A2.51,2.51,0,0,1,95,35.57a2.71,2.71,0,0,1-.91,2.06,3.09,3.09,0,0,1-2.19.85,4.57,4.57,0,0,1-3-1.21L90,35.92l.85.57a1.72,1.72,0,0,0,.95.31,1.25,1.25,0,0,0,.88-.34,1.08,1.08,0,0,0,.36-.81,1,1,0,0,0-.36-.76,3.82,3.82,0,0,0-1.08-.63,4.92,4.92,0,0,1-1-.53A2.59,2.59,0,0,1,90,33a2.31,2.31,0,0,1-.3-1.22,2.65,2.65,0,0,1,.91-2.06,3.29,3.29,0,0,1,2.29-.82A3.86,3.86,0,0,1,95.52,30"/><path class="cls-1" d="M101.16,28.88a4.33,4.33,0,0,1,3.29,1.22,4.73,4.73,0,0,1,1.15,3.39,4.8,4.8,0,0,1-1.44,3.63,5.18,5.18,0,0,1-3.76,1.38,4.3,4.3,0,0,1-3.24-1.24A4.64,4.64,0,0,1,96,33.89a4.8,4.8,0,0,1,1.45-3.58,5.09,5.09,0,0,1,3.74-1.43m2.52,4.63a3.06,3.06,0,0,0-.74-2.14,2.52,2.52,0,0,0-2-.81,2.86,2.86,0,0,0-2.16,1,3.3,3.3,0,0,0-.91,2.33A3,3,0,0,0,98.65,36a2.47,2.47,0,0,0,1.92.83,2.9,2.9,0,0,0,2.19-1,3.28,3.28,0,0,0,.91-2.33"/><path class="cls-1" d="M114.58,29.67l-.25,1.71a3.29,3.29,0,0,0-2.17-.77,3.38,3.38,0,0,0-2.44,1,3.23,3.23,0,0,0-1,2.37,2.67,2.67,0,0,0,.75,2,2.62,2.62,0,0,0,1.95.76,5,5,0,0,0,2.36-.69l-.28,1.9a5,5,0,0,1-2.35.6,4.15,4.15,0,0,1-3.25-1.31,4.5,4.5,0,0,1-1.17-3.11,4.88,4.88,0,0,1,1.57-3.81,5.21,5.21,0,0,1,6.32-.64"/><polygon class="cls-1" points="115.89 29.03 117.81 29.03 116.43 38.37 114.5 38.37 115.89 29.03"/><path class="cls-1" d="M122.47,29h1.34l2.38,9.34h-1.81l-.47-1.88h-3.46l-1,1.88h-2Zm.34,3.07-1.48,2.75h2.17Z"/><polygon class="cls-1" points="128.48 29.03 130.4 29.03 129.29 36.71 132.38 36.71 132.14 38.37 127.11 38.37 128.48 29.03"/><polygon class="cls-1" points="135.85 29.03 137.63 29.03 138.59 34.28 141.22 29.03 143.02 29.03 143.02 38.37 141.29 38.37 141.29 32.79 138.44 38.37 137.54 38.37 136.49 32.55 134.52 38.37 132.69 38.37 135.85 29.03"/><polygon class="cls-1" points="145.5 29.03 150.56 29.03 150.31 30.67 147.18 30.67 146.87 32.74 149.84 32.74 149.57 34.41 146.62 34.41 146.28 36.71 149.3 36.71 149.06 38.37 144.08 38.37 145.5 29.03"/><polygon class="cls-1" points="151.69 29.03 153.66 29.03 156.65 35.28 157.57 29.03 159.48 29.03 158.11 38.37 156.32 38.37 153.19 31.88 152.24 38.37 150.31 38.37 151.69 29.03"/><polygon class="cls-1" points="160.44 29.03 166.16 29.03 165.91 30.67 164 30.67 162.88 38.37 160.98 38.37 162.09 30.67 160.21 30.67 160.44 29.03"/><polygon class="cls-1" points="167.18 29.03 172.24 29.03 171.99 30.67 168.86 30.67 168.55 32.74 171.52 32.74 171.25 34.41 168.3 34.41 167.96 36.71 170.99 36.71 170.74 38.37 165.76 38.37 167.18 29.03"/></g></g></svg>