<svg xmlns="http://www.w3.org/2000/svg" xmlns:xlink="http://www.w3.org/1999/xlink" viewBox="0 0 67.03 67.02"><defs><style>.cls-1{fill:url(#linear-gradient);}.cls-2{fill:url(#linear-gradient-2);}.cls-3{fill:url(#linear-gradient-3);}.cls-4{fill:url(#linear-gradient-4);}.cls-5{fill:url(#linear-gradient-5);}.cls-6{fill:url(#linear-gradient-6);}.cls-7{fill:url(#linear-gradient-7);}.cls-8{fill:url(#linear-gradient-8);}.cls-9{fill:url(#linear-gradient-9);}.cls-10{fill:url(#linear-gradient-10);}.cls-11{fill:none;}.cls-12{fill:url(#New_Gradient_Swatch_5);}.cls-13{fill:url(#New_Gradient_Swatch_5-2);}.cls-14{fill:url(#New_Gradient_Swatch_5-3);}.cls-15{fill:url(#New_Gradient_Swatch_5-4);}.cls-16{fill:url(#New_Gradient_Swatch_5-5);}.cls-17{fill:url(#New_Gradient_Swatch_5-6);}.cls-18{fill:url(#New_Gradient_Swatch_5-7);}.cls-19{fill:url(#New_Gradient_Swatch_5-8);}.cls-20{fill:url(#New_Gradient_Swatch_5-9);}.cls-21{fill:#791f0b;}</style><linearGradient id="linear-gradient" x1="33.51" y1="67.02" x2="33.51" gradientUnits="userSpaceOnUse"><stop offset="0" stop-color="#4c6e20"/><stop offset="0.04" stop-color="#537525"/><stop offset="0.28" stop-color="#78a043"/><stop offset="0.5" stop-color="#93bf59"/><stop offset="0.68" stop-color="#a4d266"/><stop offset="0.81" stop-color="#aad96b"/></linearGradient><linearGradient id="linear-gradient-2" x1="-2702" y1="944.32" x2="-2702" y2="943.39" gradientTransform="matrix(37.4, 0, 0, -37.4, 101077.01, 35316.52)" gradientUnits="userSpaceOnUse"><stop offset="0" stop-color="#e2f9cd"/><stop offset="0.3" stop-color="#c2e29f"/><stop offset="0.59" stop-color="#a7ce77"/><stop offset="0.83" stop-color="#96c25f"/><stop offset="0.97" stop-color="#90bd56"/></linearGradient><linearGradient id="linear-gradient-3" x1="33.51" y1="67.02" x2="33.51" gradientUnits="userSpaceOnUse"><stop offset="0" stop-color="#80235d"/><stop offset="0.16" stop-color="#9a3d77"/><stop offset="0.43" stop-color="#c2639d"/><stop offset="0.64" stop-color="#da7ab4"/><stop offset="0.78" stop-color="#e383bd"/></linearGradient><linearGradient id="linear-gradient-4" x1="-2702" y1="944.32" x2="-2702" y2="943.39" gradientTransform="matrix(37.4, 0, 0, -37.4, 101077.01, 35316.52)" gradientUnits="userSpaceOnUse"><stop offset="0" stop-color="#ecc9da"/><stop offset="0.19" stop-color="#e5a6ca"/><stop offset="0.37" stop-color="#df8cbd"/><stop offset="0.53" stop-color="#db7cb6"/><stop offset="0.66" stop-color="#da76b3"/><stop offset="1" stop-color="#c5669f"/></linearGradient><linearGradient id="linear-gradient-5" x1="33.51" y1="67.02" x2="33.51" gradientUnits="userSpaceOnUse"><stop offset="0" stop-color="#3c559c"/><stop offset="0.23" stop-color="#5e7fbf"/><stop offset="0.49" stop-color="#7da7e0"/><stop offset="0.69" stop-color="#90bff5"/><stop offset="0.81" stop-color="#97c8fc"/></linearGradient><linearGradient id="linear-gradient-6" x1="-2702" y1="944.32" x2="-2702" y2="943.39" gradientTransform="matrix(37.4, 0, 0, -37.4, 101077.01, 35316.52)" gradientUnits="userSpaceOnUse"><stop offset="0.04" stop-color="#d2e5fd"/><stop offset="0.07" stop-color="#cde1fc"/><stop offset="0.39" stop-color="#a5c7f2"/><stop offset="0.64" stop-color="#8db6eb"/><stop offset="0.79" stop-color="#84b0e9"/><stop offset="1" stop-color="#7a9fdc"/></linearGradient><linearGradient id="linear-gradient-7" x1="33.51" y1="67.02" x2="33.51" gradientUnits="userSpaceOnUse"><stop offset="0" stop-color="#8c4811"/><stop offset="0.21" stop-color="#ac6c23"/><stop offset="0.46" stop-color="#cf9437"/><stop offset="0.67" stop-color="#e4ac43"/><stop offset="0.79" stop-color="#ecb548"/></linearGradient><linearGradient id="linear-gradient-8" x1="-2702" y1="943.39" x2="-2702" y2="944.32" gradientTransform="matrix(37.4, 0, 0, -37.4, 101077.01, 35316.52)" gradientUnits="userSpaceOnUse"><stop offset="0" stop-color="#ce9033"/><stop offset="0.45" stop-color="#e2b156"/><stop offset="0.7" stop-color="#efc56c"/><stop offset="1" stop-color="#f3e4c7"/></linearGradient><linearGradient id="linear-gradient-9" x1="33.51" y1="67.02" x2="33.51" gradientUnits="userSpaceOnUse"><stop offset="0" stop-color="#606466"/><stop offset="0.03" stop-color="#65696b"/><stop offset="0.41" stop-color="#a8aeb0"/><stop offset="0.68" stop-color="#d2d9db"/><stop offset="0.82" stop-color="#e2eaeb"/></linearGradient><linearGradient id="linear-gradient-10" x1="-2702" y1="943.39" x2="-2702" y2="944.32" gradientTransform="matrix(37.4, 0, 0, -37.4, 101077.01, 35316.52)" gradientUnits="userSpaceOnUse"><stop offset="0" stop-color="#adb5b5"/><stop offset="0.59" stop-color="#dde1e3"/><stop offset="0.84" stop-color="#fafcff"/></linearGradient><linearGradient id="New_Gradient_Swatch_5" x1="22.33" y1="17.1" x2="45.5" y2="17.1" gradientUnits="userSpaceOnUse"><stop offset="0" stop-color="#d4dde4"/><stop offset="0.26" stop-color="#ccd5db"/><stop offset="0.68" stop-color="#c2cbd1"/></linearGradient><linearGradient id="New_Gradient_Swatch_5-2" x1="22.33" y1="23.74" x2="45.46" y2="23.74" xlink:href="#New_Gradient_Swatch_5"/><linearGradient id="New_Gradient_Swatch_5-3" x1="22.33" y1="37.09" x2="32.12" y2="37.09" xlink:href="#New_Gradient_Swatch_5"/><linearGradient id="New_Gradient_Swatch_5-4" x1="22.33" y1="30.46" x2="45.46" y2="30.46" xlink:href="#New_Gradient_Swatch_5"/><linearGradient id="New_Gradient_Swatch_5-5" x1="38.53" y1="45.39" x2="41.89" y2="45.39" xlink:href="#New_Gradient_Swatch_5"/><linearGradient id="New_Gradient_Swatch_5-6" x1="42.83" y1="43.64" x2="46.19" y2="43.64" xlink:href="#New_Gradient_Swatch_5"/><linearGradient id="New_Gradient_Swatch_5-7" x1="34.35" y1="46.63" x2="37.71" y2="46.63" xlink:href="#New_Gradient_Swatch_5"/><linearGradient id="New_Gradient_Swatch_5-8" x1="34.49" y1="36.34" x2="41.15" y2="36.34" xlink:href="#New_Gradient_Swatch_5"/><linearGradient id="New_Gradient_Swatch_5-9" x1="16.56" y1="33.14" x2="51.89" y2="33.14" xlink:href="#New_Gradient_Swatch_5"/></defs><title>politica</title><g id="Capa_2" data-name="Capa 2"><g id="Capa_1-2" data-name="Capa 1"><path class="cls-1" d="M67,33.5A33.51,33.51,0,1,1,33.52,0,33.53,33.53,0,0,1,67,33.5Z"/><path class="cls-2" d="M34.68,2.29a33,33,0,0,0-6,.57C15.72,5.27,6.64,14.74,8.36,24c1.45,7.79,10.11,12.94,20.51,12.94a32.73,32.73,0,0,0,6-.57C47.85,34,56.92,24.5,55.19,15.25,53.74,7.46,45.1,2.29,34.68,2.29Z"/><path class="cls-3" d="M67,33.5A33.51,33.51,0,1,1,33.52,0,33.53,33.53,0,0,1,67,33.5Z"/><path class="cls-4" d="M34.68,2.29a33,33,0,0,0-6,.57C15.72,5.27,6.64,14.74,8.36,24c1.45,7.79,10.11,12.94,20.51,12.94a32.73,32.73,0,0,0,6-.57C47.85,34,56.92,24.5,55.19,15.25,53.74,7.46,45.1,2.29,34.68,2.29Z"/><path class="cls-5" d="M67,33.5A33.51,33.51,0,1,1,33.52,0,33.53,33.53,0,0,1,67,33.5Z"/><path class="cls-6" d="M34.68,2.29a33,33,0,0,0-6,.57C15.72,5.27,6.64,14.74,8.36,24c1.45,7.79,10.11,12.94,20.51,12.94a32.73,32.73,0,0,0,6-.57C47.85,34,56.92,24.5,55.19,15.25,53.74,7.46,45.1,2.29,34.68,2.29Z"/><path class="cls-7" d="M67,33.5A33.51,33.51,0,1,1,33.52,0,33.53,33.53,0,0,1,67,33.5Z"/><path class="cls-8" d="M34.68,2.29a33,33,0,0,0-6,.57C15.72,5.27,6.64,14.74,8.36,24c1.45,7.79,10.11,12.94,20.51,12.94a32.73,32.73,0,0,0,6-.57C47.85,34,56.92,24.5,55.19,15.25,53.74,7.46,45.1,2.29,34.68,2.29Z"/><path class="cls-9" d="M67,33.5A33.51,33.51,0,1,1,33.52,0,33.53,33.53,0,0,1,67,33.5Z"/><path class="cls-10" d="M34.68,2.29a33,33,0,0,0-6,.57C15.72,5.27,6.64,14.74,8.36,24c1.45,7.79,10.11,12.94,20.51,12.94a32.73,32.73,0,0,0,6-.57C47.85,34,56.92,24.5,55.19,15.25,53.74,7.46,45.1,2.29,34.68,2.29Z"/><path class="cls-11" d="M35.08,41.13a.54.54,0,0,1-.24-.44v-.95a.55.55,0,0,1,.55-.55h1.44a.55.55,0,0,1,.55.55v.95a.54.54,0,0,1-.18.4l1.22,4.14-2.28,5.84-2.3-5.91Zm7-2L36.13,54.37,30.2,39.12c-6,2.36-9,8.19-10.18,15.34H52.25C51,47.31,48.09,41.48,42.08,39.12ZM36.2,37.66a8.78,8.78,0,1,0-8.78-8.78A8.77,8.77,0,0,0,36.2,37.66Zm-4-13.9a11.51,11.51,0,0,0,8.6,3.72,12,12,0,0,0,2.49-.26,7.43,7.43,0,0,1,.2,1.66,7.27,7.27,0,0,1-14.52.41A9.77,9.77,0,0,0,32.18,23.76Z"/><path class="cls-12" d="M23.32,18.1a1,1,0,0,1,0-2H44.51a1,1,0,0,1,0,2Z"/><path class="cls-13" d="M23.32,22.75H44.47a1,1,0,0,1,0,2H23.32a1,1,0,0,1,0-2Z"/><path class="cls-14" d="M32.12,37.09a1,1,0,0,1-1,1H23.32a1,1,0,0,1,0-2h7.81A1,1,0,0,1,32.12,37.09Z"/><path class="cls-15" d="M23.32,29.46H44.47a1,1,0,0,1,0,2H23.32a1,1,0,0,1,0-2Z"/><rect class="cls-16" x="38.53" y="40.11" width="3.36" height="10.56" rx="0.86" ry="0.86"/><rect class="cls-17" x="42.83" y="36.6" width="3.36" height="14.08" rx="0.86" ry="0.86"/><rect class="cls-18" x="34.35" y="42.59" width="3.36" height="8.09" rx="0.86" ry="0.86"/><path class="cls-19" d="M40.63,34,37,35l1,.63L38,35.8l-.29.47a3.42,3.42,0,0,1-3.2,1.62l.15.09a4.42,4.42,0,0,0,2.73.73A3.71,3.71,0,0,0,40,37l.1-.13,1.05.64L40.63,34Z"/><path class="cls-20" d="M48.76,10.07H19.7a3.13,3.13,0,0,0-3.13,3.13V53.06A3.13,3.13,0,0,0,19.7,56.2H48.76a3.13,3.13,0,0,0,3.13-3.13V13.21A3.13,3.13,0,0,0,48.76,10.07Zm.47,41.33a2.39,2.39,0,0,1-2.39,2.39H21.62a2.39,2.39,0,0,1-2.39-2.39V14.87a2.39,2.39,0,0,1,2.39-2.39H46.83a2.39,2.39,0,0,1,2.39,2.39Z"/><path class="cls-21" d="M23.63,17.28a1,1,0,0,1,0-2H44.82a1,1,0,0,1,0,2Z"/><path class="cls-21" d="M23.63,21.93H44.78a1,1,0,0,1,0,2H23.63a1,1,0,0,1,0-2Z"/><path class="cls-21" d="M32.43,36.28a1,1,0,0,1-1,1H23.63a1,1,0,0,1,0-2h7.81A1,1,0,0,1,32.43,36.28Z"/><path class="cls-21" d="M23.63,28.64H44.78a1,1,0,0,1,0,2H23.63a1,1,0,0,1,0-2Z"/><rect class="cls-21" x="38.85" y="39.29" width="3.36" height="10.56" rx="0.86" ry="0.86"/><rect class="cls-21" x="43.14" y="35.78" width="3.36" height="14.08" rx="0.86" ry="0.86"/><rect class="cls-21" x="34.66" y="41.77" width="3.36" height="8.09" rx="0.86" ry="0.86"/><path class="cls-21" d="M40.94,33.14l-3.6,1.06,1,.63-.09.15-.29.47a3.42,3.42,0,0,1-3.2,1.62l.15.09a4.42,4.42,0,0,0,2.73.73,3.71,3.71,0,0,0,2.63-1.68l.1-.13,1.05.64-.52-3.59Z"/><path class="cls-21" d="M49.07,9.26H20a3.13,3.13,0,0,0-3.13,3.13V52.25A3.13,3.13,0,0,0,20,55.38H49.07a3.13,3.13,0,0,0,3.13-3.13V12.39A3.13,3.13,0,0,0,49.07,9.26Zm.47,41.33A2.39,2.39,0,0,1,47.14,53H21.94a2.39,2.39,0,0,1-2.39-2.39V14.05a2.39,2.39,0,0,1,2.39-2.39H47.14a2.39,2.39,0,0,1,2.39,2.39Z"/></g></g></svg>