<svg xmlns="http://www.w3.org/2000/svg" viewBox="0 0 409.01 43.97"><defs><style>.cls-1{fill:#791f0b;}.cls-2{fill:#fff;}</style></defs><title>Recurso 2</title><g id="Capa_2" data-name="Capa 2"><g id="Capa_1-2" data-name="Capa 1"><path class="cls-1" d="M0,44V21.16a12,12,0,0,1,12-12H397a12,12,0,0,1,12,12V44"/><path class="cls-1" d="M204.5,28.56a14.28,14.28,0,1,0-14.28-14.28A14.27,14.27,0,0,0,204.5,28.56"/><path class="cls-2" d="M211.67,10.54A5.78,5.78,0,0,1,210,11a2.94,2.94,0,0,0,1.29-1.62,5.89,5.89,0,0,1-1.87.71,2.94,2.94,0,0,0-5.08,2,3,3,0,0,0,.08.67,8.35,8.35,0,0,1-6-3.07,2.94,2.94,0,0,0,.91,3.92,3,3,0,0,1-1.33-.37v0a2.94,2.94,0,0,0,2.36,2.88,2.81,2.81,0,0,1-.77.11,2.86,2.86,0,0,1-.55-.05,2.93,2.93,0,0,0,2.74,2,5.88,5.88,0,0,1-3.64,1.26,7,7,0,0,1-.7,0,8.35,8.35,0,0,0,12.85-7c0-.13,0-.25,0-.38a6,6,0,0,0,1.47-1.52"/></g></g></svg>