<svg xmlns="http://www.w3.org/2000/svg" viewBox="0 0 409.01 43.97"><defs><style>.cls-1{fill:#791f0b;}.cls-2{fill:#fff;}</style></defs><title>Recurso 3</title><g id="Capa_2" data-name="Capa 2"><g id="Capa_1-2" data-name="Capa 1"><path class="cls-1" d="M0,44V21.16a12,12,0,0,1,12-12H397a12,12,0,0,1,12,12V44"/><path class="cls-1" d="M204.5,28.56a14.28,14.28,0,1,0-14.28-14.28A14.27,14.27,0,0,0,204.5,28.56"/><path class="cls-2" d="M200.47,11.86h1.47V10.43a3.84,3.84,0,0,1,.48-2.21,2.63,2.63,0,0,1,2.29-1.07,9.29,9.29,0,0,1,2.65.27L207,9.59a5,5,0,0,0-1.19-.18c-.58,0-1.09.21-1.09.78v1.67h2.35L206.9,14h-2.19v7.42h-2.77V14h-1.47Z"/></g></g></svg>