<svg xmlns="http://www.w3.org/2000/svg" viewBox="0 0 27.03 27.02"><defs><style>.cls-1{fill:#616160;}.cls-2{fill:#fff;}</style></defs><title>twitterHeader</title><g id="Capa_2" data-name="Capa 2"><g id="Capa_1-2" data-name="Capa 1"><path class="cls-1" d="M13.51,27A13.51,13.51,0,1,0,0,13.51,13.51,13.51,0,0,0,13.51,27"/><path class="cls-2" d="M20.29,10a5.54,5.54,0,0,1-1.6.44,2.78,2.78,0,0,0,1.22-1.53,5.57,5.57,0,0,1-1.77.67,2.78,2.78,0,0,0-4.8,1.9,2.88,2.88,0,0,0,.07.63A7.9,7.9,0,0,1,7.7,9.18a2.78,2.78,0,0,0,.86,3.71,2.8,2.8,0,0,1-1.26-.35v0A2.78,2.78,0,0,0,9.53,15.3a2.62,2.62,0,0,1-.73.1,2.78,2.78,0,0,1-.52,0,2.78,2.78,0,0,0,2.59,1.93,5.57,5.57,0,0,1-3.45,1.19,5.91,5.91,0,0,1-.66,0,7.9,7.9,0,0,0,12.16-6.66c0-.12,0-.24,0-.36A5.67,5.67,0,0,0,20.29,10"/></g></g></svg>