<svg xmlns="http://www.w3.org/2000/svg" viewBox="0 0 27.03 27.02"><defs><style>.cls-1{fill:#616160;}.cls-2{fill:#fff;}</style></defs><title>ytHeader</title><g id="Capa_2" data-name="Capa 2"><g id="Capa_1-2" data-name="Capa 1"><path class="cls-1" d="M13.51,27A13.51,13.51,0,1,0,0,13.51,13.51,13.51,0,0,0,13.51,27"/><path class="cls-2" d="M21.36,10.31a3.47,3.47,0,0,0-.64-1.59A2.3,2.3,0,0,0,19.12,8c-2.24-.16-5.61-.16-5.61-.16h0s-3.36,0-5.61.16a2.29,2.29,0,0,0-1.61.68,3.46,3.46,0,0,0-.64,1.59A24.39,24.39,0,0,0,5.5,12.9v1.22a24.38,24.38,0,0,0,.16,2.59A3.46,3.46,0,0,0,6.3,18.3,2.71,2.71,0,0,0,8.07,19c1.28.12,5.45.16,5.45.16s3.37,0,5.61-.17a2.29,2.29,0,0,0,1.61-.68,3.47,3.47,0,0,0,.64-1.59,24.23,24.23,0,0,0,.16-2.59V12.9a24.25,24.25,0,0,0-.16-2.59m-9.5,5.28v-4.5l4.33,2.26Z"/></g></g></svg>